<svg width="87" height="87" viewBox="0 0 87 87" fill="none" xmlns="http://www.w3.org/2000/svg">
<path d="M43.4332 86.8664C67.4207 86.8664 86.8664 67.4207 86.8664 43.4332C86.8664 19.4457 67.4207 0 43.4332 0C19.4457 0 0 19.4457 0 43.4332C0 67.4207 19.4457 86.8664 43.4332 86.8664Z" fill="url(#paint0_linear_2241_931)"/>
<path d="M43.4336 77.1348C62.0462 77.1348 77.1348 62.0462 77.1348 43.4336C77.1348 24.8209 62.0462 9.73242 43.4336 9.73242C24.8209 9.73242 9.73242 24.8209 9.73242 43.4336C9.73242 62.0462 24.8209 77.1348 43.4336 77.1348Z" fill="url(#paint1_linear_2241_931)"/>
<path d="M16.8245 72.1071C16.949 71.9826 16.9987 71.8582 16.9738 71.7088C16.949 71.5595 16.8743 71.3355 16.7001 71.0617C16.5258 70.7879 16.4512 70.5639 16.4014 70.3896C16.3516 70.1407 16.4263 69.9416 16.5756 69.7674C16.7249 69.5932 16.9241 69.5434 17.173 69.5683C17.4219 69.5932 17.6459 69.7176 17.845 69.9167C17.9943 70.0661 18.0939 70.2154 18.1437 70.3648C18.1935 70.539 18.2183 70.6883 18.1935 70.8626C18.1686 71.0119 18.0939 71.1612 17.9694 71.2857L17.7952 71.1115C17.9446 70.9621 17.9943 70.7879 17.9943 70.6137C17.9694 70.4145 17.8948 70.2403 17.7205 70.091C17.5463 69.9416 17.397 69.8421 17.2227 69.8172C17.0485 69.7923 16.8992 69.8421 16.7996 69.9665C16.7001 70.0661 16.6503 70.2154 16.6752 70.3648C16.7001 70.5141 16.7747 70.7132 16.9241 70.9621C17.0734 71.211 17.173 71.4101 17.1979 71.5595C17.2476 71.7088 17.2476 71.8582 17.2227 71.9826C17.1979 72.1071 17.1232 72.2315 17.0236 72.3311C16.8494 72.5053 16.6503 72.58 16.4263 72.5551C16.2023 72.5302 15.9533 72.4057 15.7293 72.1817C15.58 72.0324 15.4555 71.883 15.3809 71.6839C15.3062 71.5097 15.2813 71.3355 15.3062 71.1861C15.3311 71.0119 15.4058 70.8874 15.5302 70.763L15.7044 70.9372C15.5551 71.0866 15.5053 71.2608 15.5302 71.4599C15.5551 71.659 15.6796 71.8582 15.8538 72.0324C16.028 72.2066 16.2023 72.2813 16.3765 72.3062C16.5507 72.2813 16.7001 72.2315 16.8245 72.1071Z" fill="white"/>
<path d="M19.5619 73.6743C19.3877 73.8983 19.1886 74.0477 18.9894 74.1472C18.7903 74.2468 18.5663 74.2717 18.3672 74.2468C18.1681 74.2219 17.969 74.1223 17.7947 73.973C17.5209 73.749 17.3965 73.4752 17.3965 73.1267C17.3965 72.7783 17.5209 72.4547 17.7947 72.1311L17.9938 71.8822C18.1681 71.6831 18.3672 71.5089 18.5663 71.4093C18.7654 71.3098 18.9894 71.2849 19.1886 71.3098C19.3877 71.3346 19.5868 71.4342 19.761 71.5836C19.9353 71.7329 20.0597 71.9071 20.1344 72.1062C20.2091 72.3054 20.2091 72.5045 20.1344 72.7285C20.0846 72.9525 19.9602 73.1516 19.7859 73.3756L19.5619 73.6743ZM19.5868 73.2512C19.8108 72.9774 19.9353 72.7036 19.9353 72.4298C19.9353 72.156 19.8357 71.932 19.6117 71.7578C19.3877 71.5835 19.1637 71.5089 18.8899 71.5587C18.641 71.6084 18.3921 71.7827 18.1432 72.0565L17.9441 72.3054C17.7201 72.5792 17.5956 72.8529 17.5956 73.1267C17.5956 73.4005 17.6952 73.6245 17.9192 73.7988C18.1432 73.973 18.3672 74.0477 18.641 73.9979C18.9148 73.9481 19.1388 73.7739 19.3877 73.5001L19.5868 73.2512Z" fill="white"/>
<path d="M21.6011 75.6676C21.3771 75.9165 21.1531 76.0409 20.9042 76.0658C20.6553 76.0907 20.3815 76.016 20.1326 75.8169C19.9584 75.6924 19.8339 75.5182 19.7593 75.344C19.6846 75.1449 19.6597 74.9457 19.7095 74.7217C19.7593 74.4977 19.8588 74.2737 20.0082 74.0746L20.2322 73.751C20.3815 73.527 20.5558 73.3777 20.7549 73.2532C20.954 73.1288 21.1531 73.079 21.3522 73.1039C21.5514 73.1039 21.7505 73.1785 21.9496 73.3279C22.2234 73.527 22.3727 73.7261 22.4225 73.975C22.4723 74.2239 22.4225 74.4728 22.2732 74.7466L22.074 74.5973C22.323 74.1493 22.2483 73.7759 21.85 73.4772C21.626 73.3279 21.402 73.2781 21.1531 73.3528C20.9042 73.4275 20.6802 73.6017 20.4562 73.9004L20.2322 74.199C20.0331 74.4728 19.9335 74.7466 19.9335 75.0204C19.9335 75.2942 20.058 75.4933 20.282 75.6427C20.506 75.792 20.7051 75.8667 20.8793 75.8418C21.0536 75.8169 21.2527 75.7173 21.4269 75.5182L21.6011 75.6676Z" fill="white"/>
<path d="M22.6738 77.4559L23.7192 75.7136L23.3956 75.5145L23.4952 75.3402L23.8188 75.5394L23.9681 75.3154C24.0926 75.1162 24.217 74.9918 24.3912 74.942C24.5655 74.8922 24.7148 74.9171 24.9139 75.0416C24.9886 75.0913 25.0633 75.1411 25.1131 75.2158L24.9886 75.39C24.9388 75.3402 24.889 75.2905 24.8144 75.2407C24.6899 75.166 24.5904 75.1411 24.4659 75.1909C24.3415 75.2407 24.2668 75.3154 24.1921 75.4398L24.0428 75.6887L24.4908 75.9625L24.3912 76.1367L23.9432 75.8629L22.8978 77.6052L22.6738 77.4559Z" fill="white"/>
<path d="M24.243 77.0598C24.3425 76.8606 24.467 76.7113 24.6412 76.6117C24.7906 76.4873 24.9648 76.4375 25.139 76.4375C25.3133 76.4375 25.4875 76.4624 25.6617 76.562C25.9355 76.7113 26.0849 76.9104 26.1595 77.1842C26.2342 77.458 26.1844 77.7318 26.0102 78.0554L25.9853 78.1051C25.8857 78.3043 25.7613 78.4536 25.5871 78.5532C25.4377 78.6776 25.2635 78.7274 25.0893 78.7274C24.915 78.7274 24.7408 78.7025 24.5666 78.6029C24.3177 78.4536 24.1434 78.2545 24.0688 77.9807C23.9941 77.7069 24.0439 77.4331 24.2181 77.1095L24.243 77.0598ZM24.4172 77.234C24.2928 77.458 24.243 77.7069 24.2928 77.906C24.3425 78.13 24.4421 78.2794 24.6412 78.3789C24.8404 78.4785 25.0395 78.5034 25.2386 78.4038C25.4377 78.3043 25.6119 78.1549 25.7364 77.906L25.7613 77.8562C25.836 77.7069 25.8857 77.5576 25.9106 77.4082C25.9106 77.2589 25.8857 77.1095 25.836 76.9851C25.7613 76.8606 25.6866 76.7611 25.5373 76.6864C25.3382 76.5868 25.139 76.5619 24.9399 76.6615C24.7408 76.7362 24.5666 76.9104 24.4421 77.1593L24.4172 77.234Z" fill="white"/>
<path d="M27.8013 77.8806C27.7516 77.8557 27.7018 77.8308 27.652 77.8059C27.5027 77.7312 27.3782 77.7312 27.2538 77.7561C27.1293 77.781 27.0049 77.8806 26.8804 78.005L26.2084 79.3989L25.9844 79.2993L26.9551 77.2832L27.1791 77.3828L27.0298 77.7063C27.2538 77.5321 27.5027 77.4823 27.7765 77.6068C27.8511 77.6317 27.876 77.6566 27.9009 77.7063L27.8013 77.8806Z" fill="white"/>
<path d="M30.2908 80.2936C30.3406 80.1443 30.3406 79.995 30.266 79.8705C30.1913 79.7461 30.0171 79.5718 29.7682 79.3727C29.5193 79.1736 29.3201 78.9994 29.2206 78.85C29.0712 78.6509 29.0463 78.4269 29.1459 78.2029C29.2206 77.9789 29.3948 77.8544 29.6188 77.7797C29.8428 77.7051 30.0917 77.73 30.3655 77.8295C30.5646 77.9042 30.714 78.0038 30.8135 78.1282C30.938 78.2527 31.0127 78.402 31.0375 78.5513C31.0624 78.7007 31.0624 78.8749 30.9878 79.0242L30.7389 78.9247C30.8135 78.7256 30.8135 78.5513 30.714 78.3771C30.6393 78.2029 30.4651 78.0784 30.2411 78.0038C30.0171 77.9291 29.8428 77.9042 29.6686 77.954C29.4944 78.0038 29.3948 78.1033 29.345 78.2527C29.2952 78.402 29.2952 78.5264 29.3948 78.6758C29.4944 78.8251 29.6188 78.9496 29.8428 79.1238C30.0668 79.298 30.2411 79.4225 30.3406 79.5469C30.4402 79.6714 30.5149 79.7958 30.5397 79.9203C30.5646 80.0447 30.5646 80.1941 30.49 80.3185C30.4153 80.5425 30.2411 80.6919 30.0171 80.7417C29.793 80.8163 29.5193 80.7914 29.2455 80.667C29.0463 80.5923 28.8721 80.4928 28.7477 80.3434C28.5983 80.219 28.5237 80.0696 28.4739 79.8954C28.449 79.7461 28.449 79.5718 28.5237 79.3976L28.7726 79.4972C28.6979 79.6963 28.7228 79.8705 28.8223 80.0447C28.9219 80.219 29.0961 80.3434 29.345 80.443C29.569 80.5177 29.7682 80.5425 29.9175 80.4928C30.0917 80.5425 30.2162 80.443 30.2908 80.2936Z" fill="white"/>
<path d="M31.6342 81.5651C31.46 81.5153 31.3106 81.4157 31.1862 81.2664C31.0617 81.117 30.987 80.9677 30.9622 80.7935C30.9373 80.6192 30.9373 80.4201 31.0119 80.221L31.0368 80.1463C31.1115 79.9472 31.1862 79.773 31.3355 79.6236C31.46 79.4743 31.6093 79.3996 31.7835 79.3498C31.9578 79.3001 32.132 79.3001 32.2813 79.3498C32.5302 79.4245 32.7293 79.5739 32.804 79.7979C32.9036 80.0219 32.9036 80.2957 32.804 80.5943L32.7542 80.7188L31.2359 80.2459L31.2111 80.2957C31.1364 80.5446 31.1364 80.7686 31.2359 80.9677C31.3355 81.1668 31.4848 81.3162 31.684 81.3659C31.8084 81.4157 31.9329 81.4157 32.0324 81.3908C32.132 81.3659 32.2564 81.3162 32.356 81.2415L32.4804 81.3908C32.2564 81.6148 31.9826 81.6646 31.6342 81.5651ZM32.2315 79.5241C32.0573 79.4743 31.8831 79.4992 31.7089 79.5739C31.5346 79.6734 31.4102 79.8227 31.3106 80.0219L32.6049 80.4201V80.3952C32.6547 80.1961 32.6547 79.997 32.58 79.8476C32.5302 79.6983 32.4058 79.5738 32.2315 79.5241Z" fill="white"/>
<path d="M34.5237 80.1941C34.4739 80.1692 34.4241 80.1443 34.3743 80.1443C34.225 80.0946 34.0756 80.1194 33.9512 80.1692C33.8267 80.219 33.7272 80.3186 33.6276 80.4679L33.2294 81.9613L32.9805 81.9115L33.5529 79.7461L33.777 79.7959L33.7023 80.1443C33.9014 79.9203 34.1254 79.8457 34.4241 79.9203C34.4988 79.9452 34.5485 79.9701 34.5734 79.995L34.5237 80.1941Z" fill="white"/>
<path d="M35.2663 82.0874L36.3117 80.3699L36.5606 80.4197L35.2912 82.4358L35.0921 82.386L34.7188 80.0215L34.9677 80.0713L35.2663 82.0874Z" fill="white"/>
<path d="M36.8602 82.7344L36.6113 82.6846L36.9847 80.4694L37.2336 80.5191L36.8602 82.7344ZM37.0593 79.8471C37.0593 79.7973 37.0842 79.7724 37.134 79.7475C37.1589 79.7227 37.2087 79.7227 37.2585 79.7227C37.3082 79.7227 37.358 79.7476 37.3829 79.7973C37.4078 79.8222 37.4078 79.872 37.4078 79.9218C37.4078 79.9716 37.3829 79.9965 37.3331 80.0213C37.2834 80.0462 37.2585 80.0462 37.2087 80.0462C37.1589 80.0462 37.1091 80.0213 37.0842 79.9716C37.0593 79.9467 37.0593 79.8969 37.0593 79.8471Z" fill="white"/>
<path d="M38.4528 82.8105C38.6271 82.8354 38.7764 82.8105 38.9008 82.711C39.0253 82.6114 39.1 82.5119 39.1249 82.3625L39.3489 82.3874C39.324 82.5119 39.2742 82.6363 39.1746 82.7359C39.0751 82.8354 38.9755 82.9101 38.8262 82.9599C38.6768 83.0097 38.5524 83.0097 38.403 83.0097C38.1044 82.9848 37.9052 82.8354 37.7559 82.6114C37.6066 82.3874 37.5568 82.1136 37.6066 81.7652V81.6905C37.6314 81.4665 37.7061 81.2922 37.8057 81.118C37.9052 80.9438 38.0297 80.8442 38.179 80.7695C38.3284 80.6949 38.5026 80.67 38.7017 80.6949C38.9506 80.7198 39.1249 80.8193 39.2742 80.9936C39.4235 81.1678 39.4733 81.3669 39.4484 81.5909L39.2244 81.566C39.2244 81.3918 39.1995 81.2425 39.1 81.118C39.0004 80.9936 38.8511 80.9189 38.6768 80.894C38.4528 80.8691 38.2786 80.9189 38.1292 81.0682C37.9799 81.2176 37.9052 81.4416 37.8555 81.7154V81.79C37.8306 82.0638 37.8555 82.3127 37.955 82.487C38.0546 82.6612 38.2288 82.7856 38.4528 82.8105Z" fill="white"/>
<path d="M40.7412 83.2342C40.5421 83.2093 40.3928 83.1595 40.2434 83.06C40.0941 82.9604 39.9945 82.8111 39.9199 82.6368C39.8452 82.4626 39.8203 82.2635 39.8203 82.0644V81.9648C39.8452 81.7408 39.895 81.5666 39.9945 81.3923C40.0941 81.2181 40.2186 81.0937 40.3679 81.019C40.5172 80.9194 40.6915 80.8945 40.8657 80.8945C41.1395 80.9194 41.3386 81.019 41.4879 81.2181C41.6373 81.4172 41.6871 81.6661 41.6622 81.9897V82.139L40.0692 82.0395V82.0893C40.0443 82.3382 40.119 82.5622 40.2434 82.7364C40.3679 82.9106 40.5421 83.0102 40.7661 83.0351C40.8906 83.0351 41.015 83.0351 41.1146 82.9853C41.2142 82.9355 41.3137 82.8857 41.4133 82.7613L41.5626 82.8857C41.3635 83.1595 41.0897 83.2591 40.7412 83.2342ZM40.8408 81.1185C40.6666 81.0937 40.4923 81.1683 40.3679 81.2928C40.2434 81.4172 40.1439 81.5915 40.0941 81.8155L41.4382 81.915V81.8901C41.4382 81.6661 41.3884 81.4919 41.2888 81.3425C41.1644 81.2181 41.015 81.1434 40.8408 81.1185Z" fill="white"/>
<path d="M45.5228 81.9137C45.5228 82.1875 45.4979 82.4364 45.3983 82.6355C45.2988 82.8347 45.1743 83.0089 45.0001 83.1333C44.8258 83.2578 44.6267 83.3076 44.3778 83.3076C44.0294 83.3076 43.7307 83.208 43.5067 82.9591C43.2827 82.7102 43.1582 82.3866 43.1582 81.9386V81.6399C43.1582 81.3661 43.1831 81.1172 43.2827 80.9181C43.3822 80.6941 43.5067 80.5448 43.6809 80.4203C43.8551 80.2959 44.0542 80.2461 44.3031 80.2461C44.5272 80.2461 44.7512 80.2959 44.9254 80.3954C45.0996 80.495 45.249 80.6692 45.3485 80.8683C45.4481 81.0675 45.4979 81.3164 45.5228 81.5653V81.9137ZM45.249 81.5902C45.249 81.2168 45.1494 80.943 44.9752 80.7439C44.8009 80.5448 44.5769 80.4452 44.3031 80.4452C44.0294 80.4452 43.8053 80.5697 43.6311 80.7688C43.4818 80.9679 43.3822 81.2666 43.4071 81.6399V81.9635C43.4071 82.312 43.5067 82.6107 43.6809 82.8098C43.8551 83.0089 44.0791 83.1085 44.3529 83.1085C44.6516 83.1085 44.8756 82.984 45.025 82.7849C45.1743 82.5858 45.249 82.2871 45.249 81.9137V81.5902Z" fill="white"/>
<path d="M47.1137 81.0927C47.064 81.0927 47.0142 81.0927 46.9395 81.0927C46.7902 81.0927 46.6657 81.1673 46.5662 81.242C46.4666 81.3416 46.3919 81.466 46.367 81.6402L46.4915 83.1834L46.2426 83.2083L46.0684 80.9682L46.3173 80.9433L46.3421 81.2918C46.4417 81.018 46.6408 80.8686 46.9395 80.8438C47.0142 80.8438 47.064 80.8438 47.1137 80.8686V81.0927Z" fill="white"/>
<path d="M47.4644 81.9388C47.4146 81.5904 47.4644 81.3166 47.5888 81.0925C47.7133 80.8685 47.9124 80.7441 48.1862 80.7192C48.4849 80.6694 48.7338 80.769 48.9329 80.993L48.908 80.6694L49.132 80.6445L49.4058 82.81C49.4307 83.0838 49.3809 83.3327 49.2565 83.5318C49.1071 83.7309 48.908 83.8305 48.6342 83.8554C48.4849 83.8802 48.3355 83.8554 48.1862 83.8056C48.0369 83.7558 47.9124 83.6811 47.8129 83.5816L47.9373 83.4073C48.1364 83.6065 48.3604 83.6811 48.6093 83.6562C48.8085 83.6313 48.9578 83.5567 49.0574 83.4073C49.1569 83.2829 49.2067 83.0838 49.1818 82.8846L49.1569 82.6108C49.0325 82.8597 48.8085 82.9842 48.5098 83.034C48.2609 83.0589 48.0369 82.9842 47.8626 82.81C47.6884 82.6357 47.5639 82.3619 47.5142 82.0135L47.4644 81.9388ZM47.7382 81.9637C47.7631 82.2375 47.8626 82.4615 47.9871 82.6108C48.1115 82.7602 48.2858 82.81 48.5098 82.7851C48.8085 82.7353 49.0076 82.586 49.1071 82.2873L48.9827 81.2668C48.908 81.1423 48.8085 81.0428 48.684 80.9681C48.5596 80.8934 48.4351 80.8934 48.2858 80.9183C48.0866 80.9432 47.9373 81.0428 47.8377 81.217C47.7382 81.3912 47.6884 81.6401 47.7382 81.9637Z" fill="white"/>
<path d="M51.5454 82.4619C51.4956 82.3872 51.4707 82.2876 51.4458 82.1632C51.3712 82.2876 51.2965 82.3872 51.1721 82.4867C51.0476 82.5863 50.9231 82.6361 50.7738 82.661C50.5747 82.7108 50.3756 82.6859 50.2262 82.5863C50.0769 82.4867 49.9773 82.3623 49.9524 82.1881C49.9027 81.9641 49.9773 81.7898 50.1267 81.6405C50.276 81.4911 50.5249 81.3667 50.8236 81.3169L51.2716 81.2422L51.2218 80.9933C51.1969 80.844 51.1223 80.7196 50.9978 80.6449C50.8734 80.5702 50.724 80.5453 50.5498 80.5951C50.3756 80.62 50.2511 80.6947 50.1516 80.7942C50.052 80.8938 50.0271 81.0182 50.052 81.1427L49.8031 81.1925C49.7782 81.0182 49.828 80.844 49.9524 80.6947C50.1018 80.5453 50.276 80.4458 50.5249 80.396C50.7738 80.3462 50.9729 80.3711 51.1472 80.4707C51.3214 80.5702 51.421 80.7196 51.4707 80.9436L51.6699 81.9889C51.7196 82.213 51.7694 82.3623 51.8192 82.4619V82.4867L51.5454 82.4619ZM50.7489 82.437C50.9231 82.4121 51.0476 82.3374 51.1721 82.2378C51.2965 82.1383 51.3463 82.0138 51.3961 81.8645L51.2965 81.3916L50.8734 81.4663C50.6245 81.516 50.4502 81.5907 50.3258 81.7152C50.2013 81.8396 50.1516 81.9641 50.1764 82.1134C50.2013 82.2378 50.276 82.3374 50.3756 82.3872C50.4751 82.437 50.5996 82.4619 50.7489 82.437Z" fill="white"/>
<path d="M52.1674 80.0212L52.2669 80.3946C52.3167 80.2452 52.3914 80.1208 52.4909 80.0212C52.5905 79.9217 52.715 79.847 52.8643 79.8221C53.0883 79.7723 53.2874 79.7723 53.4368 79.8968C53.5861 79.9963 53.6857 80.1706 53.7603 80.4444L54.1337 81.8631L53.8848 81.9129L53.5114 80.4941C53.4617 80.295 53.387 80.1706 53.2874 80.0959C53.1879 80.0212 53.0385 79.9963 52.8643 80.0461C52.715 80.0959 52.5905 80.1706 52.5158 80.295C52.4163 80.4195 52.3665 80.5688 52.3665 80.743L52.7398 82.2365L52.4909 82.2862L51.9434 80.1208L52.1674 80.0212Z" fill="white"/>
<path d="M53.9876 78.8781C53.9627 78.8284 53.9876 78.8035 53.9876 78.7537C54.0125 78.7039 54.0374 78.679 54.0872 78.679C54.137 78.6541 54.1867 78.679 54.2116 78.679C54.2365 78.679 54.2863 78.7288 54.2863 78.7786C54.3112 78.8284 54.2863 78.8533 54.2863 78.903C54.2614 78.9528 54.2365 78.9777 54.1867 78.9777C54.137 79.0026 54.0872 78.9777 54.0623 78.9777C54.0125 78.9528 53.9876 78.9279 53.9876 78.8781ZM55.0828 81.5663L54.8339 81.6409L54.1867 79.5004L54.4356 79.4257L55.0828 81.5663Z" fill="white"/>
<path d="M55.8995 81.0911L57.2684 80.6182L57.3431 80.8173L55.6754 81.3898L55.6257 81.2156L56.2977 79.0252L55.0532 79.4484L54.9785 79.2493L56.5217 78.7266L56.5715 78.9008L55.8995 81.0911Z" fill="white"/>
<path d="M59.1626 80.0722C59.1128 80.0225 59.063 79.9229 58.9883 79.7984C58.9635 79.9478 58.8888 80.0473 58.7892 80.1718C58.6897 80.2714 58.5652 80.3709 58.4408 80.4207C58.2416 80.4954 58.0674 80.5203 57.8932 80.4456C57.719 80.3958 57.5945 80.2714 57.5447 80.0971C57.4701 79.898 57.4701 79.6989 57.5945 79.5247C57.719 79.3504 57.9181 79.1762 58.2168 79.0517L58.6399 78.8775L58.5403 78.6535C58.4905 78.5042 58.391 78.4046 58.2665 78.3548C58.1421 78.305 57.9927 78.3299 57.8185 78.3797C57.6692 78.4544 57.5447 78.529 57.4701 78.6535C57.3954 78.778 57.3954 78.9024 57.4452 79.002L57.2211 79.1015C57.1465 78.9273 57.1714 78.7531 57.2709 78.5788C57.3705 78.4046 57.5447 78.2553 57.7687 78.1557C57.9927 78.0561 58.2168 78.0312 58.391 78.1059C58.5652 78.1557 58.7146 78.305 58.7892 78.5042L59.1875 79.4749C59.2621 79.674 59.3617 79.8233 59.4364 79.898V79.9229L59.1626 80.0722ZM58.3661 80.1967C58.5154 80.122 58.6399 80.0473 58.7394 79.9229C58.839 79.7984 58.8888 79.674 58.8888 79.5247L58.6897 79.0766L58.2914 79.2509C58.0674 79.3504 57.8932 79.4749 57.8185 79.5993C57.7438 79.7238 57.6941 79.8731 57.7687 80.0225C57.8185 80.1469 57.8932 80.2216 58.0176 80.2465C58.0923 80.2714 58.2416 80.2465 58.3661 80.1967Z" fill="white"/>
<path d="M59.1629 76.9863L59.4118 77.509L59.8349 77.3099L59.9096 77.4841L59.4865 77.6833L60.1087 79.0273C60.1585 79.1518 60.2332 79.2264 60.283 79.2513C60.3327 79.2762 60.4323 79.2762 60.5319 79.2264C60.5816 79.2015 60.6314 79.1767 60.7061 79.1269L60.8057 79.3011C60.7559 79.3509 60.6812 79.4007 60.5816 79.4505C60.4323 79.5251 60.3079 79.5251 60.1834 79.4753C60.0838 79.4256 59.9843 79.3011 59.8847 79.1269L59.2625 77.7828L58.8891 77.957L58.8145 77.7828L59.1878 77.6086L58.9389 77.0859L59.1629 76.9863Z" fill="white"/>
<path d="M59.9819 76.4872C59.957 76.4374 59.957 76.4125 59.957 76.3627C59.957 76.313 60.0068 76.2881 60.0566 76.2632C60.1064 76.2383 60.1562 76.2383 60.181 76.2383C60.2308 76.2632 60.2557 76.2881 60.2806 76.313C60.3055 76.3378 60.3055 76.3876 60.2806 76.4374C60.2557 76.4872 60.2308 76.5121 60.181 76.537C60.1313 76.5619 60.0815 76.5619 60.0566 76.5619C60.0317 76.5619 60.0068 76.537 59.9819 76.4872ZM61.55 78.9513L61.326 79.0758L60.3055 77.0846L60.5295 76.9601L61.55 78.9513Z" fill="white"/>
<path d="M61.5258 77.6576C61.4262 77.4585 61.3516 77.2843 61.3516 77.0851C61.3516 76.886 61.3765 76.7118 61.4511 76.5624C61.5258 76.4131 61.6751 76.2887 61.8245 76.1891C62.0734 76.0398 62.3472 76.0149 62.621 76.1144C62.8947 76.214 63.0939 76.4131 63.2681 76.7118L63.293 76.7616C63.3925 76.9607 63.4672 77.1349 63.4672 77.334C63.4672 77.5332 63.4423 77.7074 63.3677 77.8567C63.293 78.0061 63.1436 78.1305 62.9943 78.2301C62.7454 78.3794 62.4716 78.4043 62.2227 78.3048C61.9489 78.2052 61.7498 78.0061 61.5756 77.7074L61.5258 77.6576ZM61.7747 77.6078C61.8991 77.8318 62.0734 78.0061 62.2725 78.0807C62.4716 78.1554 62.6707 78.1554 62.8699 78.031C63.069 77.9314 63.1685 77.7572 63.2183 77.5332C63.2681 77.3091 63.1934 77.0851 63.069 76.8362L63.0441 76.7865C62.9694 76.6371 62.845 76.5127 62.7205 76.4131C62.5961 76.3135 62.4716 76.2638 62.3223 76.2638C62.1729 76.2638 62.0485 76.2887 61.924 76.3633C61.7249 76.4629 61.6254 76.6371 61.5756 76.8611C61.5507 77.0851 61.6005 77.3092 61.7249 77.5581L61.7747 77.6078Z" fill="white"/>
<path d="M63.3422 75.3435L63.5662 75.6671C63.5662 75.5177 63.5911 75.3684 63.6658 75.2191C63.7404 75.0946 63.84 74.995 63.9645 74.8955C64.1636 74.771 64.3627 74.7212 64.512 74.771C64.6863 74.8208 64.8356 74.9702 64.9849 75.1942L65.7814 76.4387L65.5823 76.5631L64.7858 75.3186C64.6863 75.1444 64.5618 75.0448 64.4374 75.0199C64.3129 74.995 64.1636 75.0199 64.0142 75.1195C63.8898 75.1942 63.7902 75.3186 63.7404 75.468C63.6907 75.6173 63.6907 75.7666 63.7404 75.9409L64.5867 77.2351L64.3876 77.3596L63.168 75.4928L63.3422 75.3435Z" fill="white"/>
<path d="M67.1519 74.7458C67.0772 74.6463 66.9777 74.5965 66.8532 74.5965C66.7288 74.5965 66.5794 74.6463 66.3803 74.7209C66.1812 74.7956 66.0319 74.8454 65.9323 74.8703C65.8078 74.8952 65.7083 74.8952 65.6087 74.8454C65.5092 74.8205 65.4345 74.7458 65.3847 74.6711C65.2852 74.5218 65.2603 74.3725 65.31 74.1982C65.3598 74.024 65.4843 73.8498 65.6585 73.7253C65.8576 73.576 66.0568 73.5013 66.2559 73.5262C66.455 73.5262 66.6043 73.6258 66.7288 73.7751L66.5297 73.9244C66.455 73.8249 66.3554 73.7751 66.2061 73.7502C66.0567 73.7502 65.9323 73.8 65.783 73.8996C65.6585 73.9991 65.5589 74.0987 65.5341 74.2231C65.5092 74.3476 65.5092 74.4471 65.5838 74.5467C65.6585 74.6463 65.7332 74.6711 65.8327 74.6711C65.9323 74.6711 66.0816 74.6214 66.3056 74.5467C66.5048 74.4471 66.679 74.3974 66.8035 74.3974C66.9279 74.3725 67.0275 74.3974 67.127 74.4222C67.2266 74.4471 67.3013 74.5218 67.3759 74.6214C67.4755 74.7707 67.5253 74.9449 67.4506 75.1192C67.3759 75.2934 67.2764 75.4676 67.0772 75.617C66.8781 75.7663 66.6541 75.841 66.455 75.841C66.2559 75.841 66.0816 75.7663 65.9821 75.5921L66.1812 75.4427C66.2808 75.5423 66.3803 75.617 66.5297 75.617C66.679 75.617 66.8035 75.5672 66.9528 75.4427C67.1021 75.3432 67.1768 75.2187 67.2266 75.0943C67.2266 74.9698 67.2266 74.8454 67.1519 74.7458Z" fill="white"/>
<path d="M70.4123 73.5265L70.263 73.6759L67.8984 71.0126L68.0478 70.8633L70.4123 73.5265Z" fill="white"/>
<path d="M72.6272 69.4188C72.5277 69.3193 72.4281 69.2944 72.3037 69.3193C72.1792 69.3442 72.0299 69.4188 71.8059 69.5433C71.5818 69.6677 71.4076 69.7673 71.2334 69.8171C70.9098 69.8917 70.6609 69.842 70.4618 69.6677C70.2876 69.4935 70.2129 69.2944 70.2129 69.0455C70.2378 68.7966 70.3373 68.5477 70.5614 68.3237C70.7107 68.1743 70.86 68.0499 71.0343 68.0001C71.2085 67.9503 71.3827 67.9005 71.5321 67.9503C71.7063 67.9752 71.8556 68.0499 71.9801 68.1743L71.6316 68.5477C71.5072 68.4481 71.3827 68.3983 71.2583 68.3983C71.1338 68.4232 71.0094 68.473 70.8849 68.6223C70.7605 68.7468 70.7107 68.8712 70.6858 68.9957C70.6858 69.1201 70.7107 69.2197 70.8103 69.3193C70.8849 69.3939 70.9845 69.4188 71.1089 69.3939C71.2334 69.369 71.4076 69.2944 71.6067 69.1699C71.8059 69.0455 72.005 68.9708 72.1543 68.921C72.3037 68.8712 72.453 68.8712 72.6023 68.8961C72.7517 68.921 72.8512 68.9957 72.9757 69.0953C73.1499 69.2695 73.2495 69.4686 73.2246 69.7175C73.1997 69.9664 73.0753 70.1904 72.8512 70.4393C72.7019 70.5887 72.5277 70.7131 72.3534 70.7878C72.1792 70.8624 71.9801 70.8873 71.8307 70.8873C71.6565 70.8624 71.5072 70.7878 71.3578 70.6633L71.7063 70.29C71.8307 70.4144 71.9801 70.4642 72.1045 70.4393C72.2539 70.4144 72.4032 70.3398 72.5277 70.1655C72.6521 70.0411 72.7268 69.9166 72.7268 69.7922C72.7517 69.5931 72.7019 69.4935 72.6272 69.4188Z" fill="white"/>
<path d="M74.545 68.3995C74.3459 68.6484 74.097 68.7729 73.8232 68.8226C73.5494 68.8475 73.2756 68.748 73.0018 68.5488L72.952 68.4991C72.7778 68.3497 72.6534 68.2004 72.5787 68.0262C72.504 67.8519 72.4542 67.6777 72.4791 67.4786C72.504 67.3043 72.5787 67.1301 72.7031 66.9808C72.9023 66.7319 73.1263 66.6323 73.3752 66.6074C73.6241 66.6074 73.8979 66.707 74.1717 66.931L74.321 67.0554L73.4001 68.2004C73.5494 68.2999 73.6987 68.3497 73.8481 68.3248C73.9974 68.2999 74.1219 68.2253 74.2214 68.1008C74.3708 67.9266 74.4206 67.7275 74.3459 67.4786L74.7192 67.4288C74.769 67.5781 74.769 67.7524 74.7441 67.9017C74.7192 68.051 74.6695 68.2751 74.545 68.3995ZM73.0018 67.2546C72.9271 67.3541 72.8774 67.4786 72.9023 67.603C72.9271 67.7275 73.0018 67.8519 73.1014 67.9764L73.6987 67.2297L73.6739 67.2048C73.5245 67.1052 73.4001 67.0554 73.3005 67.0803C73.2009 67.0803 73.1014 67.1301 73.0018 67.2546Z" fill="white"/>
<path d="M74.6196 65.287C74.5698 65.3367 74.52 65.3865 74.4951 65.4363C74.3707 65.6105 74.3458 65.8097 74.4454 65.959L75.6899 66.855L75.3912 67.2533L73.5742 65.9341L73.848 65.5359L74.0471 65.6852C73.9725 65.4612 73.9725 65.287 74.0969 65.1127C74.1467 65.063 74.1716 65.0132 74.2214 64.9883L74.6196 65.287Z" fill="white"/>
<path d="M76.212 64.9621L75.1417 63.6927L75.4155 63.2695L76.8591 65.1363L76.6102 65.5096L74.3203 64.9372L74.619 64.514L76.212 64.9621Z" fill="white"/>
<path d="M75.0678 62.6966C74.9931 62.6468 74.9682 62.597 74.9434 62.5223C74.9185 62.4477 74.9434 62.373 74.9931 62.2983C75.0429 62.2237 75.0927 62.1739 75.1674 62.149C75.242 62.1241 75.3167 62.149 75.3665 62.1739C75.4412 62.2237 75.466 62.2734 75.4909 62.3232C75.5158 62.3979 75.4909 62.4726 75.4412 62.5472C75.3914 62.6219 75.3416 62.6717 75.2669 62.6966C75.1923 62.7463 75.1176 62.7463 75.0678 62.6966ZM77.7559 63.6922L77.507 64.1153L75.5905 62.9704L75.8394 62.5472L77.7559 63.6922Z" fill="white"/>
<path d="M78.2034 62.1755C78.2532 62.076 78.2781 61.9515 78.2532 61.852C78.2283 61.7524 78.1785 61.6529 78.0789 61.6031L78.3029 61.1799C78.4274 61.2546 78.527 61.3542 78.5767 61.4786C78.6265 61.6031 78.6763 61.7524 78.6763 61.9018C78.6763 62.0511 78.6265 62.2004 78.5518 62.3498C78.4025 62.6236 78.2034 62.7978 77.9296 62.8476C77.6558 62.9222 77.382 62.8476 77.0584 62.6982L77.0087 62.6733C76.71 62.4991 76.5109 62.3 76.4113 62.0511C76.3117 61.8022 76.3366 61.5284 76.486 61.2546C76.6104 61.0306 76.7846 60.8564 77.0087 60.7817C77.2327 60.707 77.4567 60.7319 77.6807 60.8315L77.4567 61.2546C77.3322 61.2048 77.2327 61.1799 77.1082 61.2297C76.9838 61.2546 76.9091 61.3293 76.8593 61.4537C76.7846 61.6031 76.7847 61.7275 76.8344 61.8769C76.8842 62.0013 77.0335 62.1258 77.2327 62.2502L77.3073 62.3C77.5314 62.4244 77.7056 62.4742 77.8549 62.4493C78.0043 62.3996 78.1287 62.3249 78.2034 62.1755Z" fill="white"/>
<path d="M79.6246 60.2084C79.5001 60.5071 79.301 60.6813 79.0272 60.7809C78.7534 60.8804 78.4796 60.8555 78.181 60.7062L78.1312 60.6813C77.9321 60.5817 77.7578 60.4573 77.6334 60.308C77.5089 60.1586 77.4343 59.9844 77.4094 59.8102C77.3845 59.6359 77.4094 59.4617 77.5089 59.2875C77.6334 59.0137 77.8325 58.8394 78.0814 58.7648C78.3303 58.6901 78.6041 58.7399 78.9277 58.8892L79.1019 58.9639L78.4796 60.2831C78.6539 60.3577 78.8032 60.3577 78.9526 60.308C79.1019 60.2582 79.2015 60.1586 79.2761 60.0093C79.3757 59.8102 79.3757 59.5861 79.2512 59.387L79.5997 59.2626C79.6744 59.4119 79.7241 59.5613 79.7241 59.7106C79.749 59.8848 79.7241 60.0591 79.6246 60.2084ZM77.8823 59.4617C77.8325 59.5861 77.8325 59.7106 77.8823 59.835C77.9321 59.9595 78.0316 60.0591 78.181 60.1586L78.5792 59.2875L78.5543 59.2626C78.405 59.2128 78.2556 59.1879 78.1561 59.2128C78.0067 59.2626 77.9321 59.3372 77.8823 59.4617Z" fill="white"/>
<path d="M80.0698 55.083C80.3436 55.1826 80.5676 55.3071 80.7419 55.4813C80.9161 55.6555 81.0405 55.8546 81.0903 56.0538C81.1401 56.2778 81.1152 56.5018 81.0406 56.7258C80.9659 56.9498 80.8414 57.1489 80.6423 57.2734C80.4432 57.3978 80.269 57.4974 80.0201 57.5223C79.7712 57.5472 79.5223 57.5223 79.2485 57.4227L79.0991 57.3729C78.8253 57.2734 78.6013 57.1489 78.4271 56.9747C78.2529 56.8005 78.1284 56.6013 78.0786 56.3773C78.0289 56.1533 78.0537 55.9293 78.1284 55.7053C78.2031 55.4813 78.3275 55.2822 78.5018 55.1577C78.676 55.0084 78.8751 54.9337 79.124 54.9088C79.3729 54.8839 79.6218 54.9337 79.8956 55.0084L80.0698 55.083ZM79.7463 55.5311C79.4227 55.4315 79.1738 55.3817 78.9498 55.4564C78.7507 55.5062 78.6013 55.6555 78.5267 55.8795C78.452 56.1035 78.4769 56.2778 78.6013 56.4769C78.7258 56.6511 78.9498 56.8005 79.2485 56.9L79.4227 56.9498C79.7463 57.0494 79.9952 57.0743 80.2192 57.0245C80.4432 56.9747 80.5676 56.8254 80.6423 56.6013C80.717 56.3773 80.6921 56.1782 80.5676 56.004C80.4432 55.8298 80.2192 55.6804 79.8956 55.5809L79.7463 55.5311Z" fill="white"/>
<path d="M80.1954 53.3891C80.1705 53.4389 80.1456 53.5135 80.1207 53.5882C80.0461 53.8122 80.0959 53.9864 80.2452 54.1109L81.7137 54.534L81.5644 55.0069L79.4238 54.3847L79.5483 53.9118L79.7972 53.9615C79.6478 53.7873 79.5981 53.6131 79.6478 53.3891C79.6727 53.3144 79.6976 53.2646 79.7225 53.2148L80.1954 53.3891Z" fill="white"/>
<path d="M80.8925 53.3393C80.5441 53.2646 80.2952 53.1153 80.1458 52.9161C79.9716 52.717 79.9218 52.4681 79.9965 52.2192C80.0463 51.9703 80.1956 51.7961 80.3947 51.6965L80.1707 51.6218L80.2703 51.1738L82.3859 51.6716C82.6597 51.7463 82.8837 51.8707 83.0082 52.0948C83.1326 52.3188 83.1575 52.5677 83.0829 52.8664C83.0331 53.0157 82.9833 53.165 82.8837 53.3144C82.7842 53.4637 82.6597 53.5384 82.5353 53.5882L82.2864 53.2895C82.5104 53.1899 82.6348 53.0157 82.6846 52.7917C82.7344 52.6175 82.7095 52.493 82.6348 52.3685C82.5602 52.2441 82.4606 52.1694 82.2864 52.1445L82.137 52.1196C82.2615 52.2939 82.2864 52.493 82.2366 52.7419C82.1868 52.9908 82.0375 53.1899 81.7886 53.2895C81.5397 53.4139 81.241 53.4388 80.8925 53.3393ZM81.0419 52.8664C81.2659 52.9161 81.4401 52.9161 81.5895 52.8664C81.7388 52.8166 81.8384 52.6921 81.8632 52.5428C81.913 52.3437 81.8632 52.1694 81.7139 52.045L80.7432 51.821C80.5441 51.8707 80.4445 51.9952 80.3947 52.1943C80.345 52.3437 80.3947 52.493 80.4943 52.6174C80.6187 52.717 80.793 52.8166 81.0419 52.8664Z" fill="white"/>
<path d="M82.7818 49.7549C82.732 49.7798 82.6574 49.7798 82.5578 49.7798C82.7071 49.954 82.7569 50.1781 82.7071 50.4021C82.6573 50.6261 82.5827 50.8003 82.4333 50.8999C82.284 51.0243 82.1098 51.0492 81.9355 51.0243C81.7115 50.9745 81.5373 50.875 81.4377 50.6759C81.3382 50.4767 81.3133 50.2278 81.388 49.9043L81.4377 49.6056L81.2884 49.5807C81.1639 49.5558 81.0893 49.5807 80.9897 49.6305C80.915 49.6803 80.8653 49.7798 80.8404 49.9043C80.8155 50.0287 80.8404 50.1034 80.8653 50.2029C80.915 50.2776 80.9648 50.3274 81.0644 50.3523L80.9897 50.8501C80.8653 50.8252 80.7657 50.7754 80.6661 50.6759C80.5666 50.5763 80.5168 50.4519 80.467 50.3025C80.4172 50.1532 80.4172 50.0038 80.467 49.8296C80.5168 49.5807 80.6164 49.3816 80.7657 49.2571C80.915 49.1327 81.1142 49.0829 81.3631 49.1078L82.3587 49.282C82.5578 49.3069 82.732 49.3069 82.8565 49.282H82.8814L82.7818 49.7549ZM82.3338 50.2278C82.3587 50.1283 82.3338 50.0287 82.3089 49.9292C82.284 49.8296 82.2342 49.7549 82.1596 49.7051L81.7364 49.6305L81.6866 49.9043C81.6618 50.0785 81.6617 50.2278 81.7115 50.3274C81.7613 50.427 81.836 50.5016 81.9604 50.5016C82.06 50.5265 82.1347 50.5016 82.2093 50.4518C82.284 50.427 82.3089 50.3274 82.3338 50.2278Z" fill="white"/>
<path d="M80.769 47.9878L81.0179 48.0127C80.8437 47.8384 80.769 47.5895 80.7939 47.3406C80.8437 46.8677 81.1424 46.6686 81.6651 46.7184L83.1336 46.8677L83.0838 47.3655L81.6402 47.2162C81.4908 47.1913 81.3913 47.2162 81.3166 47.266C81.2419 47.3157 81.1922 47.4153 81.1922 47.5646C81.1673 47.7638 81.2419 47.938 81.4162 48.0376L83.0091 48.2118L82.9594 48.7096L80.7441 48.4607L80.769 47.9878Z" fill="white"/>
<path d="M80.3675 46.0725C80.2929 46.0725 80.2182 46.0476 80.1684 45.9978C80.1186 45.948 80.0938 45.8733 80.0938 45.7738C80.0938 45.6742 80.1186 45.6245 80.1933 45.5747C80.2431 45.5249 80.3178 45.5 80.3924 45.5C80.4671 45.5 80.5418 45.5249 80.5667 45.5747C80.5916 45.6245 80.6413 45.6991 80.6164 45.7987C80.6164 45.8982 80.5916 45.948 80.5169 45.9978C80.5169 46.0725 80.4422 46.0725 80.3675 46.0725ZM83.205 45.724L83.1801 46.2218L80.94 46.0725L80.9649 45.5747L83.205 45.724Z" fill="white"/>
<path d="M82.8594 44.5521L82.8843 43.3574H83.2826L83.2328 45.1744H82.9092L81.4407 44.0046L81.4158 45.1246H81.0176L81.0425 43.3823H81.366L82.8594 44.5521Z" fill="white"/>
<path d="M83.2284 41.5427C83.1786 41.5676 83.1288 41.5925 83.0293 41.6174C83.2035 41.7667 83.3031 41.9659 83.3031 42.1899C83.3031 42.4139 83.2533 42.5881 83.1288 42.7374C83.0044 42.8868 82.855 42.9615 82.6559 42.9615C82.407 42.9615 82.2328 42.8868 82.1083 42.7126C81.9839 42.5383 81.9092 42.2894 81.8843 41.9659V41.6672H81.735C81.6105 41.6672 81.5359 41.717 81.4612 41.7667C81.3865 41.8414 81.3616 41.941 81.3616 42.0654C81.3616 42.1899 81.3865 42.2645 81.4612 42.3392C81.5359 42.4139 81.5856 42.4388 81.6852 42.4388L81.7101 42.9366C81.5856 42.9366 81.4612 42.9117 81.3616 42.837C81.2621 42.7623 81.1625 42.6628 81.0878 42.5134C81.0132 42.3641 80.9883 42.2148 80.9883 42.0405C80.9883 41.7667 81.0381 41.5676 81.1625 41.4183C81.287 41.2689 81.4612 41.1694 81.7101 41.1694L82.7306 41.1445C82.9297 41.1445 83.079 41.0947 83.2035 41.0449H83.2284V41.5427ZM82.9048 42.0903C82.9048 41.9907 82.8799 41.8912 82.8301 41.8165C82.7804 41.7418 82.7057 41.6672 82.631 41.6174L82.2079 41.6423V41.9161C82.2079 42.0903 82.2577 42.2396 82.3323 42.3392C82.407 42.4388 82.4817 42.4637 82.6061 42.4637C82.7057 42.4637 82.7804 42.4139 82.8301 42.3641C82.8799 42.3143 82.9048 42.2148 82.9048 42.0903Z" fill="white"/>
<path d="M80.3418 40.0988L80.8894 40.049L80.8645 39.6508L81.2378 39.6259L81.2627 40.0241L82.5072 39.9246C82.5819 39.9246 82.6566 39.8997 82.6815 39.8499C82.7064 39.825 82.7312 39.7504 82.7312 39.6757C82.7312 39.6259 82.7064 39.5512 82.7064 39.5015L83.1046 39.4766C83.1544 39.5761 83.1793 39.7006 83.1793 39.8001C83.2042 40.1735 83.005 40.3975 82.5819 40.4224L81.3125 40.5219L81.3374 40.8953L80.964 40.9202L80.9392 40.5468L80.3916 40.5966L80.3418 40.0988Z" fill="white"/>
<path d="M80.244 39.3502C80.1693 39.3502 80.0947 39.3502 80.0449 39.3004C79.9951 39.2506 79.9453 39.2008 79.9453 39.1013C79.9453 39.0017 79.9453 38.927 79.9951 38.8773C80.0449 38.8275 80.0947 38.7777 80.1693 38.7777C80.244 38.7777 80.3187 38.7777 80.3684 38.8275C80.4182 38.8773 80.468 38.927 80.468 39.0266C80.468 39.1262 80.468 39.2008 80.4182 39.2506C80.3684 39.3004 80.3187 39.3502 80.244 39.3502ZM82.9819 38.5039L83.0317 39.0017L80.8165 39.2506L80.7667 38.7528L82.9819 38.5039Z" fill="white"/>
<path d="M81.7896 38.1311C81.5656 38.1559 81.3665 38.1559 81.1923 38.1062C81.0181 38.0564 80.8438 37.9568 80.7443 37.8075C80.6198 37.6581 80.5451 37.5088 80.5202 37.2848C80.4705 36.9861 80.5203 36.7372 80.6945 36.5132C80.8687 36.2892 81.0927 36.1647 81.4163 36.0901L81.5407 36.0652C81.7648 36.0403 81.9639 36.0403 82.1381 36.0901C82.3123 36.1398 82.4866 36.2394 82.5861 36.3887C82.7106 36.5381 82.7852 36.7123 82.8101 36.9114C82.8599 37.235 82.8101 37.4839 82.611 37.7079C82.4368 37.9319 82.163 38.0813 81.7896 38.1311ZM81.7648 37.6333C81.9888 37.6084 82.163 37.5088 82.2874 37.4092C82.4119 37.2848 82.4368 37.1603 82.4119 36.9861C82.387 36.8119 82.2874 36.6874 82.163 36.6376C82.0137 36.563 81.8145 36.563 81.5656 36.5879C81.3416 36.6128 81.1674 36.7123 81.0678 36.8119C80.9434 36.9363 80.9185 37.0608 80.9434 37.235C80.9683 37.4092 81.0678 37.5088 81.1923 37.5835C81.2918 37.6581 81.491 37.683 81.7648 37.6333Z" fill="white"/>
<path d="M80.1946 35.42L80.4435 35.3453C80.2195 35.2209 80.0701 35.0466 79.9955 34.7728C79.8959 34.3248 80.095 34.0261 80.6177 33.9017L82.0614 33.5781L82.1858 34.0759L80.7671 34.3995C80.6177 34.4244 80.5431 34.4742 80.4684 34.5488C80.3937 34.6235 80.3937 34.7231 80.4435 34.8724C80.4933 35.0715 80.6177 35.196 80.8169 35.2458L82.36 34.8973L82.4845 35.3951L80.2942 35.8929L80.1946 35.42Z" fill="white"/>
<path d="M80.9674 31.9345C80.8927 31.9593 80.818 32.0091 80.7932 32.1087C80.7683 32.1834 80.7683 32.3327 80.7683 32.5069C80.7931 32.6812 80.7683 32.8305 80.7683 32.9549C80.7185 33.2287 80.594 33.403 80.37 33.4527C80.1958 33.5025 79.9967 33.4776 79.8473 33.3532C79.6731 33.2287 79.5486 33.0545 79.474 32.8056C79.3993 32.5567 79.3993 32.3327 79.474 32.1336C79.5486 31.9345 79.698 31.81 79.8971 31.7602L80.0464 32.2331C79.9469 32.258 79.8971 32.3078 79.8473 32.4074C79.7975 32.5069 79.7975 32.6065 79.8473 32.706C79.8722 32.8056 79.922 32.8803 79.9967 32.9549C80.0713 33.0047 80.146 33.0296 80.2207 33.0047C80.2953 32.9798 80.3451 32.9301 80.37 32.8554C80.3949 32.7807 80.3949 32.6314 80.3949 32.4323C80.37 32.2331 80.3949 32.0589 80.4198 31.9345C80.4447 31.81 80.4945 31.7104 80.5442 31.6358C80.6189 31.5611 80.6936 31.5113 80.818 31.4615C81.0172 31.4118 81.1914 31.4366 81.3656 31.5611C81.5398 31.6855 81.6643 31.8847 81.739 32.1336C81.7888 32.3078 81.8136 32.482 81.7888 32.6314C81.7639 32.7807 81.7141 32.9301 81.6145 33.0296C81.515 33.1292 81.4154 33.2038 81.291 33.2536L81.1416 32.7807C81.2412 32.7309 81.3407 32.6812 81.3656 32.5816C81.3905 32.482 81.4154 32.3576 81.3656 32.2331C81.3407 32.1087 81.2661 32.0091 81.2163 31.9593C81.1167 31.9344 81.042 31.9096 80.9674 31.9345Z" fill="white"/>
<path d="M27.7528 33.8729H21.6298L20.236 37.6562H19.0413L24.1437 24.1658H25.2389L30.3414 37.6562H29.1466L27.7528 33.8729ZM21.9783 32.9022H27.4043L24.6913 25.5596L21.9783 32.9022Z" fill="white"/>
<path d="M33.53 37.6562H32.385V24.1658H33.53V37.6562Z" fill="white"/>
<path d="M46.5441 33.4507C46.3948 34.8694 45.8721 35.9646 45.0258 36.7113C44.1796 37.458 43.0097 37.8313 41.591 37.8313C40.5954 37.8313 39.6993 37.5824 38.9278 37.0846C38.1562 36.5868 37.5588 35.865 37.1357 34.969C36.7125 34.048 36.5134 33.0027 36.4885 31.8328V30.0905C36.4885 28.8958 36.6876 27.8255 37.1108 26.9046C37.5339 25.9837 38.1313 25.2618 38.9278 24.764C39.7242 24.2662 40.6203 24.0173 41.6408 24.0173C43.0844 24.0173 44.2293 24.4156 45.0756 25.1872C45.9219 25.9588 46.3948 27.0539 46.5441 28.4229H45.3992C45.1254 26.133 43.8809 24.988 41.6657 24.988C40.446 24.988 39.4753 25.4361 38.7286 26.357C38.0068 27.2779 37.6335 28.5473 37.6335 30.1403V31.783C37.6335 33.3511 37.9819 34.5956 38.7037 35.5166C39.4007 36.4375 40.3714 36.9104 41.5661 36.9104C42.7608 36.9104 43.6569 36.6366 44.2542 36.0641C44.8516 35.4917 45.2249 34.6454 45.3743 33.5005H46.5441V33.4507Z" fill="white"/>
<path d="M50.276 32.1555V37.6562H49.1311V24.1658H53.7358C55.1296 24.1658 56.2497 24.5142 57.071 25.236C57.8924 25.9579 58.2907 26.9286 58.2907 28.198C58.2907 29.4674 57.8924 30.4381 57.1208 31.135C56.3492 31.8319 55.2043 32.1804 53.7358 32.1804H50.276V32.1555ZM50.276 31.2097H53.7358C54.8309 31.2097 55.6772 30.9359 56.2746 30.4132C56.847 29.8905 57.1457 29.1438 57.1457 28.2229C57.1457 27.277 56.847 26.5552 56.2746 25.9827C55.7021 25.4352 54.8807 25.1365 53.8104 25.1365H50.276V31.2097Z" fill="white"/>
<path d="M66.6571 33.8729H60.5341L59.1403 37.6562H57.9456L63.048 24.1658H64.1432L69.2457 37.6562H68.0509L66.6571 33.8729ZM60.8826 32.9022H66.3086L63.5956 25.5596L60.8826 32.9022Z" fill="white"/>
<path d="M35.4692 56.2754C35.4692 55.5287 35.1954 54.9313 34.6727 54.5082C34.15 54.0602 33.1793 53.6619 31.7855 53.2637C30.3916 52.8655 29.3711 52.4423 28.724 51.9694C27.803 51.3223 27.355 50.4511 27.355 49.3809C27.355 48.3604 27.7781 47.5141 28.6244 46.867C29.4707 46.2198 30.5658 45.8962 31.885 45.8962C32.7811 45.8962 33.5775 46.0705 34.2994 46.4189C34.9963 46.7674 35.5439 47.2403 35.9421 47.8626C36.3403 48.4848 36.5146 49.1817 36.5146 49.9284H35.3696C35.3696 49.0075 35.0461 48.2608 34.4238 47.7132C33.8015 47.1656 32.9553 46.867 31.885 46.867C30.8645 46.867 30.0431 47.091 29.4209 47.5639C28.7986 48.0368 28.5 48.6341 28.5 49.3809C28.5 50.0778 28.7738 50.6254 29.3213 51.0734C29.8689 51.4965 30.7401 51.8948 31.9597 52.2183C33.1793 52.5419 34.1002 52.8904 34.7225 53.2388C35.3447 53.5873 35.8176 54.0104 36.1412 54.5082C36.4648 55.006 36.6141 55.5785 36.6141 56.2505C36.6141 57.3208 36.191 58.1671 35.3447 58.8142C34.4985 59.4613 33.3784 59.7849 31.9846 59.7849C31.0387 59.7849 30.1676 59.6107 29.3711 59.2871C28.5746 58.9386 27.9773 58.4657 27.5541 57.8684C27.131 57.2461 26.9319 56.5492 26.9319 55.7527H28.0768C28.0768 56.6985 28.4253 57.4452 29.1471 58.0177C29.8689 58.5653 30.8147 58.8391 31.9846 58.8391C33.03 58.8391 33.8762 58.6151 34.5234 58.1422C35.1456 57.6444 35.4692 57.0221 35.4692 56.2754Z" fill="white"/>
<path d="M48.8613 53.5624C48.8613 54.8069 48.6373 55.9021 48.2141 56.823C47.791 57.7688 47.1688 58.4906 46.3723 58.9884C45.5758 59.4862 44.6549 59.76 43.6095 59.76C42.0414 59.76 40.772 59.1875 39.8013 58.0675C38.8306 56.9474 38.3577 55.4291 38.3577 53.5126V52.1188C38.3577 50.8991 38.5817 49.804 39.0048 48.8582C39.4528 47.9123 40.0502 47.1905 40.8467 46.6678C41.6432 46.17 42.5641 45.8962 43.6095 45.8962C44.6549 45.8962 45.5758 46.1451 46.3474 46.6429C47.1439 47.1407 47.7661 47.8626 48.1892 48.7586C48.6124 49.6795 48.8364 50.7249 48.8613 51.9445V53.5624ZM47.7163 52.0939C47.7163 50.476 47.343 49.2066 46.6212 48.2857C45.8745 47.3648 44.8789 46.9167 43.6095 46.9167C42.365 46.9167 41.3445 47.3896 40.6227 48.3106C39.876 49.2315 39.5026 50.5258 39.5026 52.1934V53.6122C39.5026 55.2051 39.876 56.4745 40.6227 57.4203C41.3694 58.3662 42.365 58.8142 43.6344 58.8142C44.9286 58.8142 45.9242 58.3413 46.6461 57.4203C47.3679 56.4994 47.7412 55.2051 47.7412 53.5624V52.0939H47.7163Z" fill="white"/>
<path d="M61.0812 55.3784C60.9319 56.7971 60.4092 57.8923 59.5629 58.639C58.7167 59.3857 57.5468 59.7591 56.1281 59.7591C55.1325 59.7591 54.2365 59.5102 53.4649 59.0124C52.6933 58.5146 52.0959 57.7927 51.6728 56.8967C51.2496 55.9758 51.0505 54.9304 51.0256 53.7606V52.0182C51.0256 50.8235 51.2248 49.7532 51.6479 48.8323C52.071 47.9114 52.6684 47.1896 53.4649 46.6918C54.2613 46.194 55.1574 45.9451 56.1779 45.9451C57.6215 45.9451 58.7664 46.3433 59.6127 47.1149C60.459 47.8865 60.9319 48.9817 61.0812 50.3506H59.9363C59.6625 48.0607 58.418 46.9158 56.2028 46.9158C54.9832 46.9158 54.0124 47.3638 53.2657 48.2847C52.5439 49.2057 52.1706 50.4751 52.1706 52.068V53.7108C52.1706 55.2788 52.519 56.5234 53.2409 57.4443C53.9378 58.3652 54.9085 58.8381 56.1032 58.8381C57.2979 58.8381 58.194 58.5643 58.7913 57.9919C59.3887 57.4194 59.7621 56.5731 59.9114 55.4282H61.0812V55.3784Z" fill="white"/>
<path d="M70.0686 42.1627H18.6208C18.5461 42.1627 18.4963 42.1129 18.4963 42.0383C18.4963 41.9636 18.5461 41.9138 18.6208 41.9138H70.0686C70.1433 41.9138 70.193 41.9636 70.193 42.0383C70.193 42.1129 70.1433 42.1627 70.0686 42.1627Z" fill="white"/>
<path d="M27.0812 67.3999C27.0563 67.3502 27.0314 67.2506 27.0065 67.1262C26.8074 67.3502 26.5585 67.4497 26.2598 67.4497C26.0109 67.4497 25.7869 67.3751 25.6376 67.2257C25.4633 67.0764 25.3887 66.9021 25.3887 66.6781C25.3887 66.4043 25.4882 66.2052 25.6874 66.0559C25.8865 65.9065 26.1852 65.8319 26.5585 65.8319H26.9816V65.6327C26.9816 65.4834 26.9319 65.359 26.8323 65.2594C26.7327 65.1598 26.6083 65.1101 26.4092 65.1101C26.2598 65.1101 26.1105 65.1598 26.0109 65.2345C25.9114 65.3092 25.8616 65.4087 25.8616 65.5332H25.4136C25.4136 65.4087 25.4633 65.2843 25.5629 65.1598C25.6625 65.0354 25.7869 64.9358 25.9363 64.8612C26.0856 64.7865 26.2598 64.7616 26.4589 64.7616C26.7576 64.7616 26.9816 64.8363 27.1559 64.9856C27.3301 65.1349 27.4048 65.3341 27.4297 65.6079V66.8026C27.4297 67.0515 27.4545 67.2257 27.5292 67.3751V67.4248H27.0812V67.3999ZM26.3345 67.0515C26.4838 67.0515 26.6083 67.0266 26.7327 66.9519C26.8572 66.8773 26.9567 66.7777 27.0065 66.6781V66.1554H26.6581C26.1105 66.1554 25.8367 66.3048 25.8367 66.6284C25.8367 66.7777 25.8865 66.8773 25.986 66.9519C26.0607 67.0266 26.1852 67.0515 26.3345 67.0515Z" fill="white"/>
<path d="M28.0293 64.1161C28.0293 64.0414 28.0542 63.9916 28.104 63.9419C28.1537 63.8921 28.2035 63.8672 28.3031 63.8672C28.3778 63.8672 28.4524 63.8921 28.5022 63.9419C28.552 63.9916 28.5769 64.0414 28.5769 64.1161C28.5769 64.1908 28.552 64.2405 28.5022 64.2903C28.4524 64.3401 28.4026 64.365 28.3031 64.365C28.2284 64.365 28.1537 64.3401 28.104 64.2903C28.0542 64.2405 28.0293 64.1908 28.0293 64.1161ZM28.5022 67.4016H28.0542V64.7881H28.5022V67.4016Z" fill="white"/>
<path d="M30.143 67.0765C30.2923 67.0765 30.4417 67.0267 30.5661 66.9272C30.6906 66.8276 30.7404 66.7031 30.7652 66.5787H31.1884C31.1884 66.728 31.1386 66.8774 31.039 67.0018C30.9395 67.1263 30.815 67.2507 30.6657 67.3254C30.5163 67.4001 30.3421 67.4498 30.1679 67.4498C29.8194 67.4498 29.5207 67.3254 29.3216 67.1014C29.1225 66.8525 28.998 66.5289 28.998 66.1307V66.056C28.998 65.8071 29.0478 65.5831 29.1474 65.384C29.2469 65.1849 29.3714 65.0355 29.5456 64.9359C29.7199 64.8364 29.919 64.7617 30.1679 64.7617C30.4666 64.7617 30.6906 64.8613 30.8897 65.0355C31.0888 65.2097 31.1884 65.4337 31.1884 65.7075H30.7652C30.7404 65.5333 30.6906 65.4089 30.5661 65.2844C30.4417 65.1848 30.3172 65.1102 30.143 65.1102C29.919 65.1102 29.7447 65.1848 29.6203 65.3591C29.4958 65.5333 29.4461 65.7573 29.4461 66.056V66.1307C29.4461 66.4294 29.4958 66.6534 29.6203 66.8276C29.7199 67.0018 29.919 67.0765 30.143 67.0765Z" fill="white"/>
<path d="M33.7504 66.1321C33.7504 66.5304 33.6508 66.8539 33.4766 67.0779C33.3024 67.3268 33.0535 67.4513 32.7299 67.4513C32.4063 67.4513 32.1574 67.3517 31.9832 67.1526V68.3971H31.5352V64.7881H31.9334L31.9583 65.0867C32.1325 64.8627 32.3814 64.7383 32.705 64.7383C33.0286 64.7383 33.2775 64.8627 33.4517 65.0867C33.6259 65.3108 33.7255 65.6592 33.7255 66.0823V66.1321H33.7504ZM33.3024 66.0823C33.3024 65.7837 33.2277 65.5597 33.1032 65.3854C32.9788 65.2112 32.8045 65.1365 32.5805 65.1365C32.3067 65.1365 32.1076 65.261 31.9832 65.485V66.7295C32.1076 66.9784 32.3316 67.0779 32.6054 67.0779C32.8294 67.0779 32.9788 67.0033 33.1032 66.829C33.2277 66.6548 33.3024 66.4059 33.3024 66.0823Z" fill="white"/>
<path d="M35.7924 67.3999C35.7675 67.3502 35.7426 67.2506 35.7177 67.1262C35.5186 67.3502 35.2697 67.4497 34.971 67.4497C34.7221 67.4497 34.4981 67.3751 34.3488 67.2257C34.1745 67.0764 34.0999 66.9021 34.0999 66.6781C34.0999 66.4043 34.1994 66.2052 34.3985 66.0559C34.5977 65.9065 34.8963 65.8319 35.2697 65.8319H35.6928V65.6327C35.6928 65.4834 35.643 65.359 35.5435 65.2594C35.4439 65.1598 35.3195 65.1101 35.1203 65.1101C34.971 65.1101 34.8217 65.1598 34.7221 65.2345C34.6225 65.3092 34.5728 65.4087 34.5728 65.5332H34.1247C34.1247 65.4087 34.1745 65.2843 34.2741 65.1598C34.3736 65.0354 34.4981 64.9358 34.6474 64.8612C34.7968 64.7865 34.971 64.7616 35.1701 64.7616C35.4688 64.7616 35.6928 64.8363 35.8671 64.9856C36.0413 65.1349 36.1159 65.3341 36.1408 65.6079V66.8026C36.1408 67.0515 36.1657 67.2257 36.2404 67.3751V67.4248H35.7924V67.3999ZM35.0457 67.0515C35.195 67.0515 35.3195 67.0266 35.4439 66.9519C35.5684 66.8773 35.6679 66.7777 35.7177 66.6781V66.1554H35.3692C34.8217 66.1554 34.5479 66.3048 34.5479 66.6284C34.5479 66.7777 34.5977 66.8773 34.6972 66.9519C34.7968 67.0266 34.9212 67.0515 35.0457 67.0515Z" fill="white"/>
<path d="M36.7637 67.1761C36.7637 67.1015 36.7886 67.0268 36.8383 66.977C36.8881 66.9272 36.9628 66.9023 37.0375 66.9023C37.1121 66.9023 37.1868 66.9272 37.2366 66.977C37.2864 67.0268 37.3113 67.1015 37.3113 67.1761C37.3113 67.2508 37.2864 67.3006 37.2366 67.3504C37.1868 67.4001 37.1121 67.425 37.0375 67.425C36.9628 67.425 36.8881 67.4001 36.8383 67.3504C36.7886 67.3006 36.7637 67.2508 36.7637 67.1761Z" fill="white"/>
<path d="M37.8086 66.0823C37.8086 65.8334 37.8584 65.6094 37.9579 65.3854C38.0575 65.1614 38.2068 65.037 38.3811 64.9125C38.5553 64.8129 38.7544 64.7383 39.0033 64.7383C39.3518 64.7383 39.6505 64.8627 39.8745 65.1116C40.0985 65.3605 40.198 65.6841 40.198 66.0823V66.1072C40.198 66.3561 40.1483 66.5801 40.0487 66.7793C39.9491 66.9784 39.8247 67.1277 39.6256 67.2522C39.4513 67.3766 39.2273 67.4264 39.0033 67.4264C38.6549 67.4264 38.3562 67.302 38.1571 67.0531C37.933 66.8042 37.8335 66.4806 37.8335 66.0823H37.8086ZM38.2566 66.1321C38.2566 66.4308 38.3313 66.6548 38.4557 66.829C38.5802 67.0033 38.7793 67.1028 39.0033 67.1028C39.2273 67.1028 39.4016 67.0033 39.5509 66.829C39.7002 66.6548 39.75 66.4059 39.75 66.0823C39.75 65.8086 39.6753 65.5597 39.5509 65.3854C39.4264 65.2112 39.2273 65.1116 39.0033 65.1116C38.7793 65.1116 38.6051 65.2112 38.4806 65.3854C38.3562 65.5597 38.2566 65.8086 38.2566 66.1321Z" fill="white"/>
<path d="M41.8651 65.2112C41.7904 65.2112 41.7158 65.1863 41.6411 65.1863C41.3424 65.1863 41.1433 65.3108 41.0437 65.5597V67.4015H40.5957V64.7881H41.0188V65.0867C41.1682 64.8627 41.3673 64.7383 41.6411 64.7383C41.7158 64.7383 41.7904 64.7383 41.8402 64.7632V65.2112H41.8651Z" fill="white"/>
<path d="M41.9922 66.0809C41.9922 65.6826 42.0917 65.3591 42.266 65.1102C42.4651 64.8613 42.714 64.7617 43.0127 64.7617C43.3363 64.7617 43.5852 64.8862 43.7594 65.1102L43.7843 64.8115H44.1825V67.3503C44.1825 67.6987 44.083 67.9476 43.8838 68.1468C43.6847 68.3459 43.4109 68.4454 43.0874 68.4454C42.8882 68.4454 42.714 68.3957 42.5398 68.321C42.3655 68.2463 42.2162 68.1219 42.1166 67.9974L42.3407 67.7236C42.5398 67.9476 42.7638 68.0721 43.0376 68.0721C43.2616 68.0721 43.4109 68.0223 43.5354 67.8979C43.6598 67.7734 43.7096 67.5992 43.7096 67.3752V67.1512C43.5354 67.3503 43.2865 67.4498 42.9878 67.4498C42.6891 67.4498 42.4402 67.3254 42.2411 67.0765C42.0917 66.8276 41.9922 66.504 41.9922 66.0809ZM42.4402 66.1307C42.4402 66.4294 42.49 66.6534 42.6144 66.8276C42.7389 67.0018 42.9131 67.0765 43.1122 67.0765C43.386 67.0765 43.61 66.952 43.7345 66.7031V65.5084C43.61 65.2595 43.386 65.1351 43.1122 65.1351C42.8882 65.1351 42.7389 65.2097 42.6144 65.384C42.5149 65.5582 42.4402 65.8071 42.4402 66.1307Z" fill="white"/>
<path d="M44.8265 67.6988H44.4531L45.9216 63.8906H46.295L44.8265 67.6988Z" fill="white"/>
<path d="M48.1633 66.7046C48.1633 66.5801 48.1135 66.4806 48.0388 66.4308C47.9393 66.3561 47.7899 66.3064 47.5659 66.2566C47.3419 66.2068 47.1677 66.157 47.0183 66.0823C46.8939 66.0077 46.7943 65.933 46.7197 65.8334C46.645 65.7339 46.6201 65.6343 46.6201 65.5099C46.6201 65.2859 46.7196 65.1116 46.8939 64.9623C47.0681 64.8129 47.317 64.7383 47.5908 64.7383C47.8895 64.7383 48.1135 64.8129 48.3126 64.9623C48.4868 65.1116 48.5864 65.3107 48.5864 65.5348H48.1384C48.1384 65.4103 48.0886 65.3108 47.989 65.2112C47.8895 65.1116 47.765 65.0867 47.5908 65.0867C47.4166 65.0867 47.2921 65.1116 47.2175 65.1863C47.1179 65.261 47.0681 65.3605 47.0681 65.4601C47.0681 65.5597 47.1179 65.6592 47.1926 65.709C47.2672 65.7588 47.4415 65.8086 47.6655 65.8583C47.8895 65.9081 48.0637 65.9579 48.2131 66.0326C48.3624 66.1072 48.462 66.1819 48.5117 66.2815C48.5615 66.381 48.6113 66.5055 48.6113 66.6299C48.6113 66.8539 48.5117 67.0531 48.3375 67.1775C48.1633 67.3268 47.9144 67.3766 47.6157 67.3766C47.4166 67.3766 47.2175 67.3517 47.0681 67.2771C46.9188 67.2024 46.7943 67.1028 46.6948 66.9784C46.5952 66.8539 46.5703 66.7046 46.5703 66.5553H47.0183C47.0183 66.7046 47.093 66.829 47.1926 66.9037C47.2921 66.9784 47.4415 67.0282 47.6406 67.0282C47.8148 67.0282 47.9393 67.0033 48.0388 66.9286C48.1384 66.8539 48.1633 66.829 48.1633 66.7046Z" fill="white"/>
<path d="M48.959 66.0823C48.959 65.8334 49.0088 65.6094 49.1083 65.3854C49.2079 65.1614 49.3572 65.037 49.5315 64.9125C49.7057 64.8129 49.9048 64.7383 50.1537 64.7383C50.5022 64.7383 50.8009 64.8627 51.0249 65.1116C51.2489 65.3605 51.3484 65.6841 51.3484 66.0823V66.1072C51.3484 66.3561 51.2987 66.5801 51.1991 66.7793C51.0995 66.9784 50.9751 67.1277 50.776 67.2522C50.6017 67.3766 50.3777 67.4264 50.1537 67.4264C49.8052 67.4264 49.5066 67.302 49.3074 67.0531C49.0834 66.8042 48.9839 66.4806 48.9839 66.0823H48.959ZM49.407 66.1321C49.407 66.4308 49.4817 66.6548 49.6061 66.829C49.7306 67.0033 49.9297 67.1028 50.1537 67.1028C50.3777 67.1028 50.5519 67.0033 50.7013 66.829C50.8506 66.6548 50.9004 66.4059 50.9004 66.0823C50.9004 65.8086 50.8257 65.5597 50.7013 65.3854C50.5768 65.2112 50.3777 65.1116 50.1537 65.1116C49.9297 65.1116 49.7555 65.2112 49.631 65.3854C49.5066 65.5597 49.407 65.8086 49.407 66.1321Z" fill="white"/>
<path d="M52.7914 67.0765C52.9408 67.0765 53.0901 67.0267 53.2146 66.9272C53.339 66.8276 53.3888 66.7031 53.4137 66.5787H53.8368C53.8368 66.728 53.787 66.8774 53.6875 67.0018C53.5879 67.1263 53.4635 67.2507 53.3141 67.3254C53.1648 67.4001 52.9905 67.4498 52.8163 67.4498C52.4679 67.4498 52.1692 67.3254 51.9701 67.1014C51.7709 66.8525 51.6465 66.5289 51.6465 66.1307V66.056C51.6465 65.8071 51.6963 65.5831 51.7958 65.384C51.8954 65.1849 52.0198 65.0355 52.1941 64.9359C52.3683 64.8364 52.5674 64.7617 52.8163 64.7617C53.115 64.7617 53.339 64.8613 53.5381 65.0355C53.7373 65.2097 53.8368 65.4337 53.8368 65.7075H53.4137C53.3888 65.5333 53.339 65.4089 53.2146 65.2844C53.0901 65.1848 52.9657 65.1102 52.7914 65.1102C52.5674 65.1102 52.3932 65.1848 52.2687 65.3591C52.1443 65.5333 52.0945 65.7573 52.0945 66.056V66.1307C52.0945 66.4294 52.1443 66.6534 52.2687 66.8276C52.3932 67.0018 52.5674 67.0765 52.7914 67.0765Z" fill="white"/>
<path d="M56.0527 66.2303H56.5505V66.6036H56.0527V67.425H55.6047V66.6036H54.0117V66.3298L55.5798 63.8906H56.0527V66.2303ZM54.5095 66.2303H55.6047V64.5129L55.5549 64.6124L54.5095 66.2303Z" fill="white"/>
<path d="M58.3684 66.7046C58.3684 66.5801 58.3186 66.4806 58.2439 66.4308C58.1443 66.3561 57.995 66.3064 57.771 66.2566C57.547 66.2068 57.3727 66.157 57.2234 66.0823C57.099 66.0077 56.9994 65.933 56.9247 65.8334C56.8501 65.7339 56.8252 65.6343 56.8252 65.5099C56.8252 65.2859 56.9247 65.1116 57.099 64.9623C57.2732 64.8129 57.5221 64.7383 57.7959 64.7383C58.0946 64.7383 58.3186 64.8129 58.5177 64.9623C58.6919 65.1116 58.7915 65.3107 58.7915 65.5348H58.3435C58.3435 65.4103 58.2937 65.3108 58.1941 65.2112C58.0946 65.1116 57.9701 65.0867 57.7959 65.0867C57.6217 65.0867 57.4972 65.1116 57.4225 65.1863C57.323 65.261 57.2732 65.3605 57.2732 65.4601C57.2732 65.5597 57.323 65.6592 57.3976 65.709C57.4723 65.7588 57.6465 65.8086 57.8706 65.8583C58.0946 65.9081 58.2688 65.9579 58.4181 66.0326C58.5675 66.1072 58.667 66.1819 58.7168 66.2815C58.7666 66.381 58.8164 66.5055 58.8164 66.6299C58.8164 66.8539 58.7168 67.0531 58.5426 67.1775C58.3684 67.3268 58.1195 67.3766 57.8208 67.3766C57.6217 67.3766 57.4225 67.3517 57.2732 67.2771C57.1239 67.2024 56.9994 67.1028 56.8998 66.9784C56.8003 66.8539 56.7754 66.7046 56.7754 66.5553H57.2234C57.2234 66.7046 57.2981 66.829 57.3976 66.9037C57.4972 67.0033 57.6465 67.0282 57.8457 67.0282C58.0199 67.0282 58.1443 67.0033 58.2439 66.9286C58.3435 66.8539 58.3684 66.829 58.3684 66.7046Z" fill="white"/>
<path d="M59.1387 66.0823C59.1387 65.8334 59.1884 65.6094 59.288 65.3854C59.3876 65.1863 59.5369 65.037 59.7111 64.9125C59.8854 64.8129 60.0845 64.7383 60.3334 64.7383C60.6819 64.7383 60.9805 64.8627 61.2045 65.1116C61.4286 65.3605 61.5281 65.6841 61.5281 66.0823V66.1072C61.5281 66.3561 61.4783 66.5801 61.3788 66.7793C61.2792 66.9784 61.1548 67.1277 60.9556 67.2522C60.7814 67.3766 60.5574 67.4264 60.3334 67.4264C59.9849 67.4264 59.6863 67.302 59.4871 67.0531C59.2631 66.8042 59.1636 66.4806 59.1636 66.0823H59.1387ZM59.5867 66.1321C59.5867 66.4308 59.6614 66.6548 59.7858 66.829C59.9103 67.0033 60.1094 67.1028 60.3334 67.1028C60.5574 67.1028 60.7316 67.0033 60.881 66.829C61.0054 66.6548 61.0801 66.4059 61.0801 66.0823C61.0801 65.8086 61.0054 65.5597 60.881 65.3854C60.7565 65.2112 60.5574 65.1116 60.3334 65.1116C60.1094 65.1116 59.9352 65.2112 59.8107 65.3854C59.6863 65.5597 59.5867 65.8086 59.5867 66.1321Z" fill="white"/>
<path d="M80.2219 77.6538V77.9525H79.6495V79.4708H79.301V77.9525H78.7285V77.6538H80.2219ZM82.1882 79.4708L82.1136 78.4005C82.1136 78.2512 82.1136 78.0769 82.0887 77.9027H82.0638C82.014 78.052 81.9642 78.2761 81.9145 78.4503L81.5909 79.4459H81.2175L80.894 78.4005C80.8691 78.2512 80.8193 78.052 80.7695 77.8778H80.7446C80.7446 78.052 80.7446 78.2263 80.7197 78.3756L80.6451 79.4459H80.2966L80.421 77.6289H80.9686L81.2922 78.525C81.342 78.6743 81.3669 78.7987 81.4166 78.973C81.4664 78.7987 81.4913 78.6494 81.5411 78.525L81.8647 77.6289H82.3874L82.5367 79.4459H82.1882V79.4708Z" fill="#231F20"/>
<defs>
<linearGradient id="paint0_linear_2241_931" x1="86.8638" y1="43.4357" x2="0.0025369" y2="43.4357" gradientUnits="userSpaceOnUse">
<stop stop-color="#2161AD"/>
<stop offset="0.1797" stop-color="#206AB3"/>
<stop offset="0.4727" stop-color="#1C82C5"/>
<stop offset="0.8404" stop-color="#17AAE1"/>
<stop offset="1" stop-color="#14BDEF"/>
</linearGradient>
<linearGradient id="paint1_linear_2241_931" x1="9.73192" y1="43.4361" x2="77.1353" y2="43.4361" gradientUnits="userSpaceOnUse">
<stop stop-color="#2161AD"/>
<stop offset="0.1797" stop-color="#206AB3"/>
<stop offset="0.4727" stop-color="#1C82C5"/>
<stop offset="0.8404" stop-color="#17AAE1"/>
<stop offset="1" stop-color="#14BDEF"/>
</linearGradient>
</defs>
</svg>
