<svg width="24" height="21" viewBox="0 0 24 21" fill="none" xmlns="http://www.w3.org/2000/svg">
<path d="M5.20238 1.4019C7.95375 3.43816 10.9136 7.56632 12 9.78164V15.6329C12 15.5084 11.9513 15.6491 11.8463 15.9523C11.2793 17.594 9.0645 24.0012 4.00012 18.8791C1.3335 16.1822 2.568 13.4854 7.422 12.6712C4.64512 13.1368 1.52325 12.3672 0.66675 9.34985C0.42 8.48185 0 3.13532 0 2.41322C0 -1.20394 3.21712 -0.066993 5.20238 1.4019ZM18.7976 1.4019C16.0462 3.43816 13.0864 7.56632 12 9.78164V15.6329C12 15.5084 12.0487 15.6491 12.1537 15.9523C12.7207 17.594 14.9355 24.0012 19.9999 18.8791C22.6665 16.1822 21.432 13.4854 16.578 12.6712C19.3549 13.1368 22.4768 12.3672 23.3333 9.34985C23.58 8.48185 24 3.13532 24 2.41322C24 -1.20394 20.7832 -0.066993 18.7976 1.4019Z" fill="#838B9C"/>
</svg>
