<svg width="20" height="20" viewBox="0 0 20 20" fill="none" xmlns="http://www.w3.org/2000/svg">
<path d="M16.9419 3.69505C15.6473 3.08932 14.263 2.6491 12.8157 2.39844C12.638 2.71978 12.4304 3.15199 12.2872 3.49582C10.7487 3.26445 9.22445 3.26445 7.7143 3.49582C7.57116 3.15199 7.3588 2.71978 7.17947 2.39844C5.73067 2.6491 4.3448 3.09094 3.05016 3.69825C0.438869 7.64426 -0.269009 11.4923 0.0849305 15.2856C1.81688 16.579 3.49534 17.3647 5.14548 17.8788C5.55291 17.3181 5.91628 16.722 6.22931 16.0938C5.63313 15.8672 5.06211 15.5877 4.52256 15.2631C4.6657 15.1571 4.80571 15.0462 4.94098 14.9321C8.23183 16.4713 11.8074 16.4713 15.0589 14.9321C15.1958 15.0462 15.3358 15.1571 15.4774 15.2631C14.9362 15.5893 14.3637 15.8688 13.7675 16.0954C14.0805 16.722 14.4423 17.3197 14.8513 17.8804C16.503 17.3663 18.183 16.5806 19.915 15.2856C20.3303 10.8881 19.2056 7.07549 16.9419 3.69505ZM6.67765 12.9527C5.68977 12.9527 4.87963 12.0305 4.87963 10.9074C4.87963 9.78435 5.67247 8.86051 6.67765 8.86051C7.68285 8.86051 8.49297 9.78273 8.47567 10.9074C8.47723 12.0305 7.68285 12.9527 6.67765 12.9527ZM13.3223 12.9527C12.3344 12.9527 11.5243 12.0305 11.5243 10.9074C11.5243 9.78435 12.3171 8.86051 13.3223 8.86051C14.3275 8.86051 15.1376 9.78273 15.1203 10.9074C15.1203 12.0305 14.3275 12.9527 13.3223 12.9527Z" fill="#838B9C"/>
</svg>
