<svg width="130" height="18" viewBox="0 0 130 18" fill="none" xmlns="http://www.w3.org/2000/svg">
<g clip-path="url(#clip0_2241_869)">
<path d="M41.5838 10.8305C41.5838 12.8759 39.8159 13.6132 37.6675 13.6132C35.194 13.6132 33.6719 12.4795 33.6719 10.4817H36.3753C36.3612 10.6633 36.3883 10.8458 36.4545 11.0155C36.5207 11.1852 36.6243 11.3379 36.7576 11.462C36.8909 11.5862 37.0505 11.6787 37.2245 11.7327C37.3985 11.7867 37.5824 11.8008 37.7626 11.7739C38.4206 11.7739 38.8963 11.544 38.8963 10.9653C38.8963 10.3073 38.2145 10.2042 36.5734 9.67306C35.1306 9.22118 33.8939 8.81686 33.8939 7.14409C33.8939 5.35241 35.3843 4.48828 37.7388 4.48828C40.2678 4.48828 41.4808 5.78051 41.4808 7.42157H38.7219C38.7393 7.26846 38.722 7.11339 38.6712 6.9679C38.6204 6.82242 38.5374 6.69027 38.4285 6.5813C38.3195 6.47234 38.1874 6.38937 38.0419 6.33856C37.8964 6.28776 37.7413 6.27044 37.5882 6.28789C37.0333 6.28789 36.5497 6.54158 36.5497 7.07274C36.5497 7.70697 37.3107 7.8021 38.7774 8.2857C40.3154 8.73758 41.5838 9.1419 41.5838 10.8384V10.8305Z" fill="white"/>
<path d="M45.5873 8.12568H49.2262C49.2437 7.88646 49.2104 7.64624 49.1286 7.42079C49.0467 7.19534 48.918 6.98976 48.7511 6.81755C48.5841 6.64535 48.3826 6.51041 48.1598 6.42161C47.937 6.3328 47.6979 6.29214 47.4583 6.30229C47.2122 6.28519 46.9653 6.32026 46.7338 6.4052C46.5022 6.49014 46.2912 6.62302 46.1146 6.79516C45.938 6.9673 45.7997 7.17481 45.7088 7.40409C45.618 7.63338 45.5765 7.87928 45.5873 8.12568ZM45.5873 9.71917C45.5598 9.97784 45.5906 10.2394 45.6773 10.4846C45.764 10.7299 45.9044 10.9527 46.0884 11.1366C46.2723 11.3205 46.4951 11.461 46.7403 11.5477C46.9856 11.6344 47.2471 11.6652 47.5058 11.6377C47.8444 11.6857 48.1892 11.6137 48.4802 11.4341C48.7713 11.2546 48.9903 10.9788 49.0993 10.6546H51.8027C51.549 12.2957 50.011 13.6117 47.5296 13.6117C44.4933 13.6117 42.8522 11.717 42.8522 9.03737C42.8138 8.42464 42.9066 7.81076 43.1244 7.23676C43.3422 6.66275 43.6801 6.14185 44.1153 5.70886C44.5505 5.27586 45.0732 4.94075 45.6483 4.72591C46.2234 4.51107 46.8378 4.42145 47.4503 4.46304C50.1537 4.46304 51.9216 6.31021 51.9216 8.43486C51.9321 8.86801 51.8976 9.30109 51.8185 9.72709H45.5714L45.5873 9.71917Z" fill="white"/>
<path d="M64.6976 13.3834V8.70599C64.6976 7.54061 64.2933 6.83503 63.3578 6.83503C62.5254 6.83503 61.8912 7.3662 61.8912 9.03103V13.3755H59.2353V8.67428C59.2353 7.5089 58.8548 6.82711 57.9431 6.82711C57.1107 6.82711 56.4527 7.35827 56.4527 9.0786V13.3755H53.7969V4.71038H56.4527V5.9709C56.6879 5.51382 57.0485 5.13316 57.4921 4.87343C57.9357 4.61371 58.4441 4.48566 58.9579 4.50426C59.5079 4.44217 60.063 4.56206 60.5384 4.84556C61.0138 5.12906 61.3831 5.56055 61.5899 6.07397C61.8476 5.58485 62.2379 5.17821 62.716 4.9006C63.1941 4.62298 63.7407 4.48563 64.2933 4.50426C66.8222 4.50426 67.3296 6.22459 67.3296 8.04006V13.3755H64.6976V13.3834Z" fill="white"/>
<path d="M73.8511 11.2587C73.567 11.2545 73.2868 11.1928 73.0272 11.0773C72.7676 10.9619 72.5341 10.795 72.3407 10.5868C72.1474 10.3787 71.9982 10.1335 71.9022 9.8661C71.8061 9.59871 71.7652 9.31464 71.782 9.03102C71.7611 8.74656 71.7992 8.46084 71.8937 8.19174C71.9882 7.92263 72.1372 7.6759 72.3314 7.46697C72.5256 7.25804 72.7608 7.0914 73.0222 6.97744C73.2837 6.86349 73.5659 6.80467 73.8511 6.80467C74.1364 6.80467 74.4185 6.86349 74.68 6.97744C74.9415 7.0914 75.1766 7.25804 75.3708 7.46697C75.565 7.6759 75.714 7.92263 75.8086 8.19174C75.9031 8.46084 75.9411 8.74656 75.9203 9.03102C75.9351 9.31421 75.8929 9.59748 75.7962 9.86404C75.6994 10.1306 75.5501 10.375 75.3572 10.5828C75.1642 10.7906 74.9314 10.9574 74.6727 11.0736C74.414 11.1897 74.1346 11.2526 73.8511 11.2587ZM75.9203 5.94711C75.6364 5.49928 75.2443 5.13016 74.7801 4.87384C74.3159 4.61751 73.7947 4.48222 73.2645 4.48047C70.7593 4.48047 69.0469 6.45449 69.0469 9.03102C69.0469 11.6076 70.7672 13.5816 73.2645 13.5816C73.7921 13.5801 74.311 13.4474 74.7746 13.1956C75.2382 12.9437 75.6319 12.5805 75.9203 12.1387V13.3517H78.6791V4.71037H75.9203V5.94711Z" fill="white"/>
<path d="M85.8516 11.2589C85.5653 11.2575 85.2822 11.1979 85.0196 11.0838C84.757 10.9698 84.5202 10.8035 84.3238 10.5952C84.1273 10.3869 83.9753 10.1409 83.8767 9.872C83.7782 9.60315 83.7354 9.3171 83.7507 9.03118C83.7347 8.7451 83.7771 8.45875 83.8753 8.1896C83.9736 7.92045 84.1257 7.67413 84.3222 7.46568C84.5188 7.25722 84.7558 7.091 85.0187 6.97715C85.2817 6.8633 85.5651 6.8042 85.8516 6.80347C86.1353 6.80554 86.4155 6.866 86.6748 6.98109C86.9341 7.09617 87.167 7.26341 87.3589 7.47239C87.5507 7.68137 87.6975 7.92762 87.7901 8.19579C87.8827 8.46397 87.9191 8.74833 87.897 9.03118C87.9164 9.31344 87.8781 9.5967 87.7845 9.86371C87.691 10.1307 87.544 10.3759 87.3527 10.5843C87.1613 10.7927 86.9296 10.96 86.6715 11.076C86.4134 11.1919 86.1345 11.2542 85.8516 11.2589ZM86.4303 4.48062C85.8987 4.47531 85.3748 4.60758 84.9095 4.86457C84.4441 5.12155 84.0531 5.49453 83.7745 5.94726V4.71053H81.0156V16.0631H83.7745V12.1468C84.0584 12.5946 84.4505 12.9637 84.9147 13.2201C85.3788 13.4764 85.9001 13.6117 86.4303 13.6134C88.9355 13.6134 90.6479 11.6394 90.6479 9.06289C90.6479 6.48636 88.9276 4.48855 86.4303 4.48855V4.48062Z" fill="white"/>
<path d="M100.309 5.47226C100.022 5.13441 99.6588 4.86924 99.2496 4.6984C98.8404 4.52756 98.3966 4.45588 97.9544 4.48921C97.3969 4.4511 96.8397 4.56792 96.3444 4.82675C95.8491 5.08559 95.435 5.47636 95.148 5.95586V2.00781H92.4922V13.3842H95.148V9.03977C95.148 7.69997 95.7029 6.84377 96.8128 6.84377C97.9227 6.84377 98.327 7.69997 98.327 8.94463V13.3921H100.983V8.26284C101.081 7.28461 100.84 6.30246 100.301 5.48019L100.309 5.47226Z" fill="white"/>
<path d="M109.514 9.03617C109.53 8.75009 109.488 8.46374 109.39 8.19459C109.291 7.92544 109.139 7.67912 108.943 7.47067C108.746 7.26222 108.509 7.09599 108.246 6.98214C107.983 6.86829 107.7 6.80919 107.414 6.80846C107.13 6.81054 106.85 6.871 106.59 6.98608C106.331 7.10116 106.098 7.2684 105.906 7.47738C105.714 7.68636 105.568 7.93261 105.475 8.20079C105.382 8.46896 105.346 8.75333 105.368 9.03617C105.349 9.31843 105.387 9.60169 105.481 9.8687C105.574 10.1357 105.721 10.3809 105.912 10.5893C106.104 10.7977 106.336 10.965 106.594 11.081C106.852 11.1969 107.131 11.2592 107.414 11.2639C107.7 11.2629 107.983 11.2037 108.246 11.0897C108.509 10.9758 108.746 10.8096 108.942 10.6012C109.139 10.3928 109.291 10.1465 109.389 9.8775C109.488 9.60845 109.53 9.3222 109.514 9.03617ZM102.617 9.03617C102.681 7.8016 103.216 6.63851 104.112 5.78709C105.008 4.93567 106.197 4.46094 107.433 4.46094C108.67 4.46094 109.859 4.93567 110.755 5.78709C111.651 6.63851 112.186 7.8016 112.249 9.03617C112.259 9.66118 112.138 10.2813 111.895 10.8573C111.652 11.4333 111.293 11.9527 110.839 12.3826C110.385 12.8125 109.847 13.1436 109.259 13.355C108.671 13.5663 108.045 13.6533 107.421 13.6105C104.385 13.6105 102.617 11.5414 102.617 9.03617Z" fill="white"/>
<path d="M120.231 7.21473C119.92 7.12207 119.596 7.07926 119.272 7.08789C117.758 7.08789 116.767 7.87274 116.767 9.99739V13.3826H114.008V4.70955H116.767V6.12862C117.033 5.65942 117.419 5.2696 117.886 4.99928C118.353 4.72896 118.883 4.5879 119.422 4.59063C119.708 4.56926 119.995 4.6211 120.255 4.74126V7.21473H120.231Z" fill="white"/>
<path d="M123.665 8.12568H127.304C127.322 7.88646 127.289 7.64624 127.207 7.42079C127.125 7.19534 126.996 6.98976 126.829 6.81755C126.662 6.64535 126.461 6.51041 126.238 6.42161C126.015 6.3328 125.776 6.29214 125.536 6.30229C125.29 6.28519 125.043 6.32026 124.812 6.4052C124.58 6.49014 124.369 6.62302 124.193 6.79516C124.016 6.9673 123.878 7.17481 123.787 7.40409C123.696 7.63338 123.655 7.87928 123.665 8.12568ZM123.665 9.71917C123.638 9.97784 123.669 10.2394 123.755 10.4846C123.842 10.7299 123.983 10.9527 124.167 11.1366C124.35 11.3205 124.573 11.461 124.818 11.5477C125.064 11.6344 125.325 11.6652 125.584 11.6377C125.923 11.6859 126.267 11.6139 126.558 11.4343C126.85 11.2548 127.069 10.9789 127.177 10.6546H129.881C129.627 12.2957 128.089 13.6117 125.608 13.6117C122.571 13.6117 120.93 11.717 120.93 9.03737C120.892 8.42464 120.985 7.81076 121.203 7.23676C121.42 6.66275 121.758 6.14185 122.193 5.70886C122.629 5.27586 123.151 4.94075 123.726 4.72591C124.302 4.51107 124.916 4.42145 125.528 4.46304C128.232 4.46304 130 6.31021 130 8.43486C130.01 8.86801 129.976 9.30109 129.897 9.72709H123.65L123.665 9.71917Z" fill="white"/>
<path d="M10.4647 17.7362C9.43234 17.7362 8.41038 17.5301 7.45878 17.1299C6.50718 16.7296 5.64511 16.1433 4.92316 15.4054L0 10.403L2.94914 7.40625L7.88023 12.4087C8.21772 12.7515 8.62003 13.0237 9.06373 13.2095C9.50743 13.3953 9.98366 13.491 10.4647 13.491C10.9457 13.491 11.422 13.3953 11.8657 13.2095C12.3094 13.0237 12.7117 12.7515 13.0492 12.4087L16.9496 8.43686C17.0825 8.30143 17.241 8.19385 17.4159 8.1204C17.5908 8.04696 17.7786 8.00913 17.9684 8.00913C18.1581 8.00913 18.3459 8.04696 18.5208 8.1204C18.6957 8.19385 18.8542 8.30143 18.9871 8.43686L20.9215 10.403L16.0062 15.4133C15.2835 16.1491 14.421 16.733 13.4693 17.1305C12.5176 17.5281 11.4961 17.7313 10.4647 17.7282V17.7362Z" fill="white"/>
<path d="M25.4958 10.3536L20.5647 5.34322C20.2291 4.99713 19.8274 4.72197 19.3834 4.53406C18.9395 4.34615 18.4623 4.24933 17.9802 4.24933C17.4981 4.24933 17.0209 4.34615 16.577 4.53406C16.133 4.72197 15.7313 4.99713 15.3957 5.34322L11.4953 9.31504C11.3624 9.45048 11.2039 9.55806 11.029 9.6315C10.8541 9.70495 10.6663 9.74277 10.4765 9.74277C10.2868 9.74277 10.099 9.70495 9.9241 9.6315C9.74919 9.55806 9.59067 9.45048 9.45782 9.31504L7.52344 7.34895L12.4466 2.33066C13.1678 1.59287 14.0292 1.00664 14.9801 0.606407C15.9311 0.206172 16.9524 0 17.9842 0C19.0159 0 20.0372 0.206172 20.9882 0.606407C21.9391 1.00664 22.8005 1.59287 23.5217 2.33066L28.4528 7.34102L25.4958 10.3536Z" fill="white"/>
</g>
<defs>
<clipPath id="clip0_2241_869">
<rect width="130" height="17.7345" fill="white"/>
</clipPath>
</defs>
</svg>
