<svg width="20" height="20" viewBox="0 0 20 20" fill="none" xmlns="http://www.w3.org/2000/svg">
<g clip-path="url(#clip0_2241_845)">
<path fill-rule="evenodd" clip-rule="evenodd" d="M9.97701 1.60156C7.72885 1.63023 5.58398 2.55253 4.01365 4.16581C2.44331 5.77909 1.57596 7.9514 1.60214 10.2055C1.59547 11.9928 2.1398 13.7386 3.16064 15.2038C4.18149 16.6691 5.62897 17.7823 7.30503 18.3912C7.37064 18.4105 7.43983 18.4143 7.50715 18.4022C7.57447 18.3901 7.63806 18.3625 7.69291 18.3216C7.74776 18.2806 7.79235 18.2274 7.82318 18.1662C7.85401 18.105 7.87022 18.0375 7.87053 17.9689V16.4935C5.55747 17.0213 5.04461 15.3315 5.04461 15.3315C4.90516 14.8083 4.57536 14.3564 4.12018 14.0648C3.3497 13.537 4.17123 13.537 4.17123 13.537C4.43902 13.5798 4.69368 13.6828 4.91608 13.8383C5.13849 13.9938 5.32287 14.1979 5.45538 14.4351C5.56236 14.6456 5.71055 14.8324 5.8911 14.9843C6.07166 15.1362 6.28089 15.2501 6.5063 15.3191C6.7317 15.3881 6.96867 15.4109 7.20306 15.3861C7.43745 15.3614 7.66446 15.2895 7.87053 15.1748C7.90017 14.739 8.08204 14.3276 8.38419 14.0128C6.53454 13.8041 4.582 13.0612 4.582 9.73366C4.56165 8.8737 4.87506 8.03939 5.45618 7.40655C5.22512 6.68011 5.26048 5.89481 5.55588 5.19219C5.55588 5.19219 6.27372 4.98108 7.86894 6.09025C8.55367 5.89563 9.26397 5.80665 9.97542 5.82635C10.6854 5.83286 11.3922 5.92141 12.0819 6.09025C13.6771 4.98108 14.395 5.19219 14.395 5.19219C14.6894 5.9147 14.7258 6.71704 14.4979 7.46333C15.0669 8.1025 15.3795 8.93047 15.3752 9.78724C15.3752 13.114 13.4227 13.8009 11.573 14.012C11.774 14.2207 11.9284 14.4699 12.0259 14.7431C12.1234 15.0162 12.1618 15.3071 12.1385 15.5962V17.9729C12.1388 18.0415 12.1551 18.109 12.1859 18.1702C12.2167 18.2314 12.2613 18.2846 12.3162 18.3256C12.371 18.3665 12.4346 18.3941 12.5019 18.4062C12.5692 18.4183 12.6384 18.4145 12.704 18.3952C14.3859 17.7943 15.8388 16.6825 16.8605 15.2145C17.8822 13.7465 18.4217 11.9955 18.4037 10.2055C18.4097 7.94852 17.5286 5.78006 15.9514 4.16969C14.3742 2.55932 12.2278 1.63668 9.97701 1.60156Z" fill="#838B9C"/>
</g>
<defs>
<clipPath id="clip0_2241_845">
<rect width="16.8" height="16.8" fill="white" transform="translate(1.60156 1.60156)"/>
</clipPath>
</defs>
</svg>
