<svg width="94" height="122" viewBox="0 0 94 122" fill="none" xmlns="http://www.w3.org/2000/svg">
<path d="M8.1001 89.9L47.6001 110L85.6001 89.9V11.3H8.1001V89.9Z" fill="white"/>
<path d="M86.4 11.6L7.30005 91.3L48.3 111.6L86.4 92.1V11.6Z" fill="#F2F3F2"/>
<path d="M5.5 37.5V91.6L6.9 92.3L46.4 112.4L47.6 113L48.8 112.4L86.9 92.3L88.3 91.6V8.70001H5.5V37.5ZM8.1 90.1V11.3H85.7V90.1L47.6 110.2L8.1 90.1Z" fill="#DCDEDC"/>
<path d="M46.9001 12.6C47.3001 12.6 47.7 12.6 48.1 12.7L46.9001 15C45.1001 14.9 43.5001 16.3 43.4001 18.1C43.3001 19.9 44.7 21.5 46.5 21.6H46.9001C47.7001 21.6 48.5 21.3 49.1 20.8L50.4001 23C49.4001 23.7 48.2001 24.1 46.9001 24.1C43.7001 24.2 41.0001 21.8 40.9001 18.6C40.8001 15.4 43.2001 12.7 46.4001 12.6H46.9001ZM51 17.5L52.5 20L51 22.4L49.6 20H46.7001L48.2001 17.5H51ZM48.6 16.6C48.6 16.2 48.7001 15.8 48.9001 15.5C49.1001 15.2 49.5 14.9 49.8 14.7L50 14.6C50.4 14.4 50.5 14.3 50.5 14.1C50.5 13.9 50.2 13.7 50 13.7C49.6 13.7 49.3 13.9 49.1 14.3L48.6 13.8C48.7 13.6 48.9 13.4 49.1 13.2C49.4 13 49.7 13 50 13C50.3 13 50.7001 13.1 50.9001 13.3C51.1001 13.5 51.3 13.8 51.3 14.1C51.3 14.6 51.0001 15 50.4001 15.2L50.1 15.4C49.8 15.6 49.6 15.7 49.5 16H51.3V16.7L48.6 16.6ZM46.9001 29.1L56.4001 23.7V8.70001H37.3V23.6L46.9001 29.1Z" fill="#FF492C"/>
<path d="M90.1999 64.5H3.5999L0.399902 71.5L3.5999 78.5H90.1999L93.2999 71.5L90.1999 64.5Z" fill="#5A39A2"/>
<path d="M29.01 51.13C29.01 51.1833 28.99 51.2267 28.95 51.26C28.9166 51.2933 28.8766 51.31 28.83 51.31H23.9C23.8533 51.31 23.83 51.3367 23.83 51.39V53.71C23.83 53.7633 23.8533 53.79 23.9 53.79H27.13C27.1766 53.79 27.22 53.8067 27.26 53.84C27.2933 53.88 27.31 53.9233 27.31 53.97V55.42C27.31 55.4733 27.2933 55.5167 27.26 55.55C27.22 55.59 27.1766 55.61 27.13 55.61H23.9C23.8533 55.61 23.83 55.6333 23.83 55.68V58.11C23.83 58.1633 23.8533 58.19 23.9 58.19H28.83C28.8766 58.19 28.9166 58.2067 28.95 58.24C28.99 58.2733 29.01 58.3133 29.01 58.36V59.82C29.01 59.8733 28.99 59.9167 28.95 59.95C28.9166 59.9833 28.8766 60 28.83 60H21.89C21.8433 60 21.8033 59.9833 21.77 59.95C21.73 59.9167 21.71 59.8733 21.71 59.82V49.68C21.71 49.6333 21.73 49.59 21.77 49.55C21.8033 49.5167 21.8433 49.5 21.89 49.5H28.83C28.8766 49.5 28.9166 49.5167 28.95 49.55C28.99 49.59 29.01 49.6333 29.01 49.68V51.13ZM33.42 60.1C32.7466 60.1 32.16 60.0067 31.66 59.82C31.16 59.6333 30.7733 59.37 30.5 59.03C30.2266 58.69 30.09 58.3033 30.09 57.87V57.72C30.09 57.6733 30.1066 57.63 30.14 57.59C30.1733 57.5567 30.2133 57.54 30.26 57.54H31.93C31.9833 57.54 32.0266 57.5567 32.06 57.59C32.0933 57.63 32.11 57.6733 32.11 57.72V57.73C32.11 57.9567 32.2333 58.1467 32.48 58.3C32.72 58.4533 33.0266 58.53 33.4 58.53C33.74 58.53 34.0166 58.4633 34.23 58.33C34.4366 58.19 34.54 58.0233 34.54 57.83C34.54 57.65 34.45 57.5133 34.27 57.42C34.09 57.3333 33.7933 57.24 33.38 57.14C32.9133 57.02 32.5433 56.9033 32.27 56.79C31.6366 56.57 31.13 56.3 30.75 55.98C30.37 55.66 30.18 55.2 30.18 54.6C30.18 53.86 30.4666 53.2733 31.04 52.84C31.6133 52.4067 32.3733 52.19 33.32 52.19C33.96 52.19 34.52 52.29 35 52.49C35.4866 52.6967 35.86 52.9867 36.12 53.36C36.3866 53.7267 36.52 54.1467 36.52 54.62C36.52 54.6667 36.5033 54.7067 36.47 54.74C36.43 54.7733 36.3866 54.79 36.34 54.79H34.73C34.6833 54.79 34.6433 54.7733 34.61 54.74C34.57 54.7067 34.55 54.6667 34.55 54.62C34.55 54.4 34.44 54.2133 34.22 54.06C33.9933 53.9067 33.6933 53.83 33.32 53.83C32.9933 53.83 32.7233 53.8933 32.51 54.02C32.3033 54.14 32.2 54.3033 32.2 54.51C32.2 54.71 32.3033 54.86 32.51 54.96C32.7166 55.06 33.0566 55.1667 33.53 55.28L33.91 55.37C34.05 55.4033 34.2 55.4467 34.36 55.5C35.0733 55.7133 35.6333 55.9833 36.04 56.31C36.4533 56.6433 36.66 57.1233 36.66 57.75C36.66 58.49 36.3666 59.0667 35.78 59.48C35.1933 59.8933 34.4066 60.1 33.42 60.1ZM42.28 53.81C42.28 53.8567 42.2633 53.8967 42.23 53.93C42.1966 53.97 42.1533 53.99 42.1 53.99H40.66C40.6066 53.99 40.58 54.0133 40.58 54.06V57.24C40.58 57.5667 40.65 57.8133 40.79 57.98C40.9233 58.14 41.14 58.22 41.44 58.22H41.93C41.9833 58.22 42.0266 58.2367 42.06 58.27C42.0933 58.3033 42.11 58.3467 42.11 58.4V59.82C42.11 59.9333 42.05 59.9967 41.93 60.01C41.51 60.03 41.21 60.04 41.03 60.04C40.2033 60.04 39.5866 59.9033 39.18 59.63C38.7666 59.3567 38.5533 58.84 38.54 58.08V54.06C38.54 54.0133 38.5166 53.99 38.47 53.99H37.61C37.5633 53.99 37.5233 53.97 37.49 53.93C37.45 53.8967 37.43 53.8567 37.43 53.81V52.47C37.43 52.4233 37.45 52.38 37.49 52.34C37.5233 52.3067 37.5633 52.29 37.61 52.29H38.47C38.5166 52.29 38.54 52.2633 38.54 52.21V50.43C38.54 50.3833 38.56 50.34 38.6 50.3C38.6333 50.2667 38.6733 50.25 38.72 50.25H40.4C40.4533 50.25 40.4966 50.2667 40.53 50.3C40.5633 50.34 40.58 50.3833 40.58 50.43V52.21C40.58 52.2633 40.6066 52.29 40.66 52.29H42.1C42.1533 52.29 42.1966 52.3067 42.23 52.34C42.2633 52.38 42.28 52.4233 42.28 52.47V53.81ZM44.72 60.06C44.38 60.06 44.1 59.9467 43.88 59.72C43.6533 59.5 43.54 59.2167 43.54 58.87C43.54 58.5233 43.65 58.24 43.87 58.02C44.09 57.8 44.3733 57.69 44.72 57.69C45.0733 57.69 45.36 57.8 45.58 58.02C45.8 58.24 45.91 58.5233 45.91 58.87C45.91 59.2167 45.7966 59.5 45.57 59.72C45.3433 59.9467 45.06 60.06 44.72 60.06ZM56.5 60C56.4 60 56.33 59.9533 56.29 59.86L54.41 55.71C54.3966 55.67 54.3666 55.65 54.32 55.65H52.93C52.8766 55.65 52.85 55.6767 52.85 55.73V59.82C52.85 59.8733 52.8333 59.9167 52.8 59.95C52.7666 59.9833 52.7266 60 52.68 60H50.92C50.8666 60 50.8233 59.9833 50.79 59.95C50.7566 59.9167 50.74 59.8733 50.74 59.82V49.68C50.74 49.6333 50.7566 49.59 50.79 49.55C50.8233 49.5167 50.8666 49.5 50.92 49.5H55.21C55.85 49.5 56.4133 49.63 56.9 49.89C57.38 50.15 57.7533 50.52 58.02 51C58.2866 51.48 58.42 52.0367 58.42 52.67C58.42 53.35 58.25 53.93 57.91 54.41C57.57 54.8967 57.0966 55.24 56.49 55.44C56.4366 55.46 56.42 55.4933 56.44 55.54L58.48 59.79C58.5 59.83 58.51 59.86 58.51 59.88C58.51 59.96 58.4566 60 58.35 60H56.5ZM52.93 51.31C52.8766 51.31 52.85 51.3367 52.85 51.39V53.96C52.85 54.0067 52.8766 54.03 52.93 54.03H54.89C55.3166 54.03 55.66 53.9067 55.92 53.66C56.1866 53.4067 56.32 53.08 56.32 52.68C56.32 52.28 56.1866 51.9533 55.92 51.7C55.66 51.44 55.3166 51.31 54.89 51.31H52.93ZM63.68 60.16C62.9 60.16 62.2133 60 61.62 59.68C61.0266 59.3667 60.5666 58.92 60.24 58.34C59.9066 57.7667 59.74 57.1033 59.74 56.35V53.15C59.74 52.41 59.9066 51.7533 60.24 51.18C60.5666 50.6133 61.0266 50.17 61.62 49.85C62.2133 49.5367 62.9 49.38 63.68 49.38C64.4733 49.38 65.1666 49.5367 65.76 49.85C66.3533 50.17 66.8166 50.6133 67.15 51.18C67.4766 51.7533 67.64 52.41 67.64 53.15V56.35C67.64 57.1033 67.4766 57.77 67.15 58.35C66.8166 58.93 66.3533 59.3767 65.76 59.69C65.1666 60.0033 64.4733 60.16 63.68 60.16ZM63.68 58.35C64.2333 58.35 64.68 58.1767 65.02 57.83C65.36 57.4767 65.53 57.01 65.53 56.43V53.13C65.53 52.55 65.3633 52.0833 65.03 51.73C64.6966 51.3767 64.2466 51.2 63.68 51.2C63.1333 51.2 62.6933 51.3767 62.36 51.73C62.02 52.0833 61.85 52.55 61.85 53.13V56.43C61.85 57.01 62.02 57.4767 62.36 57.83C62.6933 58.1767 63.1333 58.35 63.68 58.35ZM69.44 60C69.3933 60 69.3533 59.9833 69.32 59.95C69.28 59.9167 69.26 59.8733 69.26 59.82V49.68C69.26 49.6333 69.28 49.59 69.32 49.55C69.3533 49.5167 69.3933 49.5 69.44 49.5H71.2C71.2466 49.5 71.29 49.5167 71.33 49.55C71.3633 49.59 71.38 49.6333 71.38 49.68V59.82C71.38 59.8733 71.3633 59.9167 71.33 59.95C71.29 59.9833 71.2466 60 71.2 60H69.44ZM38.17 39.53C38.11 39.5567 38.11 39.5867 38.17 39.62C39.1166 40.1067 39.59 40.92 39.59 42.06C39.59 43.0333 39.26 43.7667 38.6 44.26C37.94 44.7533 37.0766 45 36.01 45H32.12C32.0733 45 32.0333 44.9833 32 44.95C31.96 44.9167 31.94 44.8733 31.94 44.82V34.68C31.94 34.6333 31.96 34.59 32 34.55C32.0333 34.5167 32.0733 34.5 32.12 34.5H35.89C38.2566 34.5 39.44 35.46 39.44 37.38C39.44 38.38 39.0166 39.0967 38.17 39.53ZM34.13 36.31C34.0833 36.31 34.06 36.3367 34.06 36.39V38.73C34.06 38.7833 34.0833 38.81 34.13 38.81H35.89C36.3566 38.81 36.7233 38.7 36.99 38.48C37.2433 38.26 37.37 37.96 37.37 37.58C37.37 37.1867 37.2433 36.8767 36.99 36.65C36.7233 36.4233 36.3566 36.31 35.89 36.31H34.13ZM36.01 43.17C36.47 43.17 36.83 43.0533 37.09 42.82C37.35 42.5867 37.48 42.2633 37.48 41.85C37.48 41.4433 37.35 41.12 37.09 40.88C36.83 40.6467 36.4633 40.53 35.99 40.53H34.13C34.0833 40.53 34.06 40.5567 34.06 40.61V43.09C34.06 43.1433 34.0833 43.17 34.13 43.17H36.01ZM47.93 40.35C47.99 40.73 48.01 41.1533 47.99 41.62C47.9833 41.7467 47.92 41.81 47.8 41.81H43.16C43.1 41.81 43.08 41.8333 43.1 41.88C43.1333 42.08 43.19 42.28 43.27 42.48C43.53 43.04 44.06 43.32 44.86 43.32C45.5 43.3133 46.0033 43.0533 46.37 42.54C46.41 42.48 46.4566 42.45 46.51 42.45C46.5366 42.45 46.57 42.47 46.61 42.51L47.69 43.57C47.7433 43.6233 47.77 43.67 47.77 43.71C47.77 43.73 47.75 43.77 47.71 43.83C47.3766 44.2433 46.95 44.56 46.43 44.78C45.9166 45.0067 45.3466 45.12 44.72 45.12C43.86 45.12 43.1333 44.9267 42.54 44.54C41.9466 44.1467 41.52 43.6 41.26 42.9C41.0466 42.4 40.94 41.7467 40.94 40.94C40.94 40.3867 41.0166 39.9 41.17 39.48C41.3966 38.7733 41.8 38.21 42.38 37.79C42.9533 37.37 43.6333 37.16 44.42 37.16C45.42 37.16 46.2233 37.45 46.83 38.03C47.4366 38.61 47.8033 39.3833 47.93 40.35ZM44.44 38.99C43.8066 38.99 43.39 39.2833 43.19 39.87C43.15 40.0033 43.1166 40.1633 43.09 40.35C43.09 40.3967 43.1133 40.42 43.16 40.42H45.76C45.82 40.42 45.84 40.3967 45.82 40.35C45.7666 40.0633 45.74 39.9233 45.74 39.93C45.6533 39.63 45.4966 39.3967 45.27 39.23C45.0433 39.07 44.7666 38.99 44.44 38.99ZM52.27 45.1C51.5966 45.1 51.01 45.0067 50.51 44.82C50.01 44.6333 49.6233 44.37 49.35 44.03C49.0766 43.69 48.94 43.3033 48.94 42.87V42.72C48.94 42.6733 48.9566 42.63 48.99 42.59C49.0233 42.5567 49.0666 42.54 49.12 42.54H50.78C50.8333 42.54 50.8766 42.5567 50.91 42.59C50.9433 42.63 50.96 42.6733 50.96 42.72V42.73C50.96 42.9567 51.0833 43.1467 51.33 43.3C51.5766 43.4533 51.8833 43.53 52.25 43.53C52.59 43.53 52.8666 43.4633 53.08 43.33C53.2866 43.19 53.39 43.0233 53.39 42.83C53.39 42.65 53.3 42.5133 53.12 42.42C52.94 42.3333 52.6466 42.24 52.24 42.14C51.7666 42.02 51.3966 41.9033 51.13 41.79C50.49 41.57 49.98 41.3 49.6 40.98C49.22 40.66 49.03 40.2 49.03 39.6C49.03 38.86 49.3166 38.2733 49.89 37.84C50.4633 37.4067 51.2266 37.19 52.18 37.19C52.82 37.19 53.38 37.29 53.86 37.49C54.34 37.6967 54.7133 37.9867 54.98 38.36C55.24 38.7267 55.37 39.1467 55.37 39.62C55.37 39.6667 55.3533 39.7067 55.32 39.74C55.2866 39.7733 55.2433 39.79 55.19 39.79H53.59C53.5366 39.79 53.4933 39.7733 53.46 39.74C53.4266 39.7067 53.41 39.6667 53.41 39.62C53.41 39.4 53.2966 39.2133 53.07 39.06C52.8433 38.9067 52.5466 38.83 52.18 38.83C51.8466 38.83 51.5766 38.8933 51.37 39.02C51.1566 39.14 51.05 39.3033 51.05 39.51C51.05 39.71 51.1533 39.86 51.36 39.96C51.5666 40.06 51.91 40.1667 52.39 40.28C52.4966 40.3067 52.62 40.3367 52.76 40.37C52.9 40.4033 53.05 40.4467 53.21 40.5C53.9233 40.7133 54.4833 40.9833 54.89 41.31C55.3033 41.6433 55.51 42.1233 55.51 42.75C55.51 43.49 55.2166 44.0667 54.63 44.48C54.0433 44.8933 53.2566 45.1 52.27 45.1ZM61.13 38.81C61.13 38.8567 61.1133 38.8967 61.08 38.93C61.0466 38.97 61.0033 38.99 60.95 38.99H59.51C59.4633 38.99 59.44 39.0133 59.44 39.06V42.24C59.44 42.5667 59.5066 42.8133 59.64 42.98C59.7733 43.14 59.9933 43.22 60.3 43.22H60.79C60.8366 43.22 60.88 43.2367 60.92 43.27C60.9533 43.3033 60.97 43.3467 60.97 43.4V44.82C60.97 44.9333 60.91 44.9967 60.79 45.01C60.37 45.03 60.07 45.04 59.89 45.04C59.0566 45.04 58.4366 44.9033 58.03 44.63C57.6166 44.3567 57.4066 43.84 57.4 43.08V39.06C57.4 39.0133 57.3733 38.99 57.32 38.99H56.47C56.4166 38.99 56.3733 38.97 56.34 38.93C56.3066 38.8967 56.29 38.8567 56.29 38.81V37.47C56.29 37.4233 56.3066 37.38 56.34 37.34C56.3733 37.3067 56.4166 37.29 56.47 37.29H57.32C57.3733 37.29 57.4 37.2633 57.4 37.21V35.43C57.4 35.3833 57.4166 35.34 57.45 35.3C57.4833 35.2667 57.5266 35.25 57.58 35.25H59.26C59.3066 35.25 59.35 35.2667 59.39 35.3C59.4233 35.34 59.44 35.3833 59.44 35.43V37.21C59.44 37.2633 59.4633 37.29 59.51 37.29H60.95C61.0033 37.29 61.0466 37.3067 61.08 37.34C61.1133 37.38 61.13 37.4233 61.13 37.47V38.81Z" fill="#252530"/>
<path d="M16.9001 75.48C16.3801 75.48 15.9267 75.3967 15.5401 75.23C15.1534 75.0633 14.8534 74.83 14.6401 74.53C14.4334 74.23 14.3301 73.8767 14.3301 73.47V73.22C14.3301 73.1867 14.3434 73.1566 14.3701 73.13C14.3901 73.11 14.4167 73.1 14.4501 73.1H15.3401C15.3734 73.1 15.4034 73.11 15.4301 73.13C15.4501 73.1566 15.4601 73.1867 15.4601 73.22V73.41C15.4601 73.7167 15.5967 73.97 15.8701 74.17C16.1434 74.3766 16.5167 74.48 16.9901 74.48C17.3967 74.48 17.7034 74.3933 17.9101 74.22C18.1167 74.0467 18.2201 73.8233 18.2201 73.55C18.2201 73.3633 18.1634 73.2033 18.0501 73.07C17.9367 72.9433 17.7767 72.8267 17.5701 72.72C17.3567 72.6133 17.0401 72.48 16.6201 72.32C16.1467 72.1467 15.7634 71.9833 15.4701 71.83C15.1767 71.6767 14.9334 71.4666 14.7401 71.2C14.5401 70.94 14.4401 70.6133 14.4401 70.22C14.4401 69.6333 14.6534 69.17 15.0801 68.83C15.5067 68.49 16.0767 68.32 16.7901 68.32C17.2901 68.32 17.7334 68.4067 18.1201 68.58C18.5001 68.7533 18.7967 68.9966 19.0101 69.31C19.2234 69.6166 19.3301 69.9733 19.3301 70.38V70.55C19.3301 70.5833 19.3167 70.6133 19.2901 70.64C19.2701 70.66 19.2434 70.67 19.2101 70.67H18.3101C18.2767 70.67 18.2501 70.66 18.2301 70.64C18.2034 70.6133 18.1901 70.5833 18.1901 70.55V70.44C18.1901 70.1267 18.0634 69.8633 17.8101 69.65C17.5501 69.43 17.1934 69.32 16.7401 69.32C16.3734 69.32 16.0901 69.3967 15.8901 69.55C15.6834 69.7033 15.5801 69.92 15.5801 70.2C15.5801 70.4 15.6334 70.5633 15.7401 70.69C15.8467 70.8167 16.0067 70.93 16.2201 71.03C16.4334 71.1367 16.7634 71.27 17.2101 71.43C17.6834 71.61 18.0634 71.7733 18.3501 71.92C18.6301 72.0666 18.8734 72.27 19.0801 72.53C19.2801 72.7967 19.3801 73.1266 19.3801 73.52C19.3801 74.12 19.1567 74.5966 18.7101 74.95C18.2701 75.3033 17.6667 75.48 16.9001 75.48ZM25.9101 70.21C26.4234 70.21 26.8267 70.3633 27.1201 70.67C27.4067 70.9833 27.5501 71.4167 27.5501 71.97V75.28C27.5501 75.3133 27.5401 75.34 27.5201 75.36C27.4934 75.3867 27.4634 75.4 27.4301 75.4H26.5201C26.4867 75.4 26.4601 75.3867 26.4401 75.36C26.4134 75.34 26.4001 75.3133 26.4001 75.28V72.21C26.4001 71.9033 26.3201 71.66 26.1601 71.48C25.9934 71.3 25.7734 71.21 25.5001 71.21C25.2267 71.21 25.0034 71.3 24.8301 71.48C24.6567 71.66 24.5701 71.9 24.5701 72.2V75.28C24.5701 75.3133 24.5601 75.34 24.5401 75.36C24.5134 75.3867 24.4834 75.4 24.4501 75.4H23.5401C23.5067 75.4 23.4767 75.3867 23.4501 75.36C23.4301 75.34 23.4201 75.3133 23.4201 75.28V72.21C23.4201 71.9033 23.3367 71.66 23.1701 71.48C23.0034 71.3 22.7834 71.21 22.5101 71.21C22.2567 71.21 22.0467 71.2833 21.8801 71.43C21.7201 71.5767 21.6267 71.7767 21.6001 72.03V75.28C21.6001 75.3133 21.5901 75.34 21.5701 75.36C21.5434 75.3867 21.5134 75.4 21.4801 75.4H20.5601C20.5267 75.4 20.5001 75.3867 20.4801 75.36C20.4534 75.34 20.4401 75.3133 20.4401 75.28V70.41C20.4401 70.3767 20.4534 70.3467 20.4801 70.32C20.5001 70.3 20.5267 70.29 20.5601 70.29H21.4801C21.5134 70.29 21.5434 70.3 21.5701 70.32C21.5901 70.3467 21.6001 70.3767 21.6001 70.41V70.74C21.6001 70.76 21.6067 70.7733 21.6201 70.78C21.6334 70.7867 21.6467 70.78 21.6601 70.76C21.8067 70.5733 21.9867 70.4366 22.2001 70.35C22.4201 70.2566 22.6634 70.21 22.9301 70.21C23.2567 70.21 23.5434 70.2767 23.7901 70.41C24.0367 70.5433 24.2267 70.7366 24.3601 70.99C24.3801 71.0166 24.4034 71.0166 24.4301 70.99C24.5767 70.7233 24.7801 70.5267 25.0401 70.4C25.3001 70.2733 25.5901 70.21 25.9101 70.21ZM30.6801 70.21C31.1001 70.21 31.4701 70.2833 31.7901 70.43C32.1101 70.5767 32.3567 70.7767 32.5301 71.03C32.7034 71.29 32.7901 71.5833 32.7901 71.91V75.28C32.7901 75.3133 32.7801 75.34 32.7601 75.36C32.7334 75.3867 32.7034 75.4 32.6701 75.4H31.7501C31.7167 75.4 31.6901 75.3867 31.6701 75.36C31.6434 75.34 31.6301 75.3133 31.6301 75.28V74.96C31.6301 74.94 31.6234 74.9266 31.6101 74.92C31.5967 74.92 31.5834 74.9267 31.5701 74.94C31.2434 75.3 30.7701 75.48 30.1501 75.48C29.6501 75.48 29.2401 75.3533 28.9201 75.1C28.5934 74.8466 28.4301 74.47 28.4301 73.97C28.4301 73.45 28.6134 73.0433 28.9801 72.75C29.3401 72.4633 29.8501 72.32 30.5101 72.32H31.5801C31.6134 72.32 31.6301 72.3033 31.6301 72.27V72.03C31.6301 71.77 31.5534 71.5666 31.4001 71.42C31.2467 71.28 31.0167 71.21 30.7101 71.21C30.4567 71.21 30.2534 71.2566 30.1001 71.35C29.9401 71.4366 29.8401 71.56 29.8001 71.72C29.7801 71.8 29.7334 71.8333 29.6601 71.82L28.6901 71.7C28.6567 71.6933 28.6301 71.6833 28.6101 71.67C28.5834 71.65 28.5734 71.6266 28.5801 71.6C28.6334 71.1933 28.8534 70.86 29.2401 70.6C29.6201 70.34 30.1001 70.21 30.6801 70.21ZM30.4401 74.56C30.7667 74.56 31.0467 74.4733 31.2801 74.3C31.5134 74.1267 31.6301 73.9067 31.6301 73.64V73.17C31.6301 73.1366 31.6134 73.12 31.5801 73.12H30.7401C30.3867 73.12 30.1101 73.1867 29.9101 73.32C29.7034 73.4533 29.6001 73.6433 29.6001 73.89C29.6001 74.1033 29.6801 74.2666 29.8401 74.38C29.9934 74.5 30.1934 74.56 30.4401 74.56ZM34.0701 75.4C34.0367 75.4 34.0101 75.3867 33.9901 75.36C33.9634 75.34 33.9501 75.3133 33.9501 75.28V68.52C33.9501 68.4866 33.9634 68.46 33.9901 68.44C34.0101 68.4133 34.0367 68.4 34.0701 68.4H34.9901C35.0234 68.4 35.0534 68.4133 35.0801 68.44C35.1001 68.46 35.1101 68.4866 35.1101 68.52V75.28C35.1101 75.3133 35.1001 75.34 35.0801 75.36C35.0534 75.3867 35.0234 75.4 34.9901 75.4H34.0701ZM36.4601 75.4C36.4267 75.4 36.4001 75.3867 36.3801 75.36C36.3534 75.34 36.3401 75.3133 36.3401 75.28V68.52C36.3401 68.4866 36.3534 68.46 36.3801 68.44C36.4001 68.4133 36.4267 68.4 36.4601 68.4H37.3801C37.4134 68.4 37.4434 68.4133 37.4701 68.44C37.4901 68.46 37.5001 68.4866 37.5001 68.52V75.28C37.5001 75.3133 37.4901 75.34 37.4701 75.36C37.4434 75.3867 37.4134 75.4 37.3801 75.4H36.4601ZM44.7501 71.75C44.7101 71.77 44.7101 71.79 44.7501 71.81C45.4301 72.13 45.7701 72.68 45.7701 73.46C45.7701 74.0933 45.5601 74.5767 45.1401 74.91C44.7134 75.2367 44.1601 75.4 43.4801 75.4H40.9601C40.9267 75.4 40.9001 75.3867 40.8801 75.36C40.8534 75.34 40.8401 75.3133 40.8401 75.28V68.52C40.8401 68.4866 40.8534 68.46 40.8801 68.44C40.9001 68.4133 40.9267 68.4 40.9601 68.4H43.4001C44.1267 68.4 44.6867 68.5567 45.0801 68.87C45.4734 69.1833 45.6701 69.6567 45.6701 70.29C45.6701 70.99 45.3634 71.4767 44.7501 71.75ZM42.0501 69.4C42.0167 69.4 42.0001 69.4166 42.0001 69.45V71.3C42.0001 71.3333 42.0167 71.35 42.0501 71.35H43.4001C43.7534 71.35 44.0334 71.2666 44.2401 71.1C44.4401 70.9266 44.5401 70.69 44.5401 70.39C44.5401 70.0833 44.4401 69.84 44.2401 69.66C44.0334 69.4867 43.7534 69.4 43.4001 69.4H42.0501ZM43.4801 74.39C43.8267 74.39 44.1034 74.2967 44.3101 74.11C44.5101 73.9233 44.6101 73.67 44.6101 73.35C44.6101 73.0233 44.5067 72.77 44.3001 72.59C44.0934 72.4033 43.8134 72.31 43.4601 72.31H42.0501C42.0167 72.31 42.0001 72.3267 42.0001 72.36V74.34C42.0001 74.3733 42.0167 74.39 42.0501 74.39H43.4801ZM49.8801 70.41C49.8801 70.3767 49.8901 70.3467 49.9101 70.32C49.9367 70.3 49.9667 70.29 50.0001 70.29H50.9101C50.9434 70.29 50.9734 70.3 51.0001 70.32C51.0201 70.3467 51.0301 70.3767 51.0301 70.41V75.28C51.0301 75.3133 51.0201 75.34 51.0001 75.36C50.9734 75.3867 50.9434 75.4 50.9101 75.4H50.0001C49.9667 75.4 49.9367 75.3867 49.9101 75.36C49.8901 75.34 49.8801 75.3133 49.8801 75.28V74.96C49.8801 74.94 49.8734 74.9266 49.8601 74.92C49.8467 74.9133 49.8334 74.92 49.8201 74.94C49.5467 75.2933 49.1367 75.47 48.5901 75.47C48.0834 75.47 47.6601 75.3233 47.3201 75.03C46.9734 74.7367 46.8001 74.32 46.8001 73.78V70.41C46.8001 70.3767 46.8101 70.3467 46.8301 70.32C46.8567 70.3 46.8867 70.29 46.9201 70.29H47.8401C47.8734 70.29 47.9034 70.3 47.9301 70.32C47.9501 70.3467 47.9601 70.3767 47.9601 70.41V73.45C47.9601 73.7633 48.0434 74.0133 48.2101 74.2C48.3701 74.3866 48.5967 74.48 48.8901 74.48C49.1901 74.48 49.4301 74.3866 49.6101 74.2C49.7901 74.0133 49.8801 73.7633 49.8801 73.45V70.41ZM54.1701 75.46C53.7501 75.46 53.3801 75.3966 53.0601 75.27C52.7467 75.15 52.5034 74.98 52.3301 74.76C52.1567 74.5467 52.0701 74.3067 52.0701 74.04V73.95C52.0701 73.9166 52.0801 73.8867 52.1001 73.86C52.1267 73.84 52.1567 73.83 52.1901 73.83H53.0701C53.1034 73.83 53.1301 73.84 53.1501 73.86C53.1767 73.8867 53.1901 73.9166 53.1901 73.95V73.97C53.1901 74.1367 53.2801 74.2833 53.4601 74.41C53.6467 74.53 53.8801 74.59 54.1601 74.59C54.4267 74.59 54.6434 74.5367 54.8101 74.43C54.9767 74.3167 55.0601 74.1767 55.0601 74.01C55.0601 73.8567 54.9901 73.74 54.8501 73.66C54.7167 73.5867 54.4967 73.5066 54.1901 73.42L53.8101 73.3C53.4701 73.2 53.1834 73.0933 52.9501 72.98C52.7167 72.8667 52.5201 72.71 52.3601 72.51C52.2001 72.3167 52.1201 72.0667 52.1201 71.76C52.1201 71.2933 52.3034 70.9233 52.6701 70.65C53.0367 70.37 53.5201 70.23 54.1201 70.23C54.5267 70.23 54.8834 70.2933 55.1901 70.42C55.4967 70.5533 55.7334 70.7333 55.9001 70.96C56.0667 71.1933 56.1501 71.4567 56.1501 71.75C56.1501 71.7833 56.1367 71.8133 56.1101 71.84C56.0901 71.86 56.0634 71.87 56.0301 71.87H55.1801C55.1467 71.87 55.1167 71.86 55.0901 71.84C55.0701 71.8133 55.0601 71.7833 55.0601 71.75C55.0601 71.5767 54.9734 71.4333 54.8001 71.32C54.6334 71.2 54.4034 71.14 54.1101 71.14C53.8501 71.14 53.6367 71.1867 53.4701 71.28C53.3101 71.38 53.2301 71.5167 53.2301 71.69C53.2301 71.85 53.3067 71.97 53.4601 72.05C53.6201 72.1367 53.8834 72.23 54.2501 72.33L54.4701 72.39C54.8234 72.4967 55.1201 72.6033 55.3601 72.71C55.6001 72.8233 55.8034 72.9766 55.9701 73.17C56.1367 73.37 56.2201 73.6267 56.2201 73.94C56.2201 74.4133 56.0334 74.7833 55.6601 75.05C55.2867 75.3233 54.7901 75.46 54.1701 75.46ZM57.8601 69.59C57.6534 69.59 57.4834 69.5233 57.3501 69.39C57.2167 69.2567 57.1501 69.0866 57.1501 68.88C57.1501 68.6733 57.2167 68.5033 57.3501 68.37C57.4834 68.2367 57.6534 68.17 57.8601 68.17C58.0667 68.17 58.2367 68.2367 58.3701 68.37C58.5034 68.5033 58.5701 68.6733 58.5701 68.88C58.5701 69.0866 58.5034 69.2567 58.3701 69.39C58.2367 69.5233 58.0667 69.59 57.8601 69.59ZM57.3801 75.4C57.3467 75.4 57.3167 75.3867 57.2901 75.36C57.2701 75.34 57.2601 75.3133 57.2601 75.28V70.4C57.2601 70.3667 57.2701 70.34 57.2901 70.32C57.3167 70.2933 57.3467 70.28 57.3801 70.28H58.3001C58.3334 70.28 58.3601 70.2933 58.3801 70.32C58.4067 70.34 58.4201 70.3667 58.4201 70.4V75.28C58.4201 75.3133 58.4067 75.34 58.3801 75.36C58.3601 75.3867 58.3334 75.4 58.3001 75.4H57.3801ZM62.2001 70.21C62.7401 70.21 63.1701 70.37 63.4901 70.69C63.8167 71.01 63.9801 71.4467 63.9801 72V75.28C63.9801 75.3133 63.9667 75.34 63.9401 75.36C63.9201 75.3867 63.8934 75.4 63.8601 75.4H62.9401C62.9067 75.4 62.8767 75.3867 62.8501 75.36C62.8301 75.34 62.8201 75.3133 62.8201 75.28V72.24C62.8201 71.9333 62.7334 71.6833 62.5601 71.49C62.3867 71.3033 62.1567 71.21 61.8701 71.21C61.5834 71.21 61.3501 71.3033 61.1701 71.49C60.9967 71.6766 60.9101 71.9233 60.9101 72.23V75.28C60.9101 75.3133 60.8967 75.34 60.8701 75.36C60.8501 75.3867 60.8234 75.4 60.7901 75.4H59.8701C59.8367 75.4 59.8067 75.3867 59.7801 75.36C59.7601 75.34 59.7501 75.3133 59.7501 75.28V70.41C59.7501 70.3767 59.7601 70.3467 59.7801 70.32C59.8067 70.3 59.8367 70.29 59.8701 70.29H60.7901C60.8234 70.29 60.8501 70.3 60.8701 70.32C60.8967 70.3467 60.9101 70.3767 60.9101 70.41V70.73C60.9101 70.75 60.9167 70.7633 60.9301 70.77C60.9434 70.7766 60.9534 70.77 60.9601 70.75C61.2334 70.39 61.6467 70.21 62.2001 70.21ZM69.4601 72.27C69.4867 72.4366 69.5001 72.6233 69.5001 72.83L69.4901 73.14C69.4901 73.22 69.4501 73.26 69.3701 73.26H66.2401C66.2067 73.26 66.1901 73.2766 66.1901 73.31C66.2101 73.53 66.2401 73.68 66.2801 73.76C66.4401 74.24 66.8301 74.4833 67.4501 74.49C67.9034 74.49 68.2634 74.3033 68.5301 73.93C68.5567 73.89 68.5901 73.87 68.6301 73.87C68.6567 73.87 68.6801 73.88 68.7001 73.9L69.3201 74.41C69.3801 74.4567 69.3901 74.51 69.3501 74.57C69.1434 74.8633 68.8667 75.09 68.5201 75.25C68.1801 75.41 67.8001 75.49 67.3801 75.49C66.8601 75.49 66.4167 75.3733 66.0501 75.14C65.6901 74.9067 65.4267 74.58 65.2601 74.16C65.1067 73.8 65.0301 73.3 65.0301 72.66C65.0301 72.2733 65.0701 71.96 65.1501 71.72C65.2834 71.2533 65.5334 70.8833 65.9001 70.61C66.2734 70.3433 66.7201 70.21 67.2401 70.21C68.5534 70.21 69.2934 70.8966 69.4601 72.27ZM67.2401 71.21C66.9934 71.21 66.7867 71.2733 66.6201 71.4C66.4601 71.52 66.3467 71.69 66.2801 71.91C66.2401 72.0233 66.2134 72.17 66.2001 72.35C66.1867 72.3833 66.2001 72.4 66.2401 72.4H68.2701C68.3034 72.4 68.3201 72.3833 68.3201 72.35C68.3067 72.1833 68.2867 72.0567 68.2601 71.97C68.2001 71.73 68.0801 71.5433 67.9001 71.41C67.7267 71.2767 67.5067 71.21 67.2401 71.21ZM72.3801 75.46C71.9601 75.46 71.5901 75.3966 71.2701 75.27C70.9567 75.15 70.7134 74.98 70.5401 74.76C70.3667 74.5467 70.2801 74.3067 70.2801 74.04V73.95C70.2801 73.9166 70.2901 73.8867 70.3101 73.86C70.3367 73.84 70.3667 73.83 70.4001 73.83H71.2801C71.3134 73.83 71.3401 73.84 71.3601 73.86C71.3867 73.8867 71.4001 73.9166 71.4001 73.95V73.97C71.4001 74.1367 71.4901 74.2833 71.6701 74.41C71.8567 74.53 72.0901 74.59 72.3701 74.59C72.6367 74.59 72.8534 74.5367 73.0201 74.43C73.1867 74.3167 73.2701 74.1767 73.2701 74.01C73.2701 73.8567 73.2001 73.74 73.0601 73.66C72.9267 73.5867 72.7067 73.5066 72.4001 73.42L72.0201 73.3C71.6801 73.2 71.3934 73.0933 71.1601 72.98C70.9267 72.8667 70.7301 72.71 70.5701 72.51C70.4101 72.3167 70.3301 72.0667 70.3301 71.76C70.3301 71.2933 70.5134 70.9233 70.8801 70.65C71.2467 70.37 71.7301 70.23 72.3301 70.23C72.7367 70.23 73.0934 70.2933 73.4001 70.42C73.7067 70.5533 73.9434 70.7333 74.1101 70.96C74.2767 71.1933 74.3601 71.4567 74.3601 71.75C74.3601 71.7833 74.3467 71.8133 74.3201 71.84C74.3001 71.86 74.2734 71.87 74.2401 71.87H73.3901C73.3567 71.87 73.3267 71.86 73.3001 71.84C73.2801 71.8133 73.2701 71.7833 73.2701 71.75C73.2701 71.5767 73.1834 71.4333 73.0101 71.32C72.8434 71.2 72.6134 71.14 72.3201 71.14C72.0601 71.14 71.8467 71.1867 71.6801 71.28C71.5201 71.38 71.4401 71.5167 71.4401 71.69C71.4401 71.85 71.5167 71.97 71.6701 72.05C71.8301 72.1367 72.0934 72.23 72.4601 72.33L72.6801 72.39C73.0334 72.4967 73.3301 72.6033 73.5701 72.71C73.8101 72.8233 74.0134 72.9766 74.1801 73.17C74.3467 73.37 74.4301 73.6267 74.4301 73.94C74.4301 74.4133 74.2434 74.7833 73.8701 75.05C73.4967 75.3233 73.0001 75.46 72.3801 75.46ZM77.2101 75.46C76.7901 75.46 76.4201 75.3966 76.1001 75.27C75.7867 75.15 75.5434 74.98 75.3701 74.76C75.1967 74.5467 75.1101 74.3067 75.1101 74.04V73.95C75.1101 73.9166 75.1201 73.8867 75.1401 73.86C75.1667 73.84 75.1967 73.83 75.2301 73.83H76.1101C76.1434 73.83 76.1701 73.84 76.1901 73.86C76.2167 73.8867 76.2301 73.9166 76.2301 73.95V73.97C76.2301 74.1367 76.3201 74.2833 76.5001 74.41C76.6867 74.53 76.9201 74.59 77.2001 74.59C77.4667 74.59 77.6834 74.5367 77.8501 74.43C78.0167 74.3167 78.1001 74.1767 78.1001 74.01C78.1001 73.8567 78.0301 73.74 77.8901 73.66C77.7567 73.5867 77.5367 73.5066 77.2301 73.42L76.8501 73.3C76.5101 73.2 76.2234 73.0933 75.9901 72.98C75.7567 72.8667 75.5601 72.71 75.4001 72.51C75.2401 72.3167 75.1601 72.0667 75.1601 71.76C75.1601 71.2933 75.3434 70.9233 75.7101 70.65C76.0767 70.37 76.5601 70.23 77.1601 70.23C77.5667 70.23 77.9234 70.2933 78.2301 70.42C78.5367 70.5533 78.7734 70.7333 78.9401 70.96C79.1067 71.1933 79.1901 71.4567 79.1901 71.75C79.1901 71.7833 79.1767 71.8133 79.1501 71.84C79.1301 71.86 79.1034 71.87 79.0701 71.87H78.2201C78.1867 71.87 78.1567 71.86 78.1301 71.84C78.1101 71.8133 78.1001 71.7833 78.1001 71.75C78.1001 71.5767 78.0134 71.4333 77.8401 71.32C77.6734 71.2 77.4434 71.14 77.1501 71.14C76.8901 71.14 76.6767 71.1867 76.5101 71.28C76.3501 71.38 76.2701 71.5167 76.2701 71.69C76.2701 71.85 76.3467 71.97 76.5001 72.05C76.6601 72.1367 76.9234 72.23 77.2901 72.33L77.5101 72.39C77.8634 72.4967 78.1601 72.6033 78.4001 72.71C78.6401 72.8233 78.8434 72.9766 79.0101 73.17C79.1767 73.37 79.2601 73.6267 79.2601 73.94C79.2601 74.4133 79.0734 74.7833 78.7001 75.05C78.3267 75.3233 77.8301 75.46 77.2101 75.46Z" fill="white"/>
<path d="M31.16 89.5C31.0867 89.5 31.04 89.4667 31.02 89.4L29.25 82.63L29.24 82.59C29.24 82.53 29.2767 82.5 29.35 82.5H30.59C30.6567 82.5 30.7 82.5333 30.72 82.6L31.67 86.67C31.6767 86.6967 31.6867 86.71 31.7 86.71C31.7133 86.71 31.7233 86.6967 31.73 86.67L32.65 82.61C32.67 82.5367 32.7133 82.5 32.78 82.5H33.99C34.0633 82.5 34.11 82.5333 34.13 82.6L35.13 86.67C35.1367 86.69 35.1467 86.7033 35.16 86.71C35.1733 86.71 35.1833 86.6967 35.19 86.67L36.11 82.61C36.13 82.5367 36.1733 82.5 36.24 82.5H37.42C37.5133 82.5 37.55 82.5433 37.53 82.63L35.89 89.4C35.87 89.4667 35.8233 89.5 35.75 89.5H34.56C34.4933 89.5 34.45 89.4667 34.43 89.4L33.41 85.07C33.4033 85.0433 33.3933 85.03 33.38 85.03C33.3667 85.03 33.3567 85.0433 33.35 85.07L32.4 89.39C32.3867 89.4633 32.3433 89.5 32.27 89.5H31.16ZM38.5 89.5C38.4667 89.5 38.4367 89.4867 38.41 89.46C38.39 89.44 38.38 89.4133 38.38 89.38V82.62C38.38 82.5867 38.39 82.56 38.41 82.54C38.4367 82.5133 38.4667 82.5 38.5 82.5H39.67C39.7033 82.5 39.73 82.5133 39.75 82.54C39.7767 82.56 39.79 82.5867 39.79 82.62V89.38C39.79 89.4133 39.7767 89.44 39.75 89.46C39.73 89.4867 39.7033 89.5 39.67 89.5H38.5ZM45.03 82.62C45.03 82.5867 45.04 82.56 45.06 82.54C45.0867 82.5133 45.1167 82.5 45.15 82.5H46.32C46.3533 82.5 46.38 82.5133 46.4 82.54C46.4267 82.56 46.44 82.5867 46.44 82.62V89.38C46.44 89.4133 46.4267 89.44 46.4 89.46C46.38 89.4867 46.3533 89.5 46.32 89.5H45.19C45.1233 89.5 45.0767 89.4733 45.05 89.42L42.46 85.14C42.4467 85.12 42.4333 85.1133 42.42 85.12C42.4067 85.12 42.4 85.1333 42.4 85.16L42.42 89.38C42.42 89.4133 42.4067 89.44 42.38 89.46C42.36 89.4867 42.3333 89.5 42.3 89.5H41.13C41.0967 89.5 41.0667 89.4867 41.04 89.46C41.02 89.44 41.01 89.4133 41.01 89.38V82.62C41.01 82.5867 41.02 82.56 41.04 82.54C41.0667 82.5133 41.0967 82.5 41.13 82.5H42.26C42.3267 82.5 42.3733 82.5267 42.4 82.58L44.98 86.84C44.9933 86.86 45.0067 86.8667 45.02 86.86C45.0333 86.86 45.04 86.8467 45.04 86.82L45.03 82.62ZM52.49 82.5C52.5233 82.5 52.55 82.5133 52.57 82.54C52.5967 82.56 52.61 82.5867 52.61 82.62V83.6C52.61 83.6333 52.5967 83.66 52.57 83.68C52.55 83.7067 52.5233 83.72 52.49 83.72H50.7C50.6667 83.72 50.65 83.7367 50.65 83.77V89.38C50.65 89.4133 50.6367 89.44 50.61 89.46C50.59 89.4867 50.5633 89.5 50.53 89.5H49.36C49.3267 89.5 49.2967 89.4867 49.27 89.46C49.25 89.44 49.24 89.4133 49.24 89.38V83.77C49.24 83.7367 49.2233 83.72 49.19 83.72H47.45C47.4167 83.72 47.3867 83.7067 47.36 83.68C47.34 83.66 47.33 83.6333 47.33 83.6V82.62C47.33 82.5867 47.34 82.56 47.36 82.54C47.3867 82.5133 47.4167 82.5 47.45 82.5H52.49ZM58.37 83.59C58.37 83.6233 58.36 83.65 58.34 83.67C58.3133 83.6967 58.2833 83.71 58.25 83.71H54.97C54.9367 83.71 54.92 83.7267 54.92 83.76V85.31C54.92 85.3433 54.9367 85.36 54.97 85.36H57.12C57.1533 85.36 57.18 85.37 57.2 85.39C57.2267 85.4167 57.24 85.4467 57.24 85.48V86.45C57.24 86.4833 57.2267 86.5133 57.2 86.54C57.18 86.56 57.1533 86.57 57.12 86.57H54.97C54.9367 86.57 54.92 86.5867 54.92 86.62V88.24C54.92 88.2733 54.9367 88.29 54.97 88.29H58.25C58.2833 88.29 58.3133 88.3 58.34 88.32C58.36 88.3467 58.37 88.3767 58.37 88.41V89.38C58.37 89.4133 58.36 89.44 58.34 89.46C58.3133 89.4867 58.2833 89.5 58.25 89.5H53.63C53.5967 89.5 53.5667 89.4867 53.54 89.46C53.52 89.44 53.51 89.4133 53.51 89.38V82.62C53.51 82.5867 53.52 82.56 53.54 82.54C53.5667 82.5133 53.5967 82.5 53.63 82.5H58.25C58.2833 82.5 58.3133 82.5133 58.34 82.54C58.36 82.56 58.37 82.5867 58.37 82.62V83.59ZM63.19 89.5C63.1233 89.5 63.0767 89.47 63.05 89.41L61.8 86.64C61.7867 86.6133 61.7667 86.6 61.74 86.6H60.81C60.7767 86.6 60.76 86.6167 60.76 86.65V89.38C60.76 89.4133 60.7467 89.44 60.72 89.46C60.7 89.4867 60.6733 89.5 60.64 89.5H59.47C59.4367 89.5 59.4067 89.4867 59.38 89.46C59.36 89.44 59.35 89.4133 59.35 89.38V82.62C59.35 82.5867 59.36 82.56 59.38 82.54C59.4067 82.5133 59.4367 82.5 59.47 82.5H62.33C62.7567 82.5 63.13 82.5867 63.45 82.76C63.7767 82.9333 64.0267 83.18 64.2 83.5C64.38 83.82 64.47 84.19 64.47 84.61C64.47 85.0633 64.3567 85.45 64.13 85.77C63.9033 86.0967 63.5867 86.3267 63.18 86.46C63.1467 86.4733 63.1367 86.4967 63.15 86.53L64.51 89.36C64.5233 89.3867 64.53 89.4067 64.53 89.42C64.53 89.4733 64.4933 89.5 64.42 89.5H63.19ZM60.81 83.71C60.7767 83.71 60.76 83.7267 60.76 83.76V85.47C60.76 85.5033 60.7767 85.52 60.81 85.52H62.12C62.4 85.52 62.6267 85.4367 62.8 85.27C62.98 85.1033 63.07 84.8867 63.07 84.62C63.07 84.3533 62.98 84.1333 62.8 83.96C62.6267 83.7933 62.4 83.71 62.12 83.71H60.81ZM37.68 97.63C37.6667 97.6433 37.6633 97.6567 37.67 97.67C37.6767 97.6833 37.69 97.69 37.71 97.69H40.42C40.4533 97.69 40.4833 97.7 40.51 97.72C40.53 97.7467 40.54 97.7767 40.54 97.81V98.78C40.54 98.8133 40.53 98.84 40.51 98.86C40.4833 98.8867 40.4533 98.9 40.42 98.9H35.92C35.8867 98.9 35.8567 98.8867 35.83 98.86C35.81 98.84 35.8 98.8133 35.8 98.78V97.86C35.8 97.8 35.82 97.75 35.86 97.71C36.1867 97.39 36.52 97.0433 36.86 96.67C37.2 96.29 37.4133 96.0533 37.5 95.96C37.6867 95.74 37.8767 95.53 38.07 95.33C38.6767 94.6567 38.98 94.1567 38.98 93.83C38.98 93.5967 38.8967 93.4033 38.73 93.25C38.5633 93.1033 38.3467 93.03 38.08 93.03C37.8133 93.03 37.5967 93.1033 37.43 93.25C37.2633 93.4033 37.18 93.6033 37.18 93.85V94.1C37.18 94.1333 37.1667 94.1633 37.14 94.19C37.12 94.21 37.0933 94.22 37.06 94.22H35.88C35.8467 94.22 35.82 94.21 35.8 94.19C35.7733 94.1633 35.76 94.1333 35.76 94.1V93.63C35.78 93.27 35.8933 92.95 36.1 92.67C36.3067 92.3967 36.58 92.1867 36.92 92.04C37.2667 91.8933 37.6533 91.82 38.08 91.82C38.5533 91.82 38.9667 91.9067 39.32 92.08C39.6667 92.26 39.9367 92.5 40.13 92.8C40.3167 93.1 40.41 93.4333 40.41 93.8C40.41 94.08 40.34 94.3667 40.2 94.66C40.06 94.9533 39.85 95.27 39.57 95.61C39.3633 95.87 39.14 96.1267 38.9 96.38C38.66 96.6333 38.3033 97 37.83 97.48L37.68 97.63ZM43.79 99.01C43.0567 99.01 42.4767 98.8033 42.05 98.39C41.6233 97.9833 41.41 97.4267 41.41 96.72V94.08C41.41 93.3867 41.6233 92.8367 42.05 92.43C42.4767 92.0233 43.0567 91.82 43.79 91.82C44.5233 91.82 45.1067 92.0233 45.54 92.43C45.9667 92.8367 46.18 93.3867 46.18 94.08V96.72C46.18 97.4267 45.9667 97.9833 45.54 98.39C45.1067 98.8033 44.5233 99.01 43.79 99.01ZM43.79 97.8C44.09 97.8 44.33 97.7067 44.51 97.52C44.6833 97.34 44.77 97.0967 44.77 96.79V94.04C44.77 93.7333 44.6833 93.49 44.51 93.31C44.33 93.1233 44.09 93.03 43.79 93.03C43.4967 93.03 43.2633 93.1233 43.09 93.31C42.91 93.49 42.82 93.7333 42.82 94.04V96.79C42.82 97.0967 42.91 97.34 43.09 97.52C43.2633 97.7067 43.4967 97.8 43.79 97.8ZM48.98 97.63C48.9667 97.6433 48.9633 97.6567 48.97 97.67C48.9767 97.6833 48.99 97.69 49.01 97.69H51.72C51.7533 97.69 51.7833 97.7 51.81 97.72C51.83 97.7467 51.84 97.7767 51.84 97.81V98.78C51.84 98.8133 51.83 98.84 51.81 98.86C51.7833 98.8867 51.7533 98.9 51.72 98.9H47.22C47.1867 98.9 47.16 98.8867 47.14 98.86C47.1133 98.84 47.1 98.8133 47.1 98.78V97.86C47.1 97.8 47.12 97.75 47.16 97.71C47.4867 97.39 47.82 97.0433 48.16 96.67C48.5 96.29 48.7133 96.0533 48.8 95.96C48.9867 95.74 49.1767 95.53 49.37 95.33C49.9767 94.6567 50.28 94.1567 50.28 93.83C50.28 93.5967 50.1967 93.4033 50.03 93.25C49.8633 93.1033 49.6467 93.03 49.38 93.03C49.1133 93.03 48.8967 93.1033 48.73 93.25C48.5633 93.4033 48.48 93.6033 48.48 93.85V94.1C48.48 94.1333 48.47 94.1633 48.45 94.19C48.4233 94.21 48.3933 94.22 48.36 94.22H47.18C47.1467 94.22 47.12 94.21 47.1 94.19C47.0733 94.1633 47.06 94.1333 47.06 94.1V93.63C47.08 93.27 47.1933 92.95 47.4 92.67C47.6067 92.3967 47.8833 92.1867 48.23 92.04C48.57 91.8933 48.9533 91.82 49.38 91.82C49.8533 91.82 50.2667 91.9067 50.62 92.08C50.9667 92.26 51.2367 92.5 51.43 92.8C51.6167 93.1 51.71 93.4333 51.71 93.8C51.71 94.08 51.64 94.3667 51.5 94.66C51.36 94.9533 51.15 95.27 50.87 95.61C50.6633 95.87 50.44 96.1267 50.2 96.38C49.96 96.6333 49.6033 97 49.13 97.48L48.98 97.63ZM57.71 95.85C57.7433 95.85 57.7733 95.86 57.8 95.88C57.82 95.9067 57.83 95.9367 57.83 95.97V96.98C57.83 97.0133 57.82 97.0433 57.8 97.07C57.7733 97.09 57.7433 97.1 57.71 97.1H57.28C57.2467 97.1 57.23 97.1167 57.23 97.15V98.78C57.23 98.8133 57.22 98.84 57.2 98.86C57.1733 98.8867 57.1433 98.9 57.11 98.9H55.94C55.9067 98.9 55.88 98.8867 55.86 98.86C55.8333 98.84 55.82 98.8133 55.82 98.78V97.15C55.82 97.1167 55.8033 97.1 55.77 97.1H52.7C52.6667 97.1 52.64 97.09 52.62 97.07C52.5933 97.0433 52.58 97.0133 52.58 96.98V96.18C52.58 96.14 52.59 96.09 52.61 96.03L54.41 91.99C54.4367 91.93 54.4833 91.9 54.55 91.9H55.8C55.8467 91.9 55.88 91.9133 55.9 91.94C55.9133 91.96 55.91 91.9933 55.89 92.04L54.22 95.79C54.2133 95.8033 54.2133 95.8167 54.22 95.83C54.2267 95.8433 54.2367 95.85 54.25 95.85H55.77C55.8033 95.85 55.82 95.8333 55.82 95.8V94.56C55.82 94.5267 55.8333 94.5 55.86 94.48C55.88 94.4533 55.9067 94.44 55.94 94.44H57.11C57.1433 94.44 57.1733 94.4533 57.2 94.48C57.22 94.5 57.23 94.5267 57.23 94.56V95.8C57.23 95.8333 57.2467 95.85 57.28 95.85H57.71Z" fill="#252530"/>
</svg>
