<svg width="94" height="122" viewBox="0 0 94 122" fill="none" xmlns="http://www.w3.org/2000/svg">
<g clip-path="url(#clip0_433_94)">
<path d="M47.8199 111L6.62988 90.45V21.88C9.94638 21.4876 13.0838 20.1633 15.6784 18.0607C18.273 15.9581 20.2187 13.1632 21.2899 10H72.6299C73.7121 13.199 75.6875 16.0214 78.3225 18.1336C80.9575 20.2459 84.142 21.5598 87.4999 21.92V90.45L47.8199 111Z" fill="white"/>
<path d="M7 90.45L47.74 111L87 90.43V21.92C83.736 21.4717 80.6393 20.202 78 18.23L7 90.45Z" fill="#F7F8F7"/>
<path d="M89 20H88.87C85.3714 19.9938 81.9777 18.8049 79.24 16.6264C76.5024 14.4479 74.5818 11.4078 73.79 8L20 8C19.2082 11.3929 17.2985 14.4209 14.5779 16.5974C11.8573 18.7738 8.48393 19.9723 5 20V92.22L6.42 92.94L46.56 113.38L47.76 113.99L48.95 113.36L87.61 92.92L89 92.19V22V20ZM47.74 111L7 90.45V21.88C10.2929 21.4769 13.4035 20.1461 15.9689 18.0427C18.5344 15.9393 20.4492 13.15 21.49 10H72.28C73.3332 13.1886 75.2806 16.0074 77.8903 18.1207C80.5 20.234 83.6621 21.5528 87 21.92V90.45L47.74 111Z" fill="#E9E9EA"/>
<mask id="mask0_433_94" style="mask-type:luminance" maskUnits="userSpaceOnUse" x="0" y="64" width="94" height="16">
<path d="M90.79 64.99H3.21L0 72.49L3.21 79.99H90.79L94 72.49L90.79 64.99Z" fill="white"/>
</mask>
<g mask="url(#mask0_433_94)">
<path d="M-5 59.99H99V84.99H-5V59.99Z" fill="#9132A2"/>
</g>
<mask id="mask1_433_94" style="mask-type:luminance" maskUnits="userSpaceOnUse" x="37" y="8" width="20" height="21">
<path d="M47 29L57 23.4V8H37V23.4L47 29ZM49 15.86C48.9842 15.446 49.0884 15.0362 49.3 14.68C49.5734 14.3117 49.939 14.022 50.36 13.84L50.6 13.74C51.01 13.54 51.11 13.37 51.11 13.17C51.11 12.97 50.89 12.76 50.54 12.76C50.3292 12.7444 50.1188 12.796 49.9392 12.9074C49.7595 13.0188 49.6198 13.1842 49.54 13.38L49 12.85C49.1345 12.5887 49.3432 12.373 49.6 12.23C49.8703 12.074 50.178 11.9945 50.49 12C50.8674 11.9876 51.2388 12.0963 51.55 12.31C51.6919 12.4033 51.8076 12.5313 51.8863 12.6817C51.9651 12.8322 52.0042 13.0002 52 13.17C52 13.75 51.66 14.1 51 14.42L50.63 14.59C50.25 14.78 50.06 14.94 50 15.23H52V16H49V15.86ZM51.5 17L53 19.5L51.5 22L50 19.49H47L48.5 17H51.5ZM47.29 12C47.7063 11.9993 48.1216 12.0395 48.53 12.12L47.29 14.56C46.3581 14.5412 45.4568 14.8929 44.7838 15.5377C44.1107 16.1826 43.721 17.0681 43.7 18C43.7236 18.9301 44.1145 19.8131 44.7872 20.4558C45.4599 21.0985 46.3598 21.4488 47.29 21.43C48.146 21.4351 48.977 21.1416 49.64 20.6L51 22.84C49.9106 23.596 48.616 24.0008 47.29 24C45.6612 24.0349 44.085 23.4232 42.9061 22.2987C41.7273 21.1743 41.0419 19.6286 41 18C41.0419 16.3714 41.7273 14.8257 42.9061 13.7013C44.085 12.5768 45.6612 11.9651 47.29 12Z" fill="white"/>
</mask>
<g mask="url(#mask1_433_94)">
<path d="M32 2.98999H62V33.99H32V2.98999Z" fill="#9132A2"/>
</g>
<path d="M17.2999 49.59C17.9599 49.59 18.5399 49.7234 19.0399 49.99C19.5399 50.2567 19.9266 50.64 20.1999 51.14C20.4732 51.6334 20.6099 52.2 20.6099 52.84C20.6099 53.4734 20.4699 54.03 20.1899 54.51C19.9032 54.9834 19.5032 55.3534 18.9899 55.62C18.4766 55.8867 17.8832 56.02 17.2099 56.02H15.0799C15.0332 56.02 15.0099 56.0467 15.0099 56.1V59.92C15.0099 59.9734 14.9899 60.0167 14.9499 60.05C14.9166 60.0834 14.8732 60.1 14.8199 60.1H13.0699C13.0166 60.1 12.9732 60.0834 12.9399 60.05C12.9066 60.0167 12.8899 59.9734 12.8899 59.92V49.77C12.8899 49.7167 12.9066 49.6734 12.9399 49.64C12.9732 49.6067 13.0166 49.59 13.0699 49.59H17.2999ZM16.9799 54.33C17.4466 54.33 17.8166 54.1967 18.0899 53.93C18.3699 53.6634 18.5099 53.3167 18.5099 52.89C18.5099 52.4434 18.3699 52.0867 18.0899 51.82C17.8166 51.5467 17.4466 51.41 16.9799 51.41H15.0799C15.0332 51.41 15.0099 51.4367 15.0099 51.49V54.25C15.0099 54.3034 15.0332 54.33 15.0799 54.33H16.9799ZM28.1799 55.45C28.2332 55.83 28.2499 56.2534 28.2299 56.72C28.2232 56.8467 28.1599 56.91 28.0399 56.91H23.4099C23.3499 56.91 23.3266 56.9334 23.3399 56.98C23.3732 57.18 23.4299 57.38 23.5099 57.58C23.7699 58.14 24.2999 58.42 25.0999 58.42C25.7399 58.4134 26.2432 58.1534 26.6099 57.64C26.6566 57.58 26.7032 57.55 26.7499 57.55C26.7766 57.55 26.8099 57.57 26.8499 57.61L27.9299 58.67C27.9832 58.7234 28.0099 58.77 28.0099 58.81C28.0099 58.83 27.9899 58.87 27.9499 58.93C27.6166 59.3434 27.1932 59.66 26.6799 59.88C26.1532 60.1067 25.5799 60.22 24.9599 60.22C24.1066 60.22 23.3799 60.0267 22.7799 59.64C22.1866 59.2467 21.7599 58.7 21.4999 58C21.2866 57.5 21.1799 56.8467 21.1799 56.04C21.1799 55.4867 21.2566 55 21.4099 54.58C21.6432 53.8734 22.0466 53.31 22.6199 52.89C23.1932 52.47 23.8732 52.26 24.6599 52.26C25.6599 52.26 26.4632 52.55 27.0699 53.13C27.6766 53.71 28.0466 54.4834 28.1799 55.45ZM24.6799 54.09C24.0466 54.09 23.6299 54.3834 23.4299 54.97C23.3899 55.1034 23.3566 55.2634 23.3299 55.45C23.3299 55.4967 23.3566 55.52 23.4099 55.52H25.9999C26.0599 55.52 26.0799 55.4967 26.0599 55.45C26.0066 55.1634 25.9799 55.0234 25.9799 55.03C25.8932 54.73 25.7366 54.4967 25.5099 54.33C25.2899 54.17 25.0132 54.09 24.6799 54.09ZM33.3799 52.29C33.7399 52.29 34.0266 52.36 34.2399 52.5C34.3132 52.54 34.3399 52.6134 34.3199 52.72L34.0099 54.43C34.0032 54.55 33.9332 54.5867 33.7999 54.54C33.6466 54.4867 33.4732 54.46 33.2799 54.46C33.1999 54.46 33.0866 54.47 32.9399 54.49C32.5866 54.5234 32.2832 54.6567 32.0299 54.89C31.7832 55.1234 31.6599 55.4367 31.6599 55.83V59.92C31.6599 59.9734 31.6399 60.0167 31.5999 60.05C31.5666 60.0834 31.5266 60.1 31.4799 60.1H29.7199C29.6732 60.1 29.6299 60.0834 29.5899 60.05C29.5566 60.0167 29.5399 59.9734 29.5399 59.92V52.57C29.5399 52.5234 29.5566 52.48 29.5899 52.44C29.6299 52.4067 29.6732 52.39 29.7199 52.39H31.4799C31.5266 52.39 31.5666 52.4067 31.5999 52.44C31.6399 52.48 31.6599 52.5234 31.6599 52.57V53.14C31.6599 53.1667 31.6699 53.1867 31.6899 53.2C31.7032 53.2134 31.7166 53.2067 31.7299 53.18C32.1432 52.5867 32.6932 52.29 33.3799 52.29ZM39.7699 52.38C39.8232 52.38 39.8666 52.3967 39.8999 52.43C39.9332 52.4634 39.9499 52.5067 39.9499 52.56V53.98C39.9499 54.0334 39.9332 54.0767 39.8999 54.11C39.8666 54.1434 39.8232 54.16 39.7699 54.16H38.3199C38.2666 54.16 38.2399 54.1834 38.2399 54.23V59.92C38.2399 59.9734 38.2232 60.0167 38.1899 60.05C38.1566 60.0834 38.1132 60.1 38.0599 60.1H36.3099C36.2566 60.1 36.2132 60.0834 36.1799 60.05C36.1466 60.0167 36.1299 59.9734 36.1299 59.92V54.23C36.1299 54.1834 36.1032 54.16 36.0499 54.16H35.1699C35.1166 54.16 35.0732 54.1434 35.0399 54.11C35.0066 54.0767 34.9899 54.0334 34.9899 53.98V52.56C34.9899 52.5067 35.0066 52.4634 35.0399 52.43C35.0732 52.3967 35.1166 52.38 35.1699 52.38H36.0499C36.1032 52.38 36.1299 52.3534 36.1299 52.3V51.97C36.1299 51.35 36.2232 50.8667 36.4099 50.52C36.6032 50.18 36.9099 49.9367 37.3299 49.79C37.7566 49.6434 38.3466 49.58 39.0999 49.6H39.6699C39.7166 49.6 39.7566 49.6167 39.7899 49.65C39.8299 49.69 39.8499 49.7334 39.8499 49.78V50.99C39.8499 51.0434 39.8299 51.0867 39.7899 51.12C39.7566 51.16 39.7166 51.18 39.6699 51.18H39.1699C38.8232 51.1867 38.5799 51.2567 38.4399 51.39C38.3066 51.53 38.2399 51.78 38.2399 52.14V52.3C38.2399 52.3534 38.2666 52.38 38.3199 52.38H39.7699ZM44.1199 60.22C43.2799 60.22 42.5599 60 41.9599 59.56C41.3599 59.12 40.9499 58.52 40.7299 57.76C40.5899 57.2934 40.5199 56.7834 40.5199 56.23C40.5199 55.6434 40.5899 55.1134 40.7299 54.64C40.9632 53.9 41.3799 53.32 41.9799 52.9C42.5799 52.48 43.2999 52.27 44.1399 52.27C44.9532 52.27 45.6532 52.4767 46.2399 52.89C46.8132 53.31 47.2199 53.89 47.4599 54.63C47.6266 55.13 47.7099 55.6534 47.7099 56.2C47.7099 56.74 47.6399 57.2467 47.4999 57.72C47.2799 58.5 46.8699 59.11 46.2699 59.55C45.6766 59.9967 44.9599 60.22 44.1199 60.22ZM44.1199 58.41C44.4466 58.41 44.7266 58.31 44.9599 58.11C45.1932 57.91 45.3599 57.6334 45.4599 57.28C45.5332 56.96 45.5699 56.61 45.5699 56.23C45.5699 55.81 45.5332 55.4567 45.4599 55.17C45.3466 54.83 45.1766 54.5634 44.9499 54.37C44.7166 54.1834 44.4332 54.09 44.0999 54.09C43.7666 54.09 43.4866 54.1834 43.2599 54.37C43.0332 54.5634 42.8699 54.83 42.7699 55.17C42.6899 55.4034 42.6499 55.7567 42.6499 56.23C42.6499 56.6834 42.6866 57.0334 42.7599 57.28C42.8599 57.6334 43.0266 57.91 43.2599 58.11C43.4932 58.31 43.7799 58.41 44.1199 58.41ZM52.9099 52.29C53.2699 52.29 53.5566 52.36 53.7699 52.5C53.8499 52.54 53.8766 52.6134 53.8499 52.72L53.5399 54.43C53.5332 54.55 53.4632 54.5867 53.3299 54.54C53.1766 54.4867 53.0032 54.46 52.8099 54.46C52.7299 54.46 52.6199 54.47 52.4799 54.49C52.1199 54.5234 51.8132 54.6567 51.5599 54.89C51.3132 55.1234 51.1899 55.4367 51.1899 55.83V59.92C51.1899 59.9734 51.1699 60.0167 51.1299 60.05C51.0966 60.0834 51.0532 60.1 50.9999 60.1H49.2499C49.2032 60.1 49.1599 60.0834 49.1199 60.05C49.0866 60.0167 49.0699 59.9734 49.0699 59.92V52.57C49.0699 52.5234 49.0866 52.48 49.1199 52.44C49.1599 52.4067 49.2032 52.39 49.2499 52.39H50.9999C51.0532 52.39 51.0966 52.4067 51.1299 52.44C51.1699 52.48 51.1899 52.5234 51.1899 52.57V53.14C51.1899 53.1667 51.1966 53.1867 51.2099 53.2C51.2366 53.2134 51.2532 53.2067 51.2599 53.18C51.6732 52.5867 52.2232 52.29 52.9099 52.29ZM63.3599 52.27C64.1399 52.27 64.7499 52.5034 65.1899 52.97C65.6299 53.4434 65.8499 54.1067 65.8499 54.96V59.92C65.8499 59.9734 65.8332 60.0167 65.7999 60.05C65.7666 60.0834 65.7266 60.1 65.6799 60.1H63.9199C63.8732 60.1 63.8299 60.0834 63.7899 60.05C63.7566 60.0167 63.7399 59.9734 63.7399 59.92V55.42C63.7399 55.0134 63.6366 54.69 63.4299 54.45C63.2166 54.21 62.9332 54.09 62.5799 54.09C62.2332 54.09 61.9499 54.21 61.7299 54.45C61.5099 54.69 61.3999 55.01 61.3999 55.41V59.92C61.3999 59.9734 61.3832 60.0167 61.3499 60.05C61.3099 60.0834 61.2666 60.1 61.2199 60.1H59.4799C59.4266 60.1 59.3832 60.0834 59.3499 60.05C59.3166 60.0167 59.2999 59.9734 59.2999 59.92V55.42C59.2999 55.02 59.1899 54.6967 58.9699 54.45C58.7499 54.21 58.4632 54.09 58.1099 54.09C57.7966 54.09 57.5299 54.1834 57.3099 54.37C57.0966 54.5634 56.9699 54.83 56.9299 55.17V59.92C56.9299 59.9734 56.9132 60.0167 56.8799 60.05C56.8399 60.0834 56.7966 60.1 56.7499 60.1H54.9999C54.9466 60.1 54.9032 60.0834 54.8699 60.05C54.8366 60.0167 54.8199 59.9734 54.8199 59.92V52.57C54.8199 52.5234 54.8366 52.48 54.8699 52.44C54.9032 52.4067 54.9466 52.39 54.9999 52.39H56.7499C56.7966 52.39 56.8399 52.4067 56.8799 52.44C56.9132 52.48 56.9299 52.5234 56.9299 52.57V53.16C56.9299 53.1867 56.9399 53.2067 56.9599 53.22C56.9799 53.2267 56.9999 53.2134 57.0199 53.18C57.4332 52.5734 58.0699 52.27 58.9299 52.27C59.4299 52.27 59.8666 52.3767 60.2399 52.59C60.6132 52.7967 60.8999 53.0967 61.0999 53.49C61.1266 53.55 61.1632 53.55 61.2099 53.49C61.4232 53.0767 61.7199 52.77 62.0999 52.57C62.4732 52.37 62.8932 52.27 63.3599 52.27ZM74.1199 55.45C74.1799 55.83 74.1999 56.2534 74.1799 56.72C74.1666 56.8467 74.0999 56.91 73.9799 56.91H69.3499C69.2899 56.91 69.2699 56.9334 69.2899 56.98C69.3166 57.18 69.3699 57.38 69.4499 57.58C69.7099 58.14 70.2399 58.42 71.0399 58.42C71.6799 58.4134 72.1866 58.1534 72.5599 57.64C72.5999 57.58 72.6432 57.55 72.6899 57.55C72.7232 57.55 72.7599 57.57 72.7999 57.61L73.8799 58.67C73.9266 58.7234 73.9499 58.77 73.9499 58.81C73.9499 58.83 73.9299 58.87 73.8899 58.93C73.5632 59.3434 73.1399 59.66 72.6199 59.88C72.0999 60.1067 71.5299 60.22 70.9099 60.22C70.0499 60.22 69.3232 60.0267 68.7299 59.64C68.1299 59.2467 67.6999 58.7 67.4399 58C67.2332 57.5 67.1299 56.8467 67.1299 56.04C67.1299 55.4867 67.2032 55 67.3499 54.58C67.5832 53.8734 67.9866 53.31 68.5599 52.89C69.1332 52.47 69.8166 52.26 70.6099 52.26C71.6099 52.26 72.4132 52.55 73.0199 53.13C73.6266 53.71 73.9932 54.4834 74.1199 55.45ZM70.6199 54.09C69.9932 54.09 69.5799 54.3834 69.3799 54.97C69.3399 55.1034 69.3032 55.2634 69.2699 55.45C69.2699 55.4967 69.2966 55.52 69.3499 55.52H71.9399C71.9999 55.52 72.0199 55.4967 71.9999 55.45C71.9532 55.1634 71.9299 55.0234 71.9299 55.03C71.8366 54.73 71.6799 54.4967 71.4599 54.33C71.2332 54.17 70.9532 54.09 70.6199 54.09ZM79.3199 52.29C79.6799 52.29 79.9666 52.36 80.1799 52.5C80.2599 52.54 80.2899 52.6134 80.2699 52.72L79.9599 54.43C79.9466 54.55 79.8732 54.5867 79.7399 54.54C79.5932 54.4867 79.4199 54.46 79.2199 54.46C79.1399 54.46 79.0299 54.47 78.8899 54.49C78.5299 54.5234 78.2232 54.6567 77.9699 54.89C77.7232 55.1234 77.5999 55.4367 77.5999 55.83V59.92C77.5999 59.9734 77.5832 60.0167 77.5499 60.05C77.5099 60.0834 77.4666 60.1 77.4199 60.1H75.6599C75.6132 60.1 75.5732 60.0834 75.5399 60.05C75.4999 60.0167 75.4799 59.9734 75.4799 59.92V52.57C75.4799 52.5234 75.4999 52.48 75.5399 52.44C75.5732 52.4067 75.6132 52.39 75.6599 52.39H77.4199C77.4666 52.39 77.5099 52.4067 77.5499 52.44C77.5832 52.48 77.5999 52.5234 77.5999 52.57V53.14C77.5999 53.1667 77.6099 53.1867 77.6299 53.2C77.6499 53.2134 77.6666 53.2067 77.6799 53.18C78.0866 52.5867 78.6332 52.29 79.3199 52.29Z" fill="#252530"/>
<path d="M38.06 34.78C38.06 34.7334 38.0766 34.69 38.11 34.65C38.1433 34.6167 38.1833 34.6 38.23 34.6H39.99C40.0366 34.6 40.08 34.6167 40.12 34.65C40.1533 34.69 40.17 34.7334 40.17 34.78V44.92C40.17 44.9734 40.1533 45.0167 40.12 45.05C40.08 45.0834 40.0366 45.1 39.99 45.1H38.23C38.1833 45.1 38.1433 45.0834 38.11 45.05C38.0766 45.0167 38.06 44.9734 38.06 44.92V40.78C38.06 40.7334 38.0333 40.71 37.98 40.71H34.66C34.6133 40.71 34.59 40.7334 34.59 40.78V44.92C34.59 44.9734 34.5733 45.0167 34.54 45.05C34.5 45.0834 34.4566 45.1 34.41 45.1H32.65C32.6033 45.1 32.5633 45.0834 32.53 45.05C32.49 45.0167 32.47 44.9734 32.47 44.92V34.78C32.47 34.7334 32.49 34.69 32.53 34.65C32.5633 34.6167 32.6033 34.6 32.65 34.6H34.41C34.4566 34.6 34.5 34.6167 34.54 34.65C34.5733 34.69 34.59 34.7334 34.59 34.78V38.81C34.59 38.8634 34.6133 38.89 34.66 38.89H37.98C38.0333 38.89 38.06 38.8634 38.06 38.81V34.78ZM42.9 36.52C42.56 36.52 42.2766 36.4067 42.05 36.18C41.8233 35.96 41.71 35.68 41.71 35.34C41.71 34.9867 41.82 34.7 42.04 34.48C42.26 34.26 42.5466 34.15 42.9 34.15C43.2533 34.15 43.54 34.26 43.76 34.48C43.98 34.7 44.09 34.9867 44.09 35.34C44.09 35.68 43.9766 35.96 43.75 36.18C43.5233 36.4067 43.24 36.52 42.9 36.52ZM42 45.1C41.9533 45.1 41.91 45.0834 41.87 45.05C41.8366 45.0167 41.82 44.9734 41.82 44.92V37.56C41.82 37.5067 41.8366 37.4634 41.87 37.43C41.91 37.3967 41.9533 37.38 42 37.38H43.76C43.8066 37.38 43.8466 37.3967 43.88 37.43C43.92 37.4634 43.94 37.5067 43.94 37.56V44.92C43.94 44.9734 43.92 45.0167 43.88 45.05C43.8466 45.0834 43.8066 45.1 43.76 45.1H42ZM50.29 37.57C50.29 37.5234 50.31 37.48 50.35 37.44C50.3833 37.4067 50.4233 37.39 50.47 37.39H52.23C52.2766 37.39 52.32 37.4067 52.36 37.44C52.3933 37.48 52.41 37.5234 52.41 37.57V44.41C52.41 45.7167 52.0333 46.65 51.28 47.21C50.5266 47.7767 49.5533 48.06 48.36 48.06C48.0066 48.06 47.6166 48.0334 47.19 47.98C47.09 47.9667 47.04 47.9034 47.04 47.79L47.1 46.24C47.1 46.1067 47.17 46.05 47.31 46.07C47.67 46.13 48 46.16 48.3 46.16C48.94 46.16 49.4333 46.0234 49.78 45.75C50.12 45.4634 50.29 45.0134 50.29 44.4C50.29 44.3667 50.28 44.3467 50.26 44.34C50.24 44.3334 50.22 44.3434 50.2 44.37C49.82 44.7767 49.2666 44.98 48.54 44.98C47.8866 44.98 47.29 44.8234 46.75 44.51C46.2033 44.1967 45.8133 43.69 45.58 42.99C45.4333 42.53 45.36 41.9334 45.36 41.2C45.36 40.42 45.45 39.7867 45.63 39.3C45.8366 38.6867 46.19 38.1967 46.69 37.83C47.19 37.4567 47.7733 37.27 48.44 37.27C49.2066 37.27 49.7933 37.5 50.2 37.96C50.22 37.98 50.24 37.9867 50.26 37.98C50.28 37.9734 50.29 37.9567 50.29 37.93V37.57ZM50.17 42.41C50.25 42.1167 50.29 41.7067 50.29 41.18C50.29 40.8734 50.28 40.6367 50.26 40.47C50.24 40.2967 50.2066 40.1334 50.16 39.98C50.0666 39.7134 49.9166 39.4967 49.71 39.33C49.5033 39.17 49.2433 39.09 48.93 39.09C48.63 39.09 48.3766 39.17 48.17 39.33C47.9566 39.4967 47.8 39.7134 47.7 39.98C47.56 40.28 47.49 40.6867 47.49 41.2C47.49 41.76 47.55 42.16 47.67 42.4C47.7566 42.6734 47.9133 42.89 48.14 43.05C48.3666 43.2167 48.6333 43.3 48.94 43.3C49.26 43.3 49.5266 43.2167 49.74 43.05C49.9466 42.89 50.09 42.6767 50.17 42.41ZM57.95 37.27C58.75 37.27 59.3933 37.5167 59.88 38.01C60.3666 38.4967 60.61 39.16 60.61 40V44.92C60.61 44.9734 60.5933 45.0167 60.56 45.05C60.5266 45.0834 60.4866 45.1 60.44 45.1H58.68C58.6333 45.1 58.59 45.0834 58.55 45.05C58.5166 45.0167 58.5 44.9734 58.5 44.92V40.43C58.5 40.0367 58.3866 39.7134 58.16 39.46C57.94 39.2134 57.6433 39.09 57.27 39.09C56.9033 39.09 56.6066 39.2134 56.38 39.46C56.1533 39.7134 56.04 40.0367 56.04 40.43V44.92C56.04 44.9734 56.0233 45.0167 55.99 45.05C55.9566 45.0834 55.9133 45.1 55.86 45.1H54.11C54.0566 45.1 54.0133 45.0834 53.98 45.05C53.9466 45.0167 53.93 44.9734 53.93 44.92V34.78C53.93 34.7334 53.9466 34.69 53.98 34.65C54.0133 34.6167 54.0566 34.6 54.11 34.6H55.86C55.9133 34.6 55.9566 34.6167 55.99 34.65C56.0233 34.69 56.04 34.7334 56.04 34.78V38.1C56.04 38.1267 56.05 38.1467 56.07 38.16C56.09 38.1667 56.1033 38.16 56.11 38.14C56.5233 37.56 57.1366 37.27 57.95 37.27Z" fill="#252530"/>
<path d="M36.1799 70.18C36.1799 70.2133 36.1699 70.24 36.1499 70.26C36.1233 70.2867 36.0933 70.3 36.0599 70.3H32.6499C32.6166 70.3 32.5999 70.3167 32.5999 70.35V72.22C32.5999 72.2533 32.6166 72.27 32.6499 72.27H34.9399C34.9733 72.27 35.0033 72.28 35.0299 72.3C35.0499 72.3267 35.0599 72.3567 35.0599 72.39V73.15C35.0599 73.1833 35.0499 73.2133 35.0299 73.24C35.0033 73.26 34.9733 73.27 34.9399 73.27H32.6499C32.6166 73.27 32.5999 73.2867 32.5999 73.32V75.25C32.5999 75.2833 32.6166 75.3 32.6499 75.3H36.0599C36.0933 75.3 36.1233 75.3133 36.1499 75.34C36.1699 75.36 36.1799 75.3867 36.1799 75.42V76.18C36.1799 76.2133 36.1699 76.24 36.1499 76.26C36.1233 76.2867 36.0933 76.3 36.0599 76.3H31.5599C31.5266 76.3 31.4999 76.2867 31.4799 76.26C31.4533 76.24 31.4399 76.2133 31.4399 76.18V69.42C31.4399 69.3867 31.4533 69.36 31.4799 69.34C31.4999 69.3133 31.5266 69.3 31.5599 69.3H36.0599C36.0933 69.3 36.1233 69.3133 36.1499 69.34C36.1699 69.36 36.1799 69.3867 36.1799 69.42V70.18ZM40.2699 71.31C40.2699 71.2767 40.2833 71.2467 40.3099 71.22C40.3299 71.2 40.3566 71.19 40.3899 71.19H41.2999C41.3333 71.19 41.3633 71.2 41.3899 71.22C41.4099 71.2467 41.4199 71.2767 41.4199 71.31V76.18C41.4199 76.2133 41.4099 76.24 41.3899 76.26C41.3633 76.2867 41.3333 76.3 41.2999 76.3H40.3899C40.3566 76.3 40.3299 76.2867 40.3099 76.26C40.2833 76.24 40.2699 76.2133 40.2699 76.18V75.86C40.2699 75.84 40.2633 75.8267 40.2499 75.82C40.2366 75.8133 40.2233 75.82 40.2099 75.84C39.9366 76.1933 39.5266 76.37 38.9799 76.37C38.4733 76.37 38.0499 76.2233 37.7099 75.93C37.3633 75.6367 37.1899 75.22 37.1899 74.68V71.31C37.1899 71.2767 37.1999 71.2467 37.2199 71.22C37.2466 71.2 37.2766 71.19 37.3099 71.19H38.2299C38.2633 71.19 38.2933 71.2 38.3199 71.22C38.3399 71.2467 38.3499 71.2767 38.3499 71.31V74.35C38.3499 74.6633 38.4299 74.9133 38.5899 75.1C38.7566 75.2867 38.9866 75.38 39.2799 75.38C39.5799 75.38 39.8199 75.2867 39.9999 75.1C40.1799 74.9133 40.2699 74.6633 40.2699 74.35V71.31ZM45.0399 71.13C45.2533 71.13 45.4399 71.1733 45.5999 71.26C45.6533 71.2867 45.6733 71.3367 45.6599 71.41L45.4899 72.31C45.4833 72.39 45.4366 72.4133 45.3499 72.38C45.2499 72.3467 45.1333 72.33 44.9999 72.33C44.9133 72.33 44.8466 72.3333 44.7999 72.34C44.5199 72.3533 44.2866 72.45 44.0999 72.63C43.9133 72.8167 43.8199 73.0567 43.8199 73.35V76.18C43.8199 76.2133 43.8066 76.24 43.7799 76.26C43.7599 76.2867 43.7333 76.3 43.6999 76.3H42.7799C42.7466 76.3 42.7166 76.2867 42.6899 76.26C42.6699 76.24 42.6599 76.2133 42.6599 76.18V71.31C42.6599 71.2767 42.6699 71.2467 42.6899 71.22C42.7166 71.2 42.7466 71.19 42.7799 71.19H43.6999C43.7333 71.19 43.7599 71.2 43.7799 71.22C43.8066 71.2467 43.8199 71.2767 43.8199 71.31V71.76C43.8199 71.7867 43.8266 71.8 43.8399 71.8C43.8466 71.8067 43.8566 71.8 43.8699 71.78C44.1499 71.3467 44.5399 71.13 45.0399 71.13ZM48.4899 76.38C47.9633 76.38 47.5133 76.2467 47.1399 75.98C46.7599 75.7133 46.4933 75.3433 46.3399 74.87C46.2266 74.51 46.1699 74.13 46.1699 73.73C46.1699 73.3033 46.2233 72.9233 46.3299 72.59C46.4833 72.1233 46.7499 71.76 47.1299 71.5C47.5099 71.24 47.9666 71.11 48.4999 71.11C49.0066 71.11 49.4466 71.24 49.8199 71.5C50.1866 71.76 50.4466 72.12 50.5999 72.58C50.7199 72.9 50.7799 73.28 50.7799 73.72C50.7799 74.14 50.7233 74.52 50.6099 74.86C50.4566 75.3333 50.1933 75.7033 49.8199 75.97C49.4466 76.2433 49.0033 76.38 48.4899 76.38ZM48.4899 75.38C48.7366 75.38 48.9466 75.31 49.1199 75.17C49.2999 75.03 49.4299 74.8333 49.5099 74.58C49.5766 74.36 49.6099 74.08 49.6099 73.74C49.6099 73.38 49.5766 73.1 49.5099 72.9C49.4366 72.6467 49.3099 72.4533 49.1299 72.32C48.9499 72.18 48.7299 72.11 48.4699 72.11C48.2233 72.11 48.0099 72.18 47.8299 72.32C47.6499 72.4533 47.5199 72.6467 47.4399 72.9C47.3733 73.1333 47.3399 73.4133 47.3399 73.74C47.3399 74.0667 47.3733 74.3467 47.4399 74.58C47.5133 74.8333 47.6433 75.03 47.8299 75.17C48.0099 75.31 48.2299 75.38 48.4899 75.38ZM56.2099 72.51C56.3299 72.85 56.3899 73.2667 56.3899 73.76C56.3899 74.2333 56.3333 74.64 56.2199 74.98C56.0733 75.42 55.8366 75.7633 55.5099 76.01C55.1899 76.2567 54.7833 76.38 54.2899 76.38C53.8166 76.38 53.4366 76.21 53.1499 75.87C53.1366 75.8567 53.1233 75.8533 53.1099 75.86C53.0966 75.8667 53.0899 75.88 53.0899 75.9V78.07C53.0899 78.1033 53.0766 78.13 53.0499 78.15C53.0299 78.1767 53.0033 78.19 52.9699 78.19H52.0499C52.0166 78.19 51.9866 78.1767 51.9599 78.15C51.9399 78.13 51.9299 78.1033 51.9299 78.07V71.31C51.9299 71.2767 51.9399 71.2467 51.9599 71.22C51.9866 71.2 52.0166 71.19 52.0499 71.19H52.9699C53.0033 71.19 53.0299 71.2 53.0499 71.22C53.0766 71.2467 53.0899 71.2767 53.0899 71.31V71.61C53.0899 71.63 53.0966 71.6433 53.1099 71.65C53.1233 71.6567 53.1366 71.65 53.1499 71.63C53.4433 71.2833 53.8266 71.11 54.2999 71.11C54.7733 71.11 55.1733 71.2333 55.4999 71.48C55.8266 71.7267 56.0633 72.07 56.2099 72.51ZM54.9099 74.96C55.1099 74.6533 55.2099 74.2467 55.2099 73.74C55.2099 73.2533 55.1299 72.87 54.9699 72.59C54.7833 72.2633 54.4999 72.1 54.1199 72.1C53.7733 72.1 53.5133 72.26 53.3399 72.58C53.1866 72.84 53.1099 73.2267 53.1099 73.74C53.1099 74.2667 53.1933 74.6667 53.3599 74.94C53.5333 75.2333 53.7833 75.38 54.1099 75.38C54.4633 75.38 54.7299 75.24 54.9099 74.96ZM61.7799 73.17C61.8066 73.3367 61.8199 73.5233 61.8199 73.73L61.8099 74.04C61.8099 74.12 61.7699 74.16 61.6899 74.16H58.5599C58.5266 74.16 58.5099 74.1767 58.5099 74.21C58.5299 74.43 58.5599 74.58 58.5999 74.66C58.7599 75.14 59.1499 75.3833 59.7699 75.39C60.2233 75.39 60.5833 75.2033 60.8499 74.83C60.8766 74.79 60.9099 74.77 60.9499 74.77C60.9766 74.77 60.9999 74.78 61.0199 74.8L61.6399 75.31C61.6999 75.3567 61.7099 75.41 61.6699 75.47C61.4633 75.7633 61.1899 75.99 60.8499 76.15C60.5033 76.31 60.1199 76.39 59.6999 76.39C59.1799 76.39 58.7366 76.2733 58.3699 76.04C58.0099 75.8067 57.7466 75.48 57.5799 75.06C57.4266 74.7 57.3499 74.2 57.3499 73.56C57.3499 73.1733 57.3899 72.86 57.4699 72.62C57.6033 72.1533 57.8566 71.7833 58.2299 71.51C58.5966 71.2433 59.0399 71.11 59.5599 71.11C60.8733 71.11 61.6133 71.7967 61.7799 73.17ZM59.5599 72.11C59.3133 72.11 59.1066 72.1733 58.9399 72.3C58.7799 72.42 58.6666 72.59 58.5999 72.81C58.5599 72.9233 58.5333 73.07 58.5199 73.25C58.5066 73.2833 58.5199 73.3 58.5599 73.3H60.5899C60.6233 73.3 60.6399 73.2833 60.6399 73.25C60.6266 73.0833 60.6066 72.9567 60.5799 72.87C60.5199 72.63 60.4033 72.4433 60.2299 72.31C60.0499 72.1767 59.8266 72.11 59.5599 72.11Z" fill="white"/>
<path d="M31.16 90.4C31.0867 90.4 31.04 90.3667 31.02 90.3L29.25 83.53L29.24 83.49C29.24 83.43 29.2767 83.4 29.35 83.4H30.59C30.6567 83.4 30.7 83.4334 30.72 83.5L31.67 87.57C31.6767 87.5967 31.6867 87.61 31.7 87.61C31.7133 87.61 31.7233 87.5967 31.73 87.57L32.65 83.51C32.67 83.4367 32.7133 83.4 32.78 83.4H33.99C34.0633 83.4 34.11 83.4334 34.13 83.5L35.13 87.57C35.1367 87.59 35.1467 87.6034 35.16 87.61C35.1733 87.61 35.1833 87.5967 35.19 87.57L36.11 83.51C36.13 83.4367 36.1733 83.4 36.24 83.4H37.42C37.5133 83.4 37.55 83.4434 37.53 83.53L35.89 90.3C35.87 90.3667 35.8233 90.4 35.75 90.4H34.56C34.4933 90.4 34.45 90.3667 34.43 90.3L33.41 85.97C33.4033 85.9434 33.3933 85.93 33.38 85.93C33.3667 85.93 33.3567 85.9434 33.35 85.97L32.4 90.29C32.3867 90.3634 32.3433 90.4 32.27 90.4H31.16ZM38.5 90.4C38.4667 90.4 38.4367 90.3867 38.41 90.36C38.39 90.34 38.38 90.3134 38.38 90.28V83.52C38.38 83.4867 38.39 83.46 38.41 83.44C38.4367 83.4134 38.4667 83.4 38.5 83.4H39.67C39.7033 83.4 39.73 83.4134 39.75 83.44C39.7767 83.46 39.79 83.4867 39.79 83.52V90.28C39.79 90.3134 39.7767 90.34 39.75 90.36C39.73 90.3867 39.7033 90.4 39.67 90.4H38.5ZM45.03 83.52C45.03 83.4867 45.04 83.46 45.06 83.44C45.0867 83.4134 45.1167 83.4 45.15 83.4H46.32C46.3533 83.4 46.38 83.4134 46.4 83.44C46.4267 83.46 46.44 83.4867 46.44 83.52V90.28C46.44 90.3134 46.4267 90.34 46.4 90.36C46.38 90.3867 46.3533 90.4 46.32 90.4H45.19C45.1233 90.4 45.0767 90.3734 45.05 90.32L42.46 86.04C42.4467 86.02 42.4333 86.0134 42.42 86.02C42.4067 86.02 42.4 86.0334 42.4 86.06L42.42 90.28C42.42 90.3134 42.4067 90.34 42.38 90.36C42.36 90.3867 42.3333 90.4 42.3 90.4H41.13C41.0967 90.4 41.0667 90.3867 41.04 90.36C41.02 90.34 41.01 90.3134 41.01 90.28V83.52C41.01 83.4867 41.02 83.46 41.04 83.44C41.0667 83.4134 41.0967 83.4 41.13 83.4H42.26C42.3267 83.4 42.3733 83.4267 42.4 83.48L44.98 87.74C44.9933 87.76 45.0067 87.7667 45.02 87.76C45.0333 87.76 45.04 87.7467 45.04 87.72L45.03 83.52ZM52.49 83.4C52.5233 83.4 52.55 83.4134 52.57 83.44C52.5967 83.46 52.61 83.4867 52.61 83.52V84.5C52.61 84.5334 52.5967 84.56 52.57 84.58C52.55 84.6067 52.5233 84.62 52.49 84.62H50.7C50.6667 84.62 50.65 84.6367 50.65 84.67V90.28C50.65 90.3134 50.6367 90.34 50.61 90.36C50.59 90.3867 50.5633 90.4 50.53 90.4H49.36C49.3267 90.4 49.2967 90.3867 49.27 90.36C49.25 90.34 49.24 90.3134 49.24 90.28V84.67C49.24 84.6367 49.2233 84.62 49.19 84.62H47.45C47.4167 84.62 47.3867 84.6067 47.36 84.58C47.34 84.56 47.33 84.5334 47.33 84.5V83.52C47.33 83.4867 47.34 83.46 47.36 83.44C47.3867 83.4134 47.4167 83.4 47.45 83.4H52.49ZM58.37 84.49C58.37 84.5234 58.36 84.55 58.34 84.57C58.3133 84.5967 58.2833 84.61 58.25 84.61H54.97C54.9367 84.61 54.92 84.6267 54.92 84.66V86.21C54.92 86.2434 54.9367 86.26 54.97 86.26H57.12C57.1533 86.26 57.18 86.27 57.2 86.29C57.2267 86.3167 57.24 86.3467 57.24 86.38V87.35C57.24 87.3834 57.2267 87.4134 57.2 87.44C57.18 87.46 57.1533 87.47 57.12 87.47H54.97C54.9367 87.47 54.92 87.4867 54.92 87.52V89.14C54.92 89.1734 54.9367 89.19 54.97 89.19H58.25C58.2833 89.19 58.3133 89.2 58.34 89.22C58.36 89.2467 58.37 89.2767 58.37 89.31V90.28C58.37 90.3134 58.36 90.34 58.34 90.36C58.3133 90.3867 58.2833 90.4 58.25 90.4H53.63C53.5967 90.4 53.5667 90.3867 53.54 90.36C53.52 90.34 53.51 90.3134 53.51 90.28V83.52C53.51 83.4867 53.52 83.46 53.54 83.44C53.5667 83.4134 53.5967 83.4 53.63 83.4H58.25C58.2833 83.4 58.3133 83.4134 58.34 83.44C58.36 83.46 58.37 83.4867 58.37 83.52V84.49ZM63.19 90.4C63.1233 90.4 63.0767 90.37 63.05 90.31L61.8 87.54C61.7867 87.5134 61.7667 87.5 61.74 87.5H60.81C60.7767 87.5 60.76 87.5167 60.76 87.55V90.28C60.76 90.3134 60.7467 90.34 60.72 90.36C60.7 90.3867 60.6733 90.4 60.64 90.4H59.47C59.4367 90.4 59.4067 90.3867 59.38 90.36C59.36 90.34 59.35 90.3134 59.35 90.28V83.52C59.35 83.4867 59.36 83.46 59.38 83.44C59.4067 83.4134 59.4367 83.4 59.47 83.4H62.33C62.7567 83.4 63.13 83.4867 63.45 83.66C63.7767 83.8334 64.0267 84.08 64.2 84.4C64.38 84.72 64.47 85.09 64.47 85.51C64.47 85.9634 64.3567 86.35 64.13 86.67C63.9033 86.9967 63.5867 87.2267 63.18 87.36C63.1467 87.3734 63.1367 87.3967 63.15 87.43L64.51 90.26C64.5233 90.2867 64.53 90.3067 64.53 90.32C64.53 90.3734 64.4933 90.4 64.42 90.4H63.19ZM60.81 84.61C60.7767 84.61 60.76 84.6267 60.76 84.66V86.37C60.76 86.4034 60.7767 86.42 60.81 86.42H62.12C62.4 86.42 62.6267 86.3367 62.8 86.17C62.98 86.0034 63.07 85.7867 63.07 85.52C63.07 85.2534 62.98 85.0334 62.8 84.86C62.6267 84.6934 62.4 84.61 62.12 84.61H60.81Z" fill="#252530"/>
<path d="M37.68 98.53C37.6667 98.5433 37.6633 98.5566 37.67 98.57C37.6767 98.5833 37.69 98.59 37.71 98.59H40.42C40.4533 98.59 40.4833 98.6 40.51 98.62C40.53 98.6466 40.54 98.6766 40.54 98.71V99.68C40.54 99.7133 40.53 99.74 40.51 99.76C40.4833 99.7866 40.4533 99.8 40.42 99.8H35.92C35.8867 99.8 35.8567 99.7866 35.83 99.76C35.81 99.74 35.8 99.7133 35.8 99.68V98.76C35.8 98.7 35.82 98.65 35.86 98.61C36.1867 98.29 36.52 97.9433 36.86 97.57C37.2 97.19 37.4133 96.9533 37.5 96.86C37.6867 96.64 37.8767 96.43 38.07 96.23C38.6767 95.5566 38.98 95.0566 38.98 94.73C38.98 94.4966 38.8967 94.3033 38.73 94.15C38.5633 94.0033 38.3467 93.93 38.08 93.93C37.8133 93.93 37.5967 94.0033 37.43 94.15C37.2633 94.3033 37.18 94.5033 37.18 94.75V95C37.18 95.0333 37.1667 95.0633 37.14 95.09C37.12 95.11 37.0933 95.12 37.06 95.12H35.88C35.8467 95.12 35.82 95.11 35.8 95.09C35.7733 95.0633 35.76 95.0333 35.76 95V94.53C35.78 94.17 35.8933 93.85 36.1 93.57C36.3067 93.2966 36.58 93.0866 36.92 92.94C37.2667 92.7933 37.6533 92.72 38.08 92.72C38.5533 92.72 38.9667 92.8066 39.32 92.98C39.6667 93.16 39.9367 93.4 40.13 93.7C40.3167 94 40.41 94.3333 40.41 94.7C40.41 94.98 40.34 95.2666 40.2 95.56C40.06 95.8533 39.85 96.17 39.57 96.51C39.3633 96.77 39.14 97.0266 38.9 97.28C38.66 97.5333 38.3033 97.9 37.83 98.38L37.68 98.53ZM43.79 99.91C43.0567 99.91 42.4767 99.7033 42.05 99.29C41.6233 98.8833 41.41 98.3266 41.41 97.62V94.98C41.41 94.2866 41.6233 93.7366 42.05 93.33C42.4767 92.9233 43.0567 92.72 43.79 92.72C44.5233 92.72 45.1067 92.9233 45.54 93.33C45.9667 93.7366 46.18 94.2866 46.18 94.98V97.62C46.18 98.3266 45.9667 98.8833 45.54 99.29C45.1067 99.7033 44.5233 99.91 43.79 99.91ZM43.79 98.7C44.09 98.7 44.33 98.6066 44.51 98.42C44.6833 98.24 44.77 97.9966 44.77 97.69V94.94C44.77 94.6333 44.6833 94.39 44.51 94.21C44.33 94.0233 44.09 93.93 43.79 93.93C43.4967 93.93 43.2633 94.0233 43.09 94.21C42.91 94.39 42.82 94.6333 42.82 94.94V97.69C42.82 97.9966 42.91 98.24 43.09 98.42C43.2633 98.6066 43.4967 98.7 43.79 98.7ZM48.98 98.53C48.9667 98.5433 48.9633 98.5566 48.97 98.57C48.9767 98.5833 48.99 98.59 49.01 98.59H51.72C51.7533 98.59 51.7833 98.6 51.81 98.62C51.83 98.6466 51.84 98.6766 51.84 98.71V99.68C51.84 99.7133 51.83 99.74 51.81 99.76C51.7833 99.7866 51.7533 99.8 51.72 99.8H47.22C47.1867 99.8 47.16 99.7866 47.14 99.76C47.1133 99.74 47.1 99.7133 47.1 99.68V98.76C47.1 98.7 47.12 98.65 47.16 98.61C47.4867 98.29 47.82 97.9433 48.16 97.57C48.5 97.19 48.7133 96.9533 48.8 96.86C48.9867 96.64 49.1767 96.43 49.37 96.23C49.9767 95.5566 50.28 95.0566 50.28 94.73C50.28 94.4966 50.1967 94.3033 50.03 94.15C49.8633 94.0033 49.6467 93.93 49.38 93.93C49.1133 93.93 48.8967 94.0033 48.73 94.15C48.5633 94.3033 48.48 94.5033 48.48 94.75V95C48.48 95.0333 48.47 95.0633 48.45 95.09C48.4233 95.11 48.3933 95.12 48.36 95.12H47.18C47.1467 95.12 47.12 95.11 47.1 95.09C47.0733 95.0633 47.06 95.0333 47.06 95V94.53C47.08 94.17 47.1933 93.85 47.4 93.57C47.6067 93.2966 47.8833 93.0866 48.23 92.94C48.57 92.7933 48.9533 92.72 49.38 92.72C49.8533 92.72 50.2667 92.8066 50.62 92.98C50.9667 93.16 51.2367 93.4 51.43 93.7C51.6167 94 51.71 94.3333 51.71 94.7C51.71 94.98 51.64 95.2666 51.5 95.56C51.36 95.8533 51.15 96.17 50.87 96.51C50.6633 96.77 50.44 97.0266 50.2 97.28C49.96 97.5333 49.6033 97.9 49.13 98.38L48.98 98.53ZM57.71 96.75C57.7433 96.75 57.7733 96.76 57.8 96.78C57.82 96.8066 57.83 96.8366 57.83 96.87V97.88C57.83 97.9133 57.82 97.9433 57.8 97.97C57.7733 97.99 57.7433 98 57.71 98H57.28C57.2467 98 57.23 98.0166 57.23 98.05V99.68C57.23 99.7133 57.22 99.74 57.2 99.76C57.1733 99.7866 57.1433 99.8 57.11 99.8H55.94C55.9067 99.8 55.88 99.7866 55.86 99.76C55.8333 99.74 55.82 99.7133 55.82 99.68V98.05C55.82 98.0166 55.8033 98 55.77 98H52.7C52.6667 98 52.64 97.99 52.62 97.97C52.5933 97.9433 52.58 97.9133 52.58 97.88V97.08C52.58 97.04 52.59 96.99 52.61 96.93L54.41 92.89C54.4367 92.83 54.4833 92.8 54.55 92.8H55.8C55.8467 92.8 55.88 92.8133 55.9 92.84C55.9133 92.86 55.91 92.8933 55.89 92.94L54.22 96.69C54.2133 96.7033 54.2133 96.7166 54.22 96.73C54.2267 96.7433 54.2367 96.75 54.25 96.75H55.77C55.8033 96.75 55.82 96.7333 55.82 96.7V95.46C55.82 95.4266 55.8333 95.4 55.86 95.38C55.88 95.3533 55.9067 95.34 55.94 95.34H57.11C57.1433 95.34 57.1733 95.3533 57.2 95.38C57.22 95.4 57.23 95.4266 57.23 95.46V96.7C57.23 96.7333 57.2467 96.75 57.28 96.75H57.71Z" fill="#252530"/>
</g>
<defs>
<clipPath id="clip0_433_94">
<rect width="94" height="105.99" fill="white" transform="translate(0 8)"/>
</clipPath>
</defs>
</svg>
