<svg width="87" height="87" viewBox="0 0 87 87" fill="none" xmlns="http://www.w3.org/2000/svg">
<path d="M43.4332 86.8664C67.4207 86.8664 86.8664 67.4207 86.8664 43.4332C86.8664 19.4457 67.4207 0 43.4332 0C19.4457 0 0 19.4457 0 43.4332C0 67.4207 19.4457 86.8664 43.4332 86.8664Z" fill="url(#paint0_linear_2241_1391)"/>
<path d="M43.4347 73.1409C59.8421 73.1409 73.1429 59.8401 73.1429 43.4328C73.1429 27.0254 59.8421 13.7246 43.4347 13.7246C27.0274 13.7246 13.7266 27.0254 13.7266 43.4328C13.7266 59.8401 27.0274 73.1409 43.4347 73.1409Z" fill="url(#paint1_linear_2241_1391)"/>
<path d="M21.7925 14.5526L20.9734 15.2462C20.8687 15.1529 20.7584 15.0847 20.6426 15.0414C20.5257 14.997 20.4063 14.9761 20.2844 14.9787C20.1624 14.9814 20.0409 15.0072 19.9198 15.0563C19.7999 15.1043 19.6851 15.1748 19.5753 15.2677C19.3771 15.4355 19.2461 15.631 19.1824 15.8541C19.1177 16.0759 19.124 16.3147 19.2013 16.5703C19.2776 16.8247 19.4282 17.0847 19.653 17.3502C19.8843 17.6232 20.1191 17.8183 20.3574 17.9355C20.597 18.0515 20.8305 18.0947 21.0578 18.0648C21.2852 18.035 21.4955 17.9383 21.6887 17.7746C21.7972 17.6828 21.8854 17.5834 21.9534 17.4766C22.0226 17.3688 22.0702 17.2568 22.096 17.1407C22.1208 17.0233 22.1231 16.9047 22.1029 16.7848C22.084 16.6638 22.0406 16.5443 21.9727 16.4263L22.7949 15.7363C22.9226 15.9301 23.0132 16.1445 23.0668 16.3796C23.1205 16.6124 23.1307 16.8532 23.0973 17.102C23.0641 17.3485 22.9813 17.592 22.8489 17.8326C22.7167 18.0708 22.5278 18.2939 22.2822 18.5019C21.9406 18.7912 21.5697 18.9726 21.1695 19.0461C20.7705 19.1185 20.3691 19.0742 19.9651 18.9132C19.5624 18.7511 19.1847 18.4619 18.8321 18.0455C18.4784 17.6278 18.256 17.206 18.165 16.78C18.074 16.3539 18.0982 15.9502 18.2376 15.5688C18.376 15.1862 18.6135 14.8523 18.9501 14.5673C19.172 14.3793 19.4041 14.2363 19.6464 14.1381C19.8899 14.0389 20.1359 13.9869 20.3844 13.982C20.6318 13.9758 20.8745 14.0197 21.1125 14.1137C21.3517 14.2065 21.5783 14.3528 21.7925 14.5526Z" fill="white"/>
<path d="M26.0481 15.6293L23.6211 11.2363L26.5812 9.60093L27.0042 10.3667L24.9729 11.489L25.5513 12.5357L27.4303 11.4976L27.8533 12.2633L25.9743 13.3015L26.5538 14.3504L28.5937 13.2234L29.0168 13.9891L26.0481 15.6293Z" fill="white"/>
<path d="M31.4378 12.9262L29.877 8.15625L31.7588 7.54043C32.1191 7.42255 32.4476 7.38638 32.7444 7.43193C33.0423 7.47541 33.2963 7.59254 33.5066 7.7833C33.7179 7.972 33.8751 8.22395 33.9782 8.53915C34.0819 8.8559 34.1027 9.15076 34.0408 9.42372C33.9783 9.69512 33.8373 9.93381 33.6176 10.1398C33.3995 10.3452 33.1072 10.5079 32.7408 10.6278L31.4808 11.0401L31.2155 10.2296L32.3125 9.87066C32.505 9.80766 32.6563 9.72893 32.7664 9.63447C32.8764 9.54002 32.9452 9.42983 32.9728 9.30393C33.0019 9.17751 32.9908 9.03589 32.9395 8.87907C32.8877 8.72069 32.8121 8.59758 32.7129 8.50972C32.6152 8.42135 32.4928 8.37031 32.3456 8.35658C32.1995 8.3408 32.0294 8.36466 31.8353 8.42817L31.1552 8.65072L32.4463 12.5961L31.4378 12.9262ZM33.3035 9.91253L35.1993 11.6953L34.086 12.0596L32.2158 10.2685L33.3035 9.91253Z" fill="white"/>
<path d="M36.8167 7.11235L36.709 6.24414L40.7995 5.73681L40.9072 6.60502L39.3824 6.79414L39.8924 10.9066L38.8515 11.0357L38.3415 6.92323L36.8167 7.11235Z" fill="white"/>
<path d="M45.168 5.73395L45.013 10.7504L43.9524 10.7176L44.1074 5.70117L45.168 5.73395Z" fill="white"/>
<path d="M47.7356 10.958L48.6191 6.01758L51.8902 6.6026L51.7362 7.4638L49.5096 7.06558L49.2991 8.24279L51.3086 8.60218L51.1545 9.46337L49.1451 9.10399L48.7801 11.1448L47.7356 10.958Z" fill="white"/>
<path d="M56.0937 7.84964L54.4954 12.6071L53.4896 12.2692L55.0879 7.51172L56.0937 7.84964Z" fill="white"/>
<path d="M57.0348 13.5873L59.3281 9.12305L62.3362 10.6683L61.9365 11.4465L59.8722 10.3861L59.3258 11.4498L61.2353 12.4308L60.8355 13.2089L58.926 12.228L58.3784 13.2939L60.4514 14.3588L60.0516 15.137L57.0348 13.5873Z" fill="white"/>
<path d="M63.6781 17.6382L62.2837 16.5334L65.4004 12.5996L66.8064 13.7136C67.2021 14.0271 67.4803 14.3757 67.6411 14.7595C67.8028 15.1419 67.8444 15.5407 67.7657 15.9557C67.6883 16.3717 67.4878 16.7839 67.1642 17.1924C66.8395 17.6021 66.483 17.8929 66.0947 18.0647C65.7077 18.2374 65.3078 18.2884 64.8949 18.2177C64.4832 18.1479 64.0777 17.9548 63.6781 17.6382ZM63.68 16.4797L64.2082 16.8982C64.454 17.093 64.6953 17.2133 64.9321 17.2592C65.1711 17.3047 65.4059 17.2688 65.6365 17.1514C65.8694 17.0337 66.1021 16.8282 66.3344 16.5349C66.5647 16.2443 66.71 15.9727 66.7703 15.7204C66.8319 15.469 66.8133 15.2334 66.7145 15.0134C66.6158 14.7934 66.4435 14.586 66.1976 14.3912L65.6675 13.9712L63.68 16.4797Z" fill="white"/>
<path d="M28.3999 78.5753L28.6693 77.8598L30.924 76.9411C31.118 76.8571 31.2839 76.7781 31.4217 76.7043C31.561 76.631 31.6757 76.5512 31.7659 76.4647C31.8566 76.3766 31.9253 76.2707 31.9719 76.1469C32.0237 76.0092 32.037 75.8789 32.0117 75.756C31.987 75.6315 31.9305 75.522 31.8421 75.4276C31.7542 75.3317 31.6415 75.2579 31.5039 75.2061C31.3602 75.1519 31.2239 75.1338 31.095 75.1516C30.9661 75.1694 30.8521 75.2217 30.7532 75.3083C30.6542 75.395 30.5765 75.5133 30.5201 75.6631L29.5775 75.3083C29.6932 75.0009 29.8632 74.7603 30.0875 74.5864C30.3119 74.4125 30.5727 74.3108 30.8701 74.2814C31.1675 74.2519 31.4797 74.2988 31.8069 74.422C32.1433 74.5486 32.4137 74.7185 32.618 74.9316C32.8244 75.1437 32.9578 75.3807 33.018 75.6425C33.0783 75.9044 33.0575 76.1706 32.9556 76.4412C32.8889 76.6186 32.7878 76.7804 32.6524 76.9267C32.5186 77.0736 32.3232 77.2191 32.0664 77.3634C31.8102 77.5061 31.4655 77.6635 31.0324 77.8356L30.0937 78.2494L30.0816 78.2815L32.054 79.024L31.7483 79.8359L28.3999 78.5753Z" fill="white"/>
<path d="M35.1874 80.757L37.9711 77.0788L37.9773 77.0451L35.5928 76.6113L35.748 75.7578L39.2127 76.3881L39.0552 77.2536L36.2651 80.953L35.1874 80.757Z" fill="white"/>
<path d="M43.5054 81.7387C43.0839 81.7379 42.721 81.6348 42.4167 81.4296C42.1141 81.2243 41.8807 80.9266 41.7166 80.5365C41.5541 80.1463 41.4732 79.6768 41.4737 79.1278C41.4727 78.5805 41.5527 78.114 41.7137 77.7281C41.8763 77.3422 42.1085 77.0485 42.4104 76.847C42.7139 76.6438 43.0755 76.5418 43.4954 76.541C43.9153 76.5402 44.2765 76.6408 44.5791 76.8428C44.8834 77.0448 45.1176 77.3384 45.2817 77.7237C45.4458 78.1073 45.5276 78.5728 45.527 79.1201C45.5281 79.6706 45.4473 80.1413 45.2846 80.5321C45.1237 80.9228 44.8922 81.2214 44.5904 81.4279C44.2886 81.6343 43.9269 81.7379 43.5054 81.7387ZM43.5037 80.859C43.7912 80.8584 44.0205 80.7134 44.1915 80.4239C44.3625 80.1344 44.4466 79.7005 44.4438 79.1221C44.4431 78.7415 44.4033 78.4246 44.3244 78.1715C44.2471 77.9185 44.1373 77.7283 43.9949 77.6012C43.8542 77.474 43.6882 77.4106 43.4971 77.411C43.2112 77.4115 42.9827 77.5549 42.8117 77.8412C42.6407 78.1274 42.555 78.5556 42.5544 79.1258C42.5552 79.5113 42.5942 79.8331 42.6715 80.0911C42.7504 80.3474 42.861 80.54 43.0034 80.6688C43.1458 80.7959 43.3126 80.8593 43.5037 80.859Z" fill="white"/>
<path d="M50.8665 81.0107C50.4527 81.0911 50.0768 81.0599 49.7386 80.9171C49.4021 80.774 49.1158 80.5268 48.8795 80.1756C48.6449 79.8241 48.475 79.3789 48.3698 78.8402C48.2633 78.3034 48.2519 77.8301 48.3355 77.4204C48.4207 77.0105 48.592 76.6775 48.8494 76.4216C49.108 76.1638 49.4433 75.994 49.8551 75.9123C50.267 75.8306 50.6408 75.8597 50.9767 75.9996C51.3142 76.1392 51.6006 76.3822 51.8358 76.7286C52.0708 77.0734 52.2407 77.5144 52.3456 78.0515C52.4527 78.5916 52.4641 79.069 52.3799 79.4838C52.2972 79.8982 52.1277 80.2358 51.8712 80.4965C51.6148 80.7573 51.2799 80.9286 50.8665 81.0107ZM50.6953 80.1477C50.9773 80.0918 51.1743 79.9053 51.2863 79.5883C51.3983 79.2712 51.3973 78.8292 51.2831 78.2623C51.2091 77.8889 51.1089 77.5856 50.9827 77.3525C50.8582 77.1191 50.7138 76.9537 50.5495 76.8563C50.3869 76.7587 50.2119 76.7284 50.0244 76.7656C49.7439 76.8213 49.5474 77.006 49.4348 77.3198C49.3221 77.6336 49.3205 78.0703 49.4298 78.6299C49.5049 79.0081 49.6051 79.3163 49.7307 79.5546C49.8575 79.7909 50.0032 79.9585 50.1677 80.0575C50.3319 80.1548 50.5078 80.1849 50.6953 80.1477Z" fill="white"/>
<path d="M56.2356 74.0426L58.057 78.7192L57.0683 79.1043L55.6123 75.3662L55.5849 75.3769L54.7755 76.4653L54.4339 75.5885L55.3062 74.4046L56.2356 74.0426Z" fill="white"/>
<path d="M62.5042 43.9688C62.5042 45.8728 62.1433 47.4927 61.4215 48.8284C60.7054 50.164 59.7278 51.1842 58.4887 51.889C57.2554 52.5881 55.8686 52.9376 54.3283 52.9376C52.7767 52.9376 51.3842 52.5853 50.1508 51.8805C48.9174 51.1757 47.9427 50.1555 47.2266 48.8198C46.5104 47.4842 46.1523 45.8672 46.1523 43.9688C46.1523 42.0648 46.5104 40.4449 47.2266 39.1093C47.9427 37.7736 48.9174 36.7563 50.1508 36.0572C51.3842 35.3524 52.7767 35 54.3283 35C55.8686 35 57.2554 35.3524 58.4887 36.0572C59.7278 36.7563 60.7054 37.7736 61.4215 39.1093C62.1433 40.4449 62.5042 42.0648 62.5042 43.9688ZM58.7616 43.9688C58.7616 42.7355 58.5768 41.6954 58.2074 40.8485C57.8436 40.0016 57.3293 39.3594 56.6643 38.9217C55.9993 38.4841 55.2206 38.2653 54.3283 38.2653C53.436 38.2653 52.6573 38.4841 51.9923 38.9217C51.3273 39.3594 50.8101 40.0016 50.4407 40.8485C50.0769 41.6954 49.895 42.7355 49.895 43.9688C49.895 45.2022 50.0769 46.2423 50.4407 47.0892C50.8101 47.936 51.3273 48.5783 51.9923 49.0159C52.6573 49.4536 53.436 49.6724 54.3283 49.6724C55.2206 49.6724 55.9993 49.4536 56.6643 49.0159C57.3293 48.5783 57.8436 47.936 58.2074 47.0892C58.5768 46.2423 58.7616 45.2022 58.7616 43.9688Z" fill="white"/>
<path d="M40.2005 40.2602C40.1323 39.5725 39.8396 39.0382 39.3224 38.6574C38.8052 38.2766 38.1033 38.0862 37.2166 38.0862C36.6141 38.0862 36.1054 38.1715 35.6905 38.342C35.2756 38.5068 34.9573 38.737 34.7357 39.0326C34.5197 39.3281 34.4117 39.6634 34.4117 40.0386C34.4003 40.3512 34.4657 40.624 34.6078 40.857C34.7556 41.09 34.9573 41.2918 35.2131 41.4623C35.4689 41.6272 35.7644 41.7721 36.0998 41.8971C36.4351 42.0165 36.7932 42.1188 37.174 42.204L38.7427 42.5792C39.5043 42.7497 40.2034 42.977 40.8399 43.2612C41.4765 43.5454 42.0278 43.8949 42.4939 44.3098C42.9599 44.7247 43.3209 45.2135 43.5766 45.7762C43.8381 46.3389 43.9716 46.984 43.9773 47.7115C43.9716 48.78 43.6988 49.7065 43.1589 50.4908C42.6246 51.2695 41.8516 51.8748 40.8399 52.3068C39.8339 52.733 38.6205 52.9462 37.1995 52.9462C35.79 52.9462 34.5623 52.7302 33.5165 52.2982C32.4764 51.8663 31.6637 51.2269 31.0782 50.38C30.4985 49.5274 30.1944 48.4731 30.166 47.217H33.7382C33.778 47.8025 33.9457 48.2912 34.2412 48.6834C34.5424 49.0699 34.9431 49.3626 35.4433 49.5615C35.9491 49.7548 36.5204 49.8514 37.1569 49.8514C37.7821 49.8514 38.3249 49.7605 38.7853 49.5786C39.2514 49.3967 39.6123 49.1438 39.868 48.8198C40.1238 48.4959 40.2517 48.1236 40.2517 47.703C40.2517 47.3108 40.1352 46.9812 39.9021 46.714C39.6748 46.4469 39.3394 46.2196 38.8961 46.032C38.4585 45.8444 37.9214 45.6739 37.2848 45.5205L35.3836 45.043C33.9116 44.685 32.7492 44.1251 31.8967 43.3635C31.0441 42.6019 30.6207 41.576 30.6264 40.2858C30.6207 39.2286 30.9021 38.305 31.4704 37.515C32.0445 36.725 32.8317 36.1083 33.832 35.665C34.8323 35.2217 35.969 35 37.2422 35C38.5381 35 39.6691 35.2217 40.6353 35.665C41.6072 36.1083 42.3632 36.725 42.9031 37.515C43.4431 38.305 43.7216 39.2201 43.7386 40.2602H40.2005Z" fill="white"/>
<path d="M27.6915 35.2383V52.6985H24V35.2383H27.6915Z" fill="white"/>
<mask id="mask0_2241_1391" style="mask-type:alpha" maskUnits="userSpaceOnUse" x="23" y="22" width="40" height="11">
<path d="M23 33C27.043 26.402 34.3201 22 42.6253 22C50.9304 22 58.2075 26.402 62.2505 33C48.125 33 36.625 33 23 33Z" fill="#D9D9D9"/>
</mask>
<g mask="url(#mask0_2241_1391)">
<circle cx="42.625" cy="45" r="21" stroke="white" stroke-width="0.7"/>
<path d="M42.625 66L42.3775 66.2475C42.5142 66.3842 42.7358 66.3842 42.8725 66.2475L42.625 66ZM42.625 24L42.8725 23.7525C42.7358 23.6158 42.5142 23.6158 42.3775 23.7525L42.625 24ZM50.275 45C50.275 50.7575 49.2825 54.9567 47.8064 58.2044C46.3303 61.452 44.3617 63.7683 42.3775 65.7525L42.8725 66.2475C44.8883 64.2317 46.9197 61.847 48.4436 58.4941C49.9675 55.1412 50.975 50.8405 50.975 45H50.275ZM42.8725 65.7525C40.8883 63.7683 38.9197 61.452 37.4436 58.2044C35.9675 54.9567 34.975 50.7575 34.975 45H34.275C34.275 50.8405 35.2825 55.1412 36.8064 58.4941C38.3303 61.847 40.3617 64.2317 42.3775 66.2475L42.8725 65.7525ZM34.975 45C34.975 33.5187 39.919 27.201 42.8725 24.2475L42.3775 23.7525C39.3308 26.7992 34.275 33.2854 34.275 45H34.975ZM42.3775 24.2475C45.331 27.2009 50.275 33.5187 50.275 45H50.975C50.975 33.2854 45.9192 26.7991 42.8725 23.7525L42.3775 24.2475Z" fill="white"/>
<path d="M31.625 27C33.125 28.5 36.5499 31 42.625 31C48.7001 31 52.125 28.5 53.625 27" stroke="white" stroke-width="0.7"/>
</g>
<mask id="mask1_2241_1391" style="mask-type:alpha" maskUnits="userSpaceOnUse" x="23" y="55" width="40" height="11">
<path d="M23 55C27.043 61.598 34.3201 66 42.6253 66C50.9304 66 58.2075 61.598 62.2505 55C48.125 55 36.625 55 23 55Z" fill="#D9D9D9"/>
</mask>
<g mask="url(#mask1_2241_1391)">
<circle cx="21" cy="21" r="21" transform="matrix(1 0 0 -1 21.625 64)" stroke="white" stroke-width="0.7"/>
<path d="M42.625 22L42.3775 21.7525C42.5142 21.6158 42.7358 21.6158 42.8725 21.7525L42.625 22ZM42.625 64L42.8725 64.2475C42.7358 64.3842 42.5142 64.3842 42.3775 64.2475L42.625 64ZM50.275 43C50.275 37.2425 49.2825 33.0433 47.8064 29.7956C46.3303 26.548 44.3617 24.2317 42.3775 22.2475L42.8725 21.7525C44.8883 23.7683 46.9197 26.153 48.4436 29.5059C49.9675 32.8588 50.975 37.1595 50.975 43H50.275ZM42.8725 22.2475C40.8883 24.2317 38.9197 26.548 37.4436 29.7956C35.9675 33.0433 34.975 37.2425 34.975 43H34.275C34.275 37.1595 35.2825 32.8588 36.8064 29.5059C38.3303 26.153 40.3617 23.7683 42.3775 21.7525L42.8725 22.2475ZM34.975 43C34.975 54.4813 39.919 60.799 42.8725 63.7525L42.3775 64.2475C39.3308 61.2008 34.275 54.7146 34.275 43H34.975ZM42.3775 63.7525C45.331 60.7991 50.275 54.4813 50.275 43H50.975C50.975 54.7146 45.9192 61.2009 42.8725 64.2475L42.3775 63.7525Z" fill="white"/>
<path d="M31.625 61C33.125 59.5 36.5499 57 42.625 57C48.7001 57 52.125 59.5 53.625 61" stroke="white" stroke-width="0.7"/>
</g>
<defs>
<linearGradient id="paint0_linear_2241_1391" x1="43.4332" y1="86.8664" x2="43.4332" y2="0" gradientUnits="userSpaceOnUse">
<stop stop-color="#1953C7"/>
<stop offset="1" stop-color="#598FF9"/>
</linearGradient>
<linearGradient id="paint1_linear_2241_1391" x1="43.4347" y1="13.7246" x2="43.4347" y2="73.1409" gradientUnits="userSpaceOnUse">
<stop stop-color="#1953C7"/>
<stop offset="1" stop-color="#598FF9"/>
</linearGradient>
</defs>
</svg>
