<svg width="20" height="20" viewBox="0 0 20 20" fill="none" xmlns="http://www.w3.org/2000/svg">
<path d="M4.52354 6.67188H0.398438V20.0058H4.52354V6.67188Z" fill="#838B9C"/>
<path d="M2.4402 4.91913C3.78618 4.91913 4.8804 3.81523 4.8804 2.45957C4.8804 1.1039 3.78618 0 2.4402 0C1.09422 0 0 1.1039 0 2.45957C0 3.81523 1.09422 4.91913 2.4402 4.91913Z" fill="#838B9C"/>
<path d="M11.1324 13.0052C11.1324 11.1267 11.9942 10.0131 13.65 10.0131C15.1703 10.0131 15.8966 11.0879 15.8966 13.0052V20.0063H20.0023V11.5624C20.0023 7.98926 17.9785 6.26562 15.1509 6.26562C12.3234 6.26562 11.1324 8.47342 11.1324 8.47342V6.67233H7.17188V20.0063H11.1324V13.0052Z" fill="#838B9C"/>
</svg>
