<svg width="20" height="15" viewBox="0 0 20 15" fill="none" xmlns="http://www.w3.org/2000/svg">
<path d="M19.5811 2.1955C19.3483 1.32661 18.6734 0.651667 17.8123 0.418928C16.2529 -7.94729e-07 10 0 10 0C10 0 3.74709 -7.94729e-07 2.18775 0.418928C1.32661 0.651667 0.651674 1.33437 0.418936 2.1955C6.62274e-06 3.7626 0 7.03646 0 7.03646C0 7.03646 6.62274e-06 10.3103 0.418936 11.8774C0.651674 12.7463 1.32661 13.4212 2.18775 13.654C3.74709 14.0729 10 14.0729 10 14.0729C10 14.0729 16.2529 14.0729 17.8123 13.654C18.6734 13.4212 19.3483 12.7386 19.5811 11.8774C20 10.3103 20 7.03646 20 7.03646C20 7.03646 20 3.7626 19.5811 2.1955ZM7.95966 10.0078V4.06517L13.1808 7.03646L7.95966 10.0078Z" fill="#838B9C"/>
</svg>
